<?xml version="1.0" standalone="no"?>
<!DOCTYPE svg PUBLIC "-//W3C//DTD SVG 20010904//EN"
 "http://www.w3.org/TR/2001/REC-SVG-20010904/DTD/svg10.dtd">
<svg version="1.0" xmlns="http://www.w3.org/2000/svg"
 width="512.000000pt" height="512.000000pt" viewBox="0 0 512.000000 512.000000"
 preserveAspectRatio="xMidYMid meet">

<g transform="translate(0.000000,512.000000) scale(0.100000,-0.100000)"
fill="#000000" stroke="none">
<path d="M1225 4954 c-92 -14 -198 -39 -260 -61 -622 -222 -950 -894 -741
-1518 65 -193 158 -346 295 -484 188 -189 432 -306 682 -327 l79 -7 0 80 0 80
-75 7 c-436 40 -809 420 -874 890 -61 437 165 872 554 1069 398 200 846 139
1185 -162 l45 -40 -97 -1 -98 0 0 -80 0 -80 215 0 c288 0 265 -23 265 265 l0
215 -80 0 -79 0 -3 -107 -3 -107 -58 52 c-163 148 -350 246 -557 293 -83 19
-329 33 -395 23z"/>
<path d="M960 4400 l0 -80 -135 0 c-131 0 -137 -1 -160 -25 -25 -24 -25 -26
-25 -215 0 -189 0 -191 25 -215 l24 -25 296 0 295 0 0 -80 0 -80 -320 0 -320
0 0 -80 0 -80 160 0 160 0 0 -80 0 -80 80 0 80 0 0 80 0 80 135 0 c131 0 137
1 160 25 25 24 25 26 25 215 0 189 0 191 -25 215 l-24 25 -296 0 -295 0 0 80
0 80 320 0 320 0 0 80 0 80 -160 0 -160 0 0 80 0 80 -80 0 -80 0 0 -80z"/>
<path d="M3520 4160 l0 -80 640 0 640 0 0 80 0 80 -640 0 -640 0 0 -80z"/>
<path d="M2025 4055 c-25 -24 -25 -24 -25 -240 l0 -215 -175 0 c-242 0 -225
20 -225 -265 l0 -215 -55 0 c-46 0 -60 -4 -80 -25 l-25 -24 0 -271 0 -271 25
-24 c13 -14 34 -25 46 -25 14 0 -78 -80 -280 -241 l-302 -242 -342 -38 c-188
-21 -350 -39 -360 -39 -10 0 -29 -11 -42 -25 l-25 -24 0 -592 c0 -435 3 -603
12 -633 16 -55 99 -138 154 -154 28 -8 123 -12 285 -12 l244 0 29 -51 c59
-105 180 -199 316 -245 77 -26 244 -26 320 0 137 47 232 118 300 224 l45 71
535 0 535 1 29 -51 c59 -105 180 -199 316 -245 77 -26 244 -26 320 0 137 47
232 118 300 224 l45 71 244 0 c160 1 258 5 285 13 58 17 138 99 154 158 10 34
12 181 10 595 l-3 550 -248 353 c-210 299 -246 355 -237 372 6 11 10 104 10
229 l0 211 55 0 c46 0 60 4 80 25 l25 24 0 271 0 271 -25 24 -24 25 -416 0
-415 0 0 215 c0 216 0 216 -25 240 l-24 25 -671 0 -671 0 -24 -25z m295 -215
l0 -80 80 0 80 0 0 80 0 80 80 0 80 0 0 -80 0 -80 80 0 80 0 0 80 0 80 80 0
80 0 0 -80 0 -80 80 0 80 0 0 80 0 80 80 0 80 0 0 -160 0 -160 -560 0 -560 0
0 160 0 160 80 0 80 0 0 -80z m-400 -480 l0 -80 80 0 80 0 0 80 0 80 80 0 80
0 0 -80 0 -80 80 0 80 0 0 80 0 80 80 0 80 0 0 -80 0 -80 80 0 80 0 0 80 0 80
80 0 80 0 0 -160 0 -160 -560 0 -560 0 0 160 0 160 80 0 80 0 0 -80z m1280 0
l0 -80 80 0 80 0 0 80 0 80 80 0 80 0 0 -80 0 -80 80 0 80 0 0 80 0 80 80 0
80 0 0 -80 0 -80 80 0 80 0 0 80 0 80 80 0 80 0 0 -160 0 -160 -560 0 -560 0
0 160 0 160 80 0 80 0 0 -80z m-1440 -480 l0 -80 80 0 80 0 0 80 0 80 80 0 80
0 0 -80 0 -80 80 0 80 0 0 80 0 80 80 0 80 0 0 -80 0 -80 80 0 80 0 0 80 0 80
80 0 80 0 0 -160 0 -160 -560 0 -560 0 0 160 0 160 80 0 80 0 0 -80z m1280 0
l0 -80 80 0 80 0 0 80 0 80 80 0 80 0 0 -80 0 -80 80 0 80 0 0 80 0 80 80 0
80 0 0 -80 0 -80 80 0 80 0 0 80 0 80 80 0 80 0 0 -160 0 -160 -560 0 -560 0
0 160 0 160 80 0 80 0 0 -80z m973 -477 l54 -78 -294 -5 -295 -5 -19 -24 c-18
-22 -19 -42 -19 -293 l0 -269 25 -24 24 -25 496 0 495 0 0 -120 0 -120 -135 0
c-131 0 -137 -1 -160 -25 -25 -24 -25 -24 -25 -240 l0 -215 -107 1 -108 0 -45
71 c-68 106 -163 177 -300 224 -76 26 -243 26 -320 0 -135 -46 -266 -147 -320
-249 l-25 -47 -535 1 -535 0 -45 71 c-68 106 -163 177 -300 224 -76 26 -243
26 -320 0 -135 -46 -266 -147 -320 -249 l-25 -47 -267 0 -268 0 0 240 0 240
215 0 c283 0 265 -15 265 214 l0 164 28 6 c15 3 57 8 95 12 l67 6 398 319 397
318 1087 1 1086 0 55 -77z m212 -325 c33 -45 86 -117 118 -160 l58 -78 -401 0
-400 0 0 160 0 160 283 0 282 -1 60 -81z m-3585 -378 l0 -100 -160 0 -160 0 0
84 0 84 68 7 c37 4 92 11 122 15 30 4 72 8 93 9 l37 1 0 -100z m3840 -580 l0
-160 -80 0 -80 0 0 160 0 160 80 0 80 0 0 -160z m-2956 -38 c91 -42 149 -100
194 -190 35 -72 37 -81 37 -172 0 -91 -2 -100 -37 -172 -45 -91 -103 -147
-196 -191 -61 -29 -76 -32 -162 -32 -86 0 -101 3 -162 32 -93 44 -151 100
-196 191 -35 72 -37 81 -37 171 0 87 3 102 32 163 40 85 97 147 172 186 78 42
122 52 213 48 61 -3 92 -11 142 -34z m2080 0 c91 -42 149 -100 194 -190 35
-72 37 -81 37 -172 0 -91 -2 -100 -37 -172 -45 -91 -103 -147 -196 -191 -61
-29 -76 -32 -162 -32 -86 0 -101 3 -162 32 -93 44 -151 100 -196 191 -35 72
-37 81 -37 171 0 87 3 102 32 163 40 85 97 147 172 186 78 42 122 52 213 48
61 -3 92 -11 142 -34z m-2799 -362 l0 -80 -218 0 -218 0 -24 25 c-21 20 -25
34 -25 80 l0 55 243 0 242 0 0 -80z m2080 0 l0 -80 -485 0 -485 0 0 80 0 80
485 0 485 0 0 -80z m1595 25 c0 -46 -4 -60 -25 -80 l-24 -25 -218 0 -218 0 0
80 0 80 243 0 242 0 0 -55z"/>
<path d="M1608 2079 c-156 -133 -293 -252 -305 -266 -31 -32 -30 -77 2 -108
l24 -25 951 0 951 0 24 25 25 24 0 271 0 271 -25 24 -24 25 -670 0 -671 0
-282 -241z m1512 -79 l0 -160 -772 0 -773 0 35 29 c19 16 103 88 185 159 l150
131 588 0 587 1 0 -160z"/>
<path d="M2000 1440 l0 -80 80 0 80 0 0 80 0 80 -80 0 -80 0 0 -80z"/>
<path d="M2320 1440 l0 -80 360 0 360 0 0 80 0 80 -360 0 -360 0 0 -80z"/>
<path d="M3680 3840 l0 -80 640 0 640 0 0 80 0 80 -640 0 -640 0 0 -80z"/>
<path d="M4320 2720 l0 -80 320 0 320 0 0 80 0 80 -320 0 -320 0 0 -80z"/>
</g>
</svg>
