<?xml version="1.0" encoding="utf-8"?>
<!-- Generator: Adobe Illustrator 19.0.0, SVG Export Plug-In . SVG Version: 6.00 Build 0)  -->
<svg version="1.1" id="Capa_1" xmlns="http://www.w3.org/2000/svg" xmlns:xlink="http://www.w3.org/1999/xlink" x="0px" y="0px"
	 viewBox="-295 297.1 431.9 431.9" style="enable-background:new -295 297.1 431.9 431.9;" xml:space="preserve">
<style type="text/css">
	.st0{fill:#010002;}
</style>
<g>
	<path class="st0" d="M-295,513c0,119.3,96.6,216,215.9,216c119.2,0,215.9-96.7,215.9-216c0-119.2-96.7-215.8-215.9-215.8
		C-198.4,297.1-295,393.7-295,513z M-102,614.7c0-7,2.4-12.9,7.2-17.7c4.8-4.8,10.7-7.2,17.8-7.2c7.1,0,13.2,2.4,18.1,7.2
		c4.9,4.8,7.4,10.7,7.4,17.7c0,7.9-2.5,14.1-7.6,18.5c-5.1,4.4-11,6.6-17.8,6.6c-6.6,0-12.4-2.2-17.4-6.7
		C-99.5,628.6-102,622.5-102,614.7z M-162.8,453.1c0-12.1,3.4-23.2,10.1-33.5c6.8-10.3,16.3-18.4,28.7-24.4c12.4-6,26.7-9,42.9-9
		c17.4,0,32.6,3.6,45.7,10.7c13.1,7.1,23,16.2,29.8,27C1.2,435,4.7,445.7,4.7,456.3c0,5.1-2.1,9.9-6.4,14.3
		c-4.3,4.4-9.6,6.6-15.8,6.6c-10.6,0-17.8-6.3-21.6-18.9c-4-12.1-8.9-21.2-14.7-27.4s-14.8-9.3-27.1-9.3c-10.5,0-19.1,3.1-25.7,9.2
		c-6.6,6.1-10,13.7-10,22.6c0,4.6,1.1,8.8,3.3,12.7c2.2,3.9,4.8,7.4,8,10.6c3.2,3.2,8.3,7.9,15.5,14.1c8.2,7.1,14.6,13.3,19.4,18.5
		c4.8,5.2,8.7,11.2,11.5,18.1c2.9,6.9,4.4,15,4.4,24.4c0,7.5-2,13.1-5.9,16.9c-4,3.8-8.9,5.7-14.7,5.7c-11.2,0-17.8-5.8-19.9-17.4
		c-1.2-5.5-2.2-9.3-2.8-11.5c-0.6-2.2-1.5-4.4-2.6-6.5c-1.1-2.2-2.8-4.6-5.1-7.2c-2.3-2.6-5.3-5.7-9.1-9.1
		c-13.7-12.3-23.3-21-28.5-26.2c-5.3-5.2-9.9-11.4-13.7-18.5C-160.9,470.9-162.8,462.6-162.8,453.1z"/>
</g>
</svg>
