<?xml version="1.0"?>
<svg xmlns="http://www.w3.org/2000/svg" xmlns:xlink="http://www.w3.org/1999/xlink" xmlns:svgjs="http://svgjs.com/svgjs" version="1.1" width="512" height="512" x="0" y="0" viewBox="0 0 64 64" style="enable-background:new 0 0 512 512" xml:space="preserve" class=""><g transform="matrix(-1,1.2246467991473532e-16,-1.2246467991473532e-16,-1,63.99999618530275,63.99999999999999)"><path xmlns="http://www.w3.org/2000/svg" d="m41.29 53a2.91 2.91 0 0 0 1.12-.23l3.74-1.54a2.9 2.9 0 0 0 1.58-1.57 2.93 2.93 0 0 0 0-2.27.89.89 0 0 1 .21-1 17.82 17.82 0 0 0 2.42-2.39.92.92 0 0 1 1.07-.23 2.89 2.89 0 0 0 3.79-1.58l1.55-3.73a2.88 2.88 0 0 0 0-2.23 2.83 2.83 0 0 0 -1.5-1.54l-.12-.06a.86.86 0 0 1 -.55-.87 20.21 20.21 0 0 0 0-3.48.93.93 0 0 1 .59-.85 2.91 2.91 0 0 0 1.58-1.58 2.85 2.85 0 0 0 0-2.22l-1.54-3.74a2.9 2.9 0 0 0 -1.57-1.58 2.93 2.93 0 0 0 -2.27 0 .91.91 0 0 1 -1-.21 17.82 17.82 0 0 0 -2.39-2.46.91.91 0 0 1 -.31-.68.94.94 0 0 1 .08-.39 2.89 2.89 0 0 0 -1.58-3.79l-3.73-1.55a2.93 2.93 0 0 0 -1.17-.23 2.89 2.89 0 0 0 -2.68 1.8.92.92 0 0 1 -.94.58 20.69 20.69 0 0 0 -3.43 0 .93.93 0 0 1 -.85-.59 2.91 2.91 0 0 0 -1.58-1.58 2.85 2.85 0 0 0 -2.22 0l-3.74 1.54a2.9 2.9 0 0 0 -1.8 2.69 2.83 2.83 0 0 0 .22 1.12 1 1 0 0 1 -.07.87l1.67 1.1a2.93 2.93 0 0 0 .24-2.74 1 1 0 0 1 -.06-.35.92.92 0 0 1 .56-.84l3.75-1.55a.92.92 0 0 1 .69 0 .89.89 0 0 1 .49.5 2.94 2.94 0 0 0 2.7 1.82h.27a16.59 16.59 0 0 1 3 0 3 3 0 0 0 3-1.82.89.89 0 0 1 1.18-.49l3.74 1.56a.86.86 0 0 1 .49.48.85.85 0 0 1 0 .68 2.92 2.92 0 0 0 -.27 1.22 2.82 2.82 0 0 0 1 2.21 18.23 18.23 0 0 1 2.14 2.17 2.88 2.88 0 0 0 3.36.77.9.9 0 0 1 .7 0 .9.9 0 0 1 .49.49l1.55 3.75a.92.92 0 0 1 0 .69.89.89 0 0 1 -.5.49 2.94 2.94 0 0 0 -1.82 2.7 1.57 1.57 0 0 0 0 .26 16.24 16.24 0 0 1 0 3 2.85 2.85 0 0 0 1.71 2.87l.12.06a.86.86 0 0 1 .49.48.94.94 0 0 1 0 .7l-1.56 3.74a.86.86 0 0 1 -.48.49.85.85 0 0 1 -.68 0 3 3 0 0 0 -3.38.8 17.51 17.51 0 0 1 -2.17 2.14 2.88 2.88 0 0 0 -.77 3.36.9.9 0 0 1 0 .7.9.9 0 0 1 -.49.49l-3.75 1.55a.92.92 0 0 1 -.69 0 .89.89 0 0 1 -.49-.5 2.94 2.94 0 0 0 -2.7-1.82h-.23a16.24 16.24 0 0 1 -3 0 2.83 2.83 0 0 0 -2.87 1.72l-.06.11a.86.86 0 0 1 -.48.49.94.94 0 0 1 -.7 0l-3.74-1.56a.86.86 0 0 1 -.49-.48.85.85 0 0 1 0-.68 2.92 2.92 0 0 0 -.3-2.85l-1.62 1.16a1 1 0 0 1 .16.52.94.94 0 0 1 -.08.39 2.89 2.89 0 0 0 1.58 3.79l3.73 1.55a2.88 2.88 0 0 0 2.23 0 2.82 2.82 0 0 0 1.54-1.51.27.27 0 0 0 0-.11.89.89 0 0 1 .88-.55 20.21 20.21 0 0 0 3.48 0 .93.93 0 0 1 .85.59 2.91 2.91 0 0 0 1.58 1.58 2.84 2.84 0 0 0 1.1.25z" fill="#1b6cc7" data-original="#000000"/><path xmlns="http://www.w3.org/2000/svg" d="m36 44a12.24 12.24 0 0 1 -6.47-1.83l-1.06 1.7a14.33 14.33 0 0 0 7.53 2.13 14.1 14.1 0 0 0 14.17-14 13.77 13.77 0 0 0 -4.08-9.83 14.13 14.13 0 0 0 -10.09-4.17 14.33 14.33 0 0 0 -7.53 2.13l1.06 1.7a12.33 12.33 0 0 1 15.15 1.75 11.87 11.87 0 0 1 3.49 8.42 12.1 12.1 0 0 1 -12.17 12z" fill="#1b6cc7" data-original="#000000"/><path xmlns="http://www.w3.org/2000/svg" d="m13.61 40.64-1.87.72a26.07 26.07 0 0 0 20.1 16.31l.32-2a24 24 0 0 1 -18.55-15.03z" fill="#1b6cc7" data-original="#000000"/><path xmlns="http://www.w3.org/2000/svg" d="m39.84 55.69.32 2a25.92 25.92 0 0 0 21.51-21.53l-2-.32a23.9 23.9 0 0 1 -19.83 19.85z" fill="#1b6cc7" data-original="#000000"/><path xmlns="http://www.w3.org/2000/svg" d="m59.69 28.16 2-.32a25.92 25.92 0 0 0 -21.53-21.51l-.32 2a23.9 23.9 0 0 1 19.85 19.83z" fill="#1b6cc7" data-original="#000000"/><path xmlns="http://www.w3.org/2000/svg" d="m32.16 8.31-.32-2a26.07 26.07 0 0 0 -20.1 16.31l1.87.72a24 24 0 0 1 18.55-15.03z" fill="#1b6cc7" data-original="#000000"/><path xmlns="http://www.w3.org/2000/svg" d="m19 43a1 1 0 0 0 .55.89 1 1 0 0 0 1-.08l15-11a1 1 0 0 0 0-1.62l-14.63-10.76-.33-.24a1 1 0 0 0 -1-.08 1 1 0 0 0 -.59.89v5h-14a3 3 0 0 0 -3 3v6a3 3 0 0 0 3 3h14zm-14-7a1 1 0 0 1 -1-1v-6a1 1 0 0 1 1-1h15a1 1 0 0 0 1-1v-4l12.31 9-12.31 9v-4a1 1 0 0 0 -1-1z" fill="#1b6cc7" data-original="#000000"/><path xmlns="http://www.w3.org/2000/svg" d="m35 6h2v2h-2z" fill="#1b6cc7" data-original="#000000"/><path xmlns="http://www.w3.org/2000/svg" d="m60 31h2v2h-2z" fill="#1b6cc7" data-original="#000000"/><path xmlns="http://www.w3.org/2000/svg" d="m35 56h2v2h-2z" fill="#1b6cc7" data-original="#000000"/></g></svg>
