<?xml version="1.0" standalone="no"?>
<!DOCTYPE svg PUBLIC "-//W3C//DTD SVG 20010904//EN"
 "http://www.w3.org/TR/2001/REC-SVG-20010904/DTD/svg10.dtd">
<svg version="1.0" id="icg_car" xmlns="http://www.w3.org/2000/svg"
  viewBox="0 0 512 512"
 preserveAspectRatio="xMidYMid meet" x="0px" y="0px>

<metadata>
Created by potrace 1.10, written by Peter Selinger 2001-2011
</metadata>
<g transform="translate(0.000000,300.000000) scale(0.100000,-0.100000)"
fill="#000000" stroke="none">
<path d="M710 2901 c-355 -50 -613 -342 -613 -696 0 -122 21 -213 73 -320 70
-145 192 -266 333 -330 57 -26 170 -55 220 -55 26 0 27 2 27 48 l0 47 -48 3
c-200 11 -397 175 -479 400 -34 91 -43 249 -19 342 57 226 230 399 456 456 88
22 241 15 330 -16 74 -25 156 -73 215 -125 l40 -36 -59 3 -59 3 -2 -47 -2 -48
128 0 c163 0 159 -4 159 162 l0 118 -51 0 -51 0 4 -60 c1 -33 2 -60 0 -60 -2
0 -31 23 -65 52 -68 57 -192 120 -278 142 -73 18 -191 26 -259 17z m254 -51
c94 -24 191 -74 273 -140 34 -28 66 -50 72 -50 17 0 31 36 31 80 0 33 3 41 16
38 14 -2 16 -19 16 -101 -1 -53 -4 -102 -7 -107 -3 -6 -50 -10 -106 -10 -81 0
-99 3 -99 15 0 10 10 15 33 15 21 0 41 8 51 19 16 18 17 22 3 41 -25 36 -117
101 -192 136 -96 44 -174 58 -298 51 -170 -9 -283 -61 -414 -193 -46 -46 -83
-88 -83 -95 0 -6 -8 -23 -19 -37 -63 -90 -97 -292 -72 -424 28 -143 108 -288
209 -378 68 -61 193 -124 280 -141 41 -8 62 -16 62 -26 0 -11 -9 -12 -37 -8
-146 25 -262 83 -358 180 -80 81 -125 152 -163 257 -34 96 -43 298 -18 399 91
353 463 571 820 479z"/>
<path d="M560 2578 l0 -48 -79 0 c-56 0 -82 -4 -90 -14 -17 -20 -18 -231 -1
-251 10 -12 44 -15 186 -15 l174 0 0 -47 0 -48 -188 3 -188 3 0 -51 0 -50 93
0 93 0 0 -45 0 -45 51 0 51 0 -4 45 -3 45 73 0 c113 0 112 -1 112 138 0 79 -4
122 -12 130 -8 8 -64 12 -185 12 l-173 0 0 50 0 50 188 0 187 0 0 45 0 45 -95
0 -95 0 3 48 4 48 -51 0 -51 0 0 -48z m70 -21 c0 -49 14 -57 102 -57 63 0 78
-3 78 -15 0 -13 -25 -15 -167 -15 -195 0 -203 -3 -203 -81 0 -75 12 -79 207
-79 l163 0 0 -104 c0 -119 3 -116 -94 -116 -71 0 -86 -10 -86 -57 0 -26 -4
-33 -20 -33 -15 0 -20 7 -20 26 0 55 -14 64 -100 64 -64 0 -80 3 -80 15 0 13
25 15 168 15 117 0 172 4 180 12 16 16 16 120 0 136 -8 8 -63 12 -179 12 -195
0 -177 -13 -169 130 l5 85 75 3 c41 2 80 8 87 14 7 6 13 26 13 44 0 27 4 34
20 34 16 0 20 -7 20 -33z"/>
<path d="M2060 2438 l0 -48 375 0 375 0 0 48 0 47 -375 0 -375 0 0 -47z m720
-3 c0 -13 -45 -15 -345 -15 -300 0 -345 2 -345 15 0 13 45 15 345 15 300 0
345 -2 345 -15z"/>
<path d="M1186 2374 c-13 -12 -16 -40 -16 -140 l0 -124 -103 0 c-67 0 -107 -4
-115 -12 -8 -8 -12 -54 -12 -140 l0 -128 -34 0 c-58 0 -66 -22 -66 -188 0
-144 7 -182 36 -182 9 0 14 -4 12 -9 -2 -6 -247 -206 -334 -272 -6 -5 -107
-20 -224 -33 -176 -20 -216 -27 -227 -42 -10 -14 -13 -93 -13 -359 0 -334 0
-342 23 -385 36 -71 64 -80 244 -80 124 0 153 -3 153 -14 0 -27 95 -115 154
-142 72 -33 164 -37 243 -10 57 19 144 90 169 137 l15 29 313 0 314 0 22 -34
c30 -49 85 -95 149 -124 139 -64 320 -7 402 125 l20 32 159 3 c142 3 162 5
187 24 61 45 63 56 63 414 l0 325 -149 211 c-104 148 -146 216 -140 225 5 8 9
69 9 136 0 116 1 121 20 116 11 -3 31 2 45 11 25 16 25 17 25 181 0 152 -1
165 -19 175 -12 6 -113 10 -258 10 l-238 0 3 115 c3 94 1 121 -12 140 l-16 25
-395 0 c-344 0 -396 -2 -409 -16z m787 -20 c12 -4 15 -30 16 -127 1 -69 7
-127 13 -134 8 -10 64 -13 238 -13 126 0 235 -3 244 -6 14 -5 16 -28 16 -155
l0 -149 -24 0 c-13 0 -33 -8 -44 -17 -18 -16 -21 -33 -25 -161 l-4 -143 143
-206 144 -207 0 -318 c0 -270 -2 -324 -16 -349 -25 -49 -64 -59 -228 -59
l-144 0 -35 -49 c-66 -91 -142 -131 -251 -131 -88 0 -150 24 -205 79 -25 26
-54 59 -64 74 l-18 27 -320 0 -321 0 -21 -27 c-94 -116 -160 -153 -276 -153
-109 0 -190 47 -264 154 -18 26 -18 26 -163 26 -155 0 -203 11 -225 51 -9 17
-14 717 -5 726 1 2 96 14 209 26 113 13 212 28 219 34 154 119 336 269 347
284 12 17 11 22 -7 42 -22 24 -24 46 -23 220 1 95 2 97 24 97 13 0 33 10 45
23 19 21 21 34 21 135 0 62 3 117 6 122 3 6 50 10 104 10 62 0 101 4 109 12 8
8 12 52 12 133 0 67 3 125 7 128 8 8 745 9 766 1z"/>
<path d="M1257 2312 c-13 -15 -17 -39 -17 -113 0 -61 4 -99 12 -107 17 -17
669 -17 686 0 8 8 12 47 12 108 0 113 -10 130 -77 130 -46 0 -73 -23 -73 -63
0 -20 -5 -27 -20 -27 -15 0 -20 7 -20 28 0 39 -28 62 -77 62 -46 0 -73 -23
-73 -63 0 -17 -5 -27 -15 -27 -9 0 -15 9 -15 23 0 45 -27 67 -80 67 -53 0 -80
-22 -80 -67 0 -14 -6 -23 -15 -23 -9 0 -15 9 -15 23 0 12 -7 33 -16 45 -20 29
-93 31 -117 4z m103 -62 l0 -50 45 0 45 0 0 50 0 50 50 0 50 0 0 -50 0 -50 45
0 45 0 0 50 0 50 49 0 48 0 -5 -50 -5 -50 52 0 51 0 0 50 0 50 45 0 45 0 0
-95 0 -95 -327 0 -328 0 0 95 0 95 48 0 47 0 0 -50z"/>
<path d="M1022 2038 c-19 -19 -16 -212 3 -232 14 -13 61 -15 332 -16 281 0
318 2 335 17 15 14 18 32 18 119 0 116 -5 124 -74 124 -43 0 -76 -31 -76 -72
0 -42 -26 -35 -35 10 -10 52 -21 62 -70 62 -48 0 -72 -20 -77 -65 -2 -19 -9
-31 -20 -33 -14 -3 -18 4 -18 31 0 45 -26 67 -77 67 -46 0 -70 -20 -75 -65 -2
-19 -9 -30 -18 -30 -9 0 -16 11 -18 30 -5 45 -29 65 -77 65 -22 0 -46 -5 -53
-12z m105 -68 l-6 -50 49 0 50 0 0 50 0 50 45 0 45 0 0 -50 0 -50 51 0 51 0
-3 48 -3 47 47 3 47 3 0 -50 0 -51 48 0 47 0 -3 50 -4 50 51 0 51 0 0 -95 0
-95 -330 0 -330 0 0 95 0 95 51 0 52 0 -6 -50z"/>
<path d="M1772 2038 c-15 -15 -16 -206 -2 -228 8 -13 58 -15 332 -17 284 -2
325 0 340 14 15 13 18 33 18 119 0 116 -5 124 -74 124 -35 0 -77 -31 -75 -54
3 -29 -2 -46 -16 -46 -10 0 -15 10 -15 28 0 47 -25 72 -74 72 -49 0 -73 -19
-78 -65 -2 -19 -9 -31 -20 -33 -14 -3 -18 4 -18 31 0 45 -26 67 -77 67 -48 0
-73 -23 -73 -69 0 -26 -4 -32 -17 -29 -12 2 -19 14 -21 33 -5 45 -29 65 -77
65 -22 0 -46 -5 -53 -12z m105 -68 l-6 -50 49 0 50 0 0 50 0 50 45 0 45 0 0
-50 0 -50 51 0 51 0 -3 48 -3 47 47 3 47 3 0 -50 0 -51 48 0 47 0 -3 50 -4 50
51 0 51 0 0 -95 0 -95 -330 0 -330 0 0 95 0 95 51 0 52 0 -6 -50z"/>
<path d="M932 1754 c-20 -14 -22 -23 -22 -107 0 -68 4 -99 16 -115 l15 -22
322 0 c280 1 324 3 339 17 15 13 18 33 18 113 0 111 -11 130 -73 130 -46 0
-77 -29 -77 -70 0 -20 -5 -30 -15 -30 -10 0 -15 10 -15 28 0 45 -38 74 -90 69
-49 -5 -70 -26 -70 -69 0 -18 -5 -28 -15 -28 -10 0 -15 10 -15 30 0 42 -31 70
-78 70 -45 0 -69 -21 -74 -65 -4 -43 -38 -48 -38 -6 0 61 -74 93 -128 55z m98
-66 l0 -48 49 0 49 0 -1 46 -2 46 48 2 47 2 0 -48 0 -48 45 0 45 0 0 48 0 47
51 0 51 0 -4 -48 -3 -47 48 0 47 0 0 48 0 48 46 -2 46 -2 1 -91 2 -91 -327 0
-328 0 0 93 0 92 45 0 45 0 0 -47z"/>
<path d="M1682 1754 c-20 -14 -22 -23 -22 -113 0 -82 3 -101 18 -114 16 -15
55 -17 337 -17 280 1 321 3 337 17 15 13 18 32 18 113 0 111 -11 130 -73 130
-46 0 -77 -29 -77 -70 0 -20 -5 -30 -15 -30 -10 0 -15 10 -15 28 0 40 -37 72
-83 72 -46 0 -77 -28 -77 -70 0 -20 -5 -30 -15 -30 -10 0 -15 10 -15 30 0 42
-31 70 -78 70 -45 0 -69 -21 -74 -65 -4 -43 -38 -48 -38 -6 0 61 -74 93 -128
55z m98 -66 l0 -48 49 0 49 0 -1 46 -2 46 48 2 47 2 0 -48 0 -48 45 0 45 0 0
48 0 47 51 0 51 0 -4 -48 -3 -47 48 0 47 0 0 48 0 48 46 -2 46 -2 1 -91 2 -91
-327 0 -328 0 0 93 0 92 45 0 45 0 0 -47z"/>
<path d="M1052 1482 c-13 -4 -125 -89 -250 -188 -212 -169 -230 -182 -279
-189 -73 -10 -82 -23 -85 -130 l-3 -90 -121 -5 c-82 -3 -126 -9 -138 -19 -23
-20 -24 -292 0 -315 13 -13 43 -16 174 -16 l158 0 35 49 c66 92 146 133 257
134 104 0 176 -38 250 -132 l40 -51 320 0 320 0 24 38 c26 42 82 94 124 116
50 25 133 37 189 26 93 -17 122 -38 228 -162 21 -25 136 -26 156 -1 10 11 15
54 18 140 l3 123 77 0 c47 0 82 5 89 12 7 7 12 42 12 88 0 115 18 109 -315
110 -153 0 -281 2 -283 5 -6 5 -2 287 4 297 3 4 78 8 167 8 148 0 163 2 174
19 10 16 7 26 -16 62 -50 79 6 73 -684 76 -342 1 -632 -1 -645 -5z m1298 -70
c14 -20 27 -40 28 -44 2 -5 -72 -8 -165 -8 -118 0 -173 -4 -181 -12 -8 -8 -12
-63 -12 -180 0 -157 1 -168 20 -178 13 -7 120 -10 302 -10 l283 1 3 -70 3 -71
-84 0 c-51 0 -88 -5 -95 -12 -8 -8 -12 -54 -12 -140 l0 -128 -63 0 -64 0 -31
49 c-80 123 -258 174 -395 113 -52 -23 -132 -93 -153 -134 l-15 -28 -312 0
-312 0 -33 51 c-79 121 -258 171 -395 111 -52 -23 -132 -93 -153 -134 l-15
-28 -154 0 -155 0 0 143 0 142 116 -3 c161 -4 164 -3 164 127 l0 98 56 7 c54
6 62 12 287 191 l231 185 640 0 641 0 25 -38z"/>
<path d="M933 1212 c-102 -87 -175 -157 -179 -171 -5 -19 -1 -29 16 -43 22
-18 50 -18 577 -16 479 3 555 5 563 18 15 23 13 333 -2 348 -9 9 -113 12 -407
12 l-396 -1 -172 -147z m955 -39 l3 -153 -556 0 c-338 0 -555 4 -555 9 0 6 77
75 170 155 l171 146 382 -2 382 -3 3 -152z"/>
<path d="M1049 1223 c-157 -131 -170 -152 -112 -174 13 -5 215 -9 452 -9 402
0 429 1 444 18 14 15 17 40 17 120 0 91 -2 102 -20 112 -13 7 -137 10 -355 9
l-336 0 -90 -76z m781 -48 l0 -95 -452 0 -453 0 45 38 c24 20 74 63 110 94
l65 58 343 0 342 0 0 -95z"/>
<path d="M1170 845 l0 -45 50 0 50 0 0 45 0 45 -50 0 -50 0 0 -45z m60 0 c0
-8 -7 -15 -15 -15 -8 0 -15 7 -15 15 0 8 7 15 15 15 8 0 15 -7 15 -15z"/>
<path d="M1360 845 l0 -45 210 0 210 0 0 45 0 45 -210 0 -210 0 0 -45z m390 0
c0 -13 -27 -15 -180 -15 -153 0 -180 2 -180 15 0 13 27 15 180 15 153 0 180
-2 180 -15z"/>
<path d="M2097 1282 c-13 -15 -17 -39 -17 -110 0 -136 -12 -130 257 -132 184
0 222 2 241 15 12 9 22 22 22 28 0 14 -133 197 -152 209 -7 4 -85 8 -174 8
-143 0 -163 -2 -177 -18z m410 -107 l71 -95 -234 0 -234 0 0 95 0 95 163 0
163 0 71 -95z"/>
<path d="M270 1078 c-95 -12 -110 -25 -110 -93 0 -75 15 -85 122 -85 106 0
118 10 118 97 0 45 -4 64 -18 76 -10 10 -23 16 -28 16 -5 -1 -43 -6 -84 -11z
m110 -78 l0 -60 -95 0 -95 0 0 49 0 48 83 10 c45 6 88 11 95 12 8 1 12 -17 12
-59z"/>
<path d="M2522 768 c-8 -8 -12 -48 -12 -113 0 -65 4 -105 12 -113 16 -16 100
-16 116 0 16 16 16 210 0 226 -7 7 -33 12 -58 12 -25 0 -51 -5 -58 -12z m108
-113 l0 -95 -50 0 -50 0 0 95 0 95 50 0 50 0 0 -95z"/>
<path d="M719 675 c-60 -19 -131 -83 -159 -142 -18 -39 -21 -60 -18 -123 2
-64 8 -85 33 -126 37 -60 102 -105 176 -123 49 -12 63 -11 114 3 116 34 204
163 192 281 -6 62 -25 102 -74 156 -68 75 -170 104 -264 74z m181 -45 c137
-71 172 -244 73 -359 -123 -145 -358 -87 -403 99 -46 191 156 349 330 260z"/>
<path d="M1939 674 c-58 -17 -131 -81 -158 -137 -29 -61 -29 -172 0 -230 27
-53 87 -112 136 -133 21 -9 65 -17 98 -17 101 -1 184 52 234 151 29 57 29 169
1 228 -30 61 -98 120 -161 138 -63 19 -89 19 -150 0z m181 -44 c50 -25 106
-91 119 -137 26 -92 -4 -193 -75 -251 -158 -131 -408 4 -380 206 22 163 193
255 336 182z"/>
<path d="M177 482 c-27 -30 -21 -79 12 -113 29 -29 30 -29 154 -29 145 0 157
6 157 82 0 72 -12 78 -172 78 -118 0 -137 -2 -151 -18z m293 -63 l0 -51 -130
4 c-144 3 -150 6 -150 66 l0 32 140 0 140 0 0 -51z"/>
<path d="M1112 488 c-7 -7 -12 -37 -12 -68 0 -31 5 -61 12 -68 9 -9 88 -12
293 -12 322 0 315 -2 315 82 0 79 4 78 -316 78 -205 0 -283 -3 -292 -12z m578
-68 l0 -50 -285 0 -285 0 0 50 0 50 285 0 285 0 0 -50z"/>
<path d="M2328 483 c-22 -26 -23 -101 -2 -124 15 -17 33 -19 146 -19 127 0
129 0 153 26 18 19 25 38 25 67 0 61 -14 66 -171 67 -117 0 -138 -2 -151 -17z
m302 -43 c0 -17 -9 -39 -20 -50 -18 -18 -33 -20 -145 -20 l-125 0 0 50 0 50
145 0 145 0 0 -30z"/>
<path d="M2160 2250 l0 -50 375 0 375 0 0 50 0 50 -375 0 -375 0 0 -50z m710
0 c0 -6 -120 -10 -340 -10 -220 0 -340 4 -340 10 0 6 120 10 340 10 220 0 340
-4 340 -10z"/>
<path d="M2530 1595 l0 -45 190 0 190 0 0 45 0 45 -190 0 -190 0 0 -45z m340
0 c0 -13 -24 -15 -155 -15 -131 0 -155 2 -155 15 0 13 24 15 155 15 131 0 155
-2 155 -15z"/>
</g>
</svg>
