<?xml version="1.0"?>
<svg xmlns="http://www.w3.org/2000/svg"
id="icg_chekadBanned"
 xmlns:xlink="http://www.w3.org/1999/xlink" 
 xmlns:svgjs="http://svgjs.com/svgjs" 
 version="1.1" 
  viewBox="0 0 512.001 512.001" style="enable-background:new 0 0 512 512" xml:space="preserve" class="">
  <g><g xmlns="http://www.w3.org/2000/svg">
  <path d="m461.192 171.516c-7.672 0-14.78 2.442-20.599 6.577v-105.411c.161-29.298-33.952-46.47-57.371-29.252v-7.328c0-19.907-16.233-36.102-36.186-36.102s-36.186 16.195-36.186 36.102v7.328c-23.431-17.217-57.529-.046-57.371 29.252v43.908c-23.428-17.219-57.532-.043-57.371 29.253l.012 113.55c-38.759-16.377-86.873-11.864-122.011 12.02-8.081 5.36.21 17.86 8.291 12.5 75.772-51.257 181.038 5.379 180.235 96.896-6.38 154.136-226.019 154.106-232.383-.002 0-26.331 8.629-51.18 24.953-71.859 6.009-7.612-5.765-16.904-11.773-9.294-67.828 84.846-5.569 212.846 103.015 212.345 37.836.001 71.977-16.107 95.943-41.818 54.943 54.948 151.118 55.43 206.84 1.229 7.078-6.628-3.176-17.578-10.254-10.948-50.446 49.071-137.609 48.304-186.976-1.841 47.187-61.828 26.137-155.308-40.879-191.919l-.013-120.859c1.183-28.023 41.219-27.962 42.371 0v107.549c0 9.697 15 9.697 15 0 .001-43.667-.001-137.806 0-180.71 0-11.636 9.504-21.102 21.186-21.102s21.186 9.466 21.186 21.102v148.087c0 9.697 15 9.697 15 0v-148.087-36.58c1.135-27.94 41.191-28.038 42.371 0-.016 23.258.011 158.368 0 184.667 0 9.697 15 9.697 15 0v-148.087c0-11.636 9.504-21.102 21.186-21.102s21.186 9.466 21.186 21.102c-.168 56.63.121 176.399 0 232.269-36.408 3.76-64.895 34.594-64.895 71.951 0 4.142 3.357 7.5 7.5 7.5s7.5-3.358 7.5-7.5c0-31.615 25.747-57.336 57.395-57.336 4.143 0 7.5-3.358 7.5-7.5v-105.034c0-11.313 9.24-20.517 20.599-20.517s20.599 9.204 20.599 20.517v152.678c.085 25.622-6.519 50.949-19.993 72.832-4.893 7.947 7.401 16.588 12.773 7.865 14.802-24.04 22.597-52.403 22.22-80.633v-152.742c-.002-19.584-15.972-35.516-35.6-35.516z" fill="#1b6cc7" data-original="#000000" class=""/><path d="m83.305 457.713c.169 2.184 1.284 4.185 3.054 5.478 95.321 66.478 208.926-47.225 142.47-142.47-3.517-3.778-7.304-4.071-11.36-.879l-131.99 131.99c-1.549 1.548-2.343 3.697-2.174 5.881zm138.26-120.754c44.125 77.586-41.436 163.079-118.969 118.969z" fill="#1b6cc7" data-original="#000000" class=""/><path d="m206.531 298.425c-95.323-66.476-208.926 47.224-142.468 142.471 2.742 3.753 8.141 4.095 11.359.878l131.989-131.99c3.192-4.056 2.899-7.843-.88-11.359zm-135.206 126.232c-44.125-77.585 41.435-163.08 118.969-118.97z" fill="#1b6cc7" data-original="#000000" class=""/></g></g></svg>
