<?xml version="1.0"?>
<svg xmlns="http://www.w3.org/2000/svg"
id="icg_checkadRequest"
 xmlns:xlink="http://www.w3.org/1999/xlink" 
xmlns:svgjs="http://svgjs.com/svgjs" version="1.1"  x="0" y="0" viewBox="0 0 60 60" 
style="enable-background:new 0 0 512 512" xml:space="preserve" class="">
<g transform="matrix(1,-2.4492935982947064e-16,2.4492935982947064e-16,1,0,3.552713678800501e-15)">
<path xmlns="http://www.w3.org/2000/svg"
 d="m58.235 41.449a3.264 3.264 0 0 0 -3.411.246c-.013.01-2.142 1.562-4.665 3.4a3.285 3.285 0 0 0 -2.659-2.356l-15.587-2.607a5.727 5.727 0 0 0 -4.459 1.068l-1.654 1.242a3.023 3.023 0 0 1 -1.8.6h-2.277a1.993 1.993 0 0 0 -1.723-1h-3.278a1.993 1.993 0 0 0 -1.722-1h-13a2 2 0 0 0 -2 2v12.063a2.006 2.006 0 0 0 1.867 2l12.568.838c.052 0 .1.005.157.005a2.4 2.4 0 0 0 2.353-1.9h3.055a1.993 1.993 0 0 0 1.721-1h2.279a2.986 2.986 0 0 1 1.014.177l12.732 4.457a6.171 6.171 0 0 0 2.118.362 7 7 0 0 0 4.324-1.493c.084-.069 14.639-11.77 14.65-11.78a3.189 3.189 0 0 0 -.6-5.315zm-43.235 14.089a.405.405 0 0 1 -.129.3.366.366 0 0 1 -.3.108l-12.571-.841v-12.066h13v12.5zm2-1.5v-10h3v10zm40.573-8.825-14.639 11.772a4.883 4.883 0 0 1 -4.514.806l-12.739-4.459a4.974 4.974 0 0 0 -1.681-.291h-2v-8h2a5.026 5.026 0 0 0 3-1l1.654-1.241a3.782 3.782 0 0 1 2.905-.7l15.609 2.612a1.256 1.256 0 0 1 1.091 1.123 1.141 1.141 0 0 1 -.356.872 1.126 1.126 0 0 1 -.813.335h-10.075-.015-4a1 1 0 0 0 0 2h3.629l4.221 3.572a1.856 1.856 0 0 0 2.279.081l12.871-9.381a1.277 1.277 0 0 1 1.33-.082 1.176 1.176 0 0 1 .67 1.053 1.2 1.2 0 0 1 -.427.93zm-12.832 3.829-2.693 1.958-2.319-1.962z" fill="#1b6cc7" data-original="#000000"/><path xmlns="http://www.w3.org/2000/svg" d="m57 4.035h-37.1a5 5 0 0 0 -9.9 1v24a5 5 0 0 0 5 5h37a3 3 0 0 0 3-3v-1h2a3 3 0 0 0 3-3v-20a3 3 0 0 0 -3-3zm-42-2a3 3 0 0 1 3 3v20.029c-.081-.062-.15-.136-.235-.193a5 5 0 0 0 -3.93-.7 4.894 4.894 0 0 0 -1.835.851v-19.987a3 3 0 0 1 3-3zm38 29a1 1 0 0 1 -1 1h-37a3 3 0 1 1 2.955-3.52 1.827 1.827 0 0 0 1.8 1.52h33.245zm5-4a1 1 0 0 1 -1 1h-37v-22h37a1 1 0 0 1 1 1z" fill="#1b6cc7" data-original="#000000"/><path xmlns="http://www.w3.org/2000/svg" d="m53 8.036h-18a2 2 0 0 0 -2 2v2a2 2 0 0 0 2 2h18a2 2 0 0 0 2-2v-2a2 2 0 0 0 -2-2zm-18 4v-2h18v2z" fill="#1b6cc7" data-original="#000000"/><path xmlns="http://www.w3.org/2000/svg" d="m27 15.036a1 1 0 1 1 -.867 1.5 1 1 0 0 0 -1.731 1 2.987 2.987 0 0 0 1.6 1.3v.2a1 1 0 0 0 2 0v-.185a2.993 2.993 0 0 0 -1-5.816 1 1 0 1 1 .867-1.5 1 1 0 0 0 1.731-1 2.989 2.989 0 0 0 -1.6-1.3v-.2a1 1 0 0 0 -2 0v.185a2.993 2.993 0 0 0 1 5.816z" fill="#1b6cc7" data-original="#000000"/><path xmlns="http://www.w3.org/2000/svg" d="m54 24.037h-30a1 1 0 0 0 0 2h30a1 1 0 0 0 0-2z" fill="#1b6cc7" data-original="#000000"/><path xmlns="http://www.w3.org/2000/svg" d="m54 20.037h-20a1 1 0 0 0 0 2h20a1 1 0 0 0 0-2z" fill="#1b6cc7" data-original="#000000"/><path xmlns="http://www.w3.org/2000/svg" d="m54 16.036h-20a1 1 0 0 0 0 2h20a1 1 0 0 0 0-2z" fill="#1b6cc7" data-original="#000000"/></g></svg>
