<svg  viewBox="0 -29 480 480" id="icg_cheque" xmlns="http://www.w3.org/2000/svg">
<path d="m472 117.253906h-12.070312l18.007812-67.199218c5.519531-21.265626-7.144531-43.003907-28.363281-48.691407-21.222657-5.6875-43.058594 6.808594-48.910157 27.984375l-23.558593 87.90625h-369.105469c-4.417969 0-8 3.582032-8 8v288c0 4.417969 3.582031 8 8 8h464c4.417969 0 8-3.582031 8-8v-288c0-4.417968-3.582031-8-8-8zm-456 240h448v16h-448zm385.824219-101.007812-20.800781 16.304687-7.726563-2.074219-9.839844-24.511718 21.734375-4.449219zm54.449219-187.199219-2.074219 7.726563-46.398438-12.425782 2.070313-7.726562zm-52.585938 10.757813 15.464844 4.144531-38.0625 142.105469-17.53125 3.582031zm6.242188 162.199218-13.386719-11.871094 38.058593-142.046874 15.453126 4.144531zm17.367187-223.09375c8.40625-4.867187 18.917969-4.183594 26.628906 1.726563 7.707031 5.914062 11.089844 15.890625 8.570313 25.273437l-2.070313 7.71875-46.402343-12.414062 2.074218-7.738282c1.636719-6.15625 5.667969-11.402343 11.199219-14.566406zm-411.296875 114.34375h356.800781l-28 104.726563c-.117187.582031-.195312 1.167969-.242187 1.761719.0625 1.109374.242187 2.214843.539062 3.289062l14.902344 37.117188c.9375 2.339843 2.917969 4.101562 5.351562 4.753906l-4.144531 15.453125c-1.136719 4.269531 1.398438 8.652343 5.664063 9.792969.675781.1875 1.371094.28125 2.074218.28125 3.617188-.003907 6.785157-2.4375 7.71875-5.9375l4.144532-15.453126c2.433594.652344 5.03125.121094 7.015625-1.433593l31.457031-24.695313c.792969-.78125 1.5-1.644531 2.109375-2.578125.265625-.53125.488281-1.082031.671875-1.648437l33.578125-125.429688h8.359375v208h-448zm448 272h-448v-16h448zm0 0"/><path d="m320 293.253906c-8.070312.503906-15.652344 4.050782-21.207031 9.925782-4.394531 3.761718-7.265625 6.074218-10.792969 6.074218-2.632812.261719-5.25-.613281-7.199219-2.402344-4.710937-3.886718-10.699219-5.882812-16.800781-5.597656v16c2.632812-.261718 5.25.609375 7.199219 2.398438 4.710937 3.890625 10.699219 5.886718 16.800781 5.601562 8.070312-.503906 15.652344-4.054687 21.207031-9.929687 4.394531-3.757813 7.265625-6.070313 10.792969-6.070313 2.632812-.261718 5.25.609375 7.199219 2.398438 4.710937 3.890625 10.699219 5.886718 16.800781 5.601562v-16c-2.632812.261719-5.25-.613281-7.199219-2.402344-4.710937-3.886718-10.699219-5.882812-16.800781-5.597656zm0 0"/><path d="m112 173.253906h16c4.417969 0 8 3.582032 8 8h16c0-13.253906-10.746094-24-24-24v-8h-16v8c-13.253906 0-24 10.746094-24 24s10.746094 24 24 24h16c4.417969 0 8 3.582032 8 8 0 4.417969-3.582031 8-8 8h-16c-4.417969 0-8-3.582031-8-8h-16c0 13.253906 10.746094 24 24 24v8h16v-8c13.253906 0 24-10.746094 24-24s-10.746094-24-24-24h-16c-4.417969 0-8-3.582031-8-8 0-4.417968 3.582031-8 8-8zm0 0"/><path d="m168 197.253906h160v16h-160zm0 0"/><path d="m168 229.253906h16v16h-16zm0 0"/><path d="m200 229.253906h16v16h-16zm0 0"/><path d="m232 229.253906h16v16h-16zm0 0"/><path d="m264 229.253906h16v16h-16zm0 0"/><path d="m296 229.253906h16v16h-16zm0 0"/><path d="m48 149.253906h16v16h-16zm0 0"/><path d="m48 181.253906h16v16h-16zm0 0"/><path d="m48 213.253906h16v16h-16zm0 0"/><path d="m48 245.253906h16v16h-16zm0 0"/>
<path d="m48 277.253906h16v16h-16zm0 0"/><path d="m48 309.253906h16v16h-16zm0 0"/></svg>