<?xml version="1.0"?>
<svg xmlns="http://www.w3.org/2000/svg"
id="icg_checkadIssuing"


 xmlns:xlink="http://www.w3.org/1999/xlink" xmlns:svgjs="http://svgjs.com/svgjs"
  version="1.1" x="0" y="0" viewBox="0 0 274.839 274.839"
   style="enable-background:new 0 0 512 512" xml:space="preserve" class="">
   <g><g xmlns="http://www.w3.org/2000/svg">
   <path d="m261.097 82.452h-41.226v-59.549c-.015-12.643-10.26-22.888-22.903-22.903h-119.097c-12.643.015-22.888 10.26-22.903 22.903v32.065h-41.226c-7.59 0-13.742 6.152-13.742 13.742v91.613c0 7.589 6.152 13.742 13.742 13.742h9.161v41.226c0 7.589 6.152 13.742 13.742 13.742h18.323v22.903c.015 12.643 10.26 22.888 22.903 22.903h119.097c12.643-.015 22.888-10.26 22.903-22.903v-22.903h41.226c7.589 0 13.742-6.152 13.742-13.742v-119.097c0-7.59-6.153-13.742-13.742-13.742zm4.58 13.742v100.774c0 2.53-2.051 4.581-4.581 4.581h-174.183c3.032-3.941 4.683-8.77 4.7-13.742v-96.194h169.484c2.53 0 4.58 2.051 4.58 4.581zm-229.032 105.354c-2.53 0-4.581-2.051-4.581-4.581v-22.903h36.646c7.589 0 13.742 6.152 13.742 13.742 0 7.589-6.152 13.742-13.742 13.742zm137.42-192.387v9.161c0 2.53-2.051 4.581-4.581 4.581h-64.129c-2.53 0-4.581-2.051-4.581-4.581v-9.161zm-109.936 13.742c0-7.589 6.152-13.742 13.742-13.742h13.742v9.161c0 7.589 6.152 13.742 13.742 13.742h64.129c7.589 0 13.742-6.152 13.742-13.742v-9.161h13.742c7.589 0 13.742 6.152 13.742 13.742v59.548h-119.097v-4.581c-.015-12.643-10.26-22.888-22.903-22.903h-4.581zm-50.387 142c-2.53 0-4.581-2.051-4.581-4.581v-91.612c0-2.53 2.051-4.581 4.581-4.581h54.968c7.589 0 13.742 6.152 13.742 13.742v91.613c-3.96-2.981-8.785-4.59-13.742-4.581zm196.968 87.032c0 7.589-6.152 13.742-13.742 13.742h-119.097c-7.589 0-13.742-6.152-13.742-13.742v-22.903h146.581zm50.387-32.064h-224.452c-2.53 0-4.581-2.051-4.581-4.581v-5.423c1.467.543 3.017.828 4.581.843h224.452c1.564-.015 3.114-.3 4.581-.843v5.423c-.001 2.53-2.051 4.581-4.581 4.581z" fill="#1b6cc7" data-original="#000000" class=""/><path d="m77.871 32.065c2.53 0 4.581-2.051 4.581-4.581v-4.581c0-2.53-2.051-4.581-4.581-4.581s-4.581 2.051-4.581 4.581v4.581c0 2.53 2.051 4.581 4.581 4.581z" fill="#1b6cc7" data-original="#000000" class=""/><path d="m196.968 32.065c2.53 0 4.581-2.051 4.581-4.581v-4.581c0-2.53-2.051-4.581-4.581-4.581s-4.581 2.051-4.581 4.581v4.581c0 2.53 2.051 4.581 4.581 4.581z" fill="#1b6cc7" data-original="#000000" class=""/><path d="m109.935 256.516h54.968c2.53 0 4.581-2.051 4.581-4.581s-2.051-4.581-4.581-4.581h-54.968c-2.53 0-4.581 2.051-4.581 4.581s2.052 4.581 4.581 4.581z" fill="#1b6cc7" data-original="#000000" class=""/><path d="m114.516 132.839c2.53.002 4.579 2.055 4.576 4.585-.002 2.53-2.055 4.579-4.585 4.576-1.635-.002-3.145-.874-3.962-2.29-1.331-2.151-4.154-2.816-6.305-1.485-2.06 1.275-2.772 3.933-1.624 6.066 1.661 2.79 4.258 4.9 7.329 5.955v.916c0 2.53 2.051 4.581 4.581 4.581s4.581-2.051 4.581-4.581v-.843c7.142-2.515 10.892-10.344 8.377-17.486-1.936-5.498-7.138-9.17-12.966-9.155-2.53-.002-4.579-2.055-4.576-4.585.002-2.53 2.055-4.579 4.585-4.576 1.635.002 3.145.874 3.962 2.29 1.331 2.151 4.154 2.816 6.305 1.485 2.06-1.275 2.772-3.933 1.624-6.066-1.658-2.789-4.252-4.899-7.32-5.955v-.916c0-2.53-2.051-4.581-4.581-4.581s-4.581 2.051-4.581 4.581v.843c-7.142 2.515-10.892 10.344-8.377 17.486 1.935 5.494 7.132 9.166 12.957 9.155z" fill="#1b6cc7" data-original="#000000" class=""/><path d="m105.355 174.065h73.29c2.53 0 4.581-2.051 4.581-4.581s-2.051-4.581-4.581-4.581h-73.29c-2.53 0-4.581 2.051-4.581 4.581s2.051 4.581 4.581 4.581z" fill="#1b6cc7" data-original="#000000" class=""/><path d="m251.935 183.226h-146.58c-2.53 0-4.581 2.051-4.581 4.581s2.051 4.581 4.581 4.581h146.581c2.53 0 4.581-2.051 4.581-4.581-.001-2.53-2.052-4.581-4.582-4.581z" fill="#1b6cc7" data-original="#000000" class=""/><path d="m210.71 155.742v4.581c.015 1.564.3 3.114.843 4.581h-10.004c-2.53 0-4.581 2.051-4.581 4.581s2.051 4.581 4.581 4.581h36.645c10.119 0 18.323-8.203 18.323-18.323 0-2.53-2.051-4.581-4.581-4.581s-4.581 2.051-4.581 4.581c0 5.06-4.102 9.161-9.161 9.161h-.843c.543-1.467.828-3.017.843-4.581v-4.581c0-7.589-6.152-13.742-13.742-13.742s-13.742 6.152-13.742 13.742zm9.161 0c0-2.53 2.051-4.581 4.581-4.581s4.581 2.051 4.581 4.581v4.581c0 2.53-2.051 4.581-4.581 4.581s-4.581-2.051-4.581-4.581z" fill="#1b6cc7" data-original="#000000" class=""/><path d="m146.581 114.516h13.742c2.53 0 4.581-2.051 4.581-4.581s-2.051-4.581-4.581-4.581h-13.742c-2.53 0-4.581 2.051-4.581 4.581s2.051 4.581 4.581 4.581z" fill="#1b6cc7" data-original="#000000" class=""/><path d="m146.581 132.839h41.226c2.53 0 4.581-2.051 4.581-4.581s-2.051-4.581-4.581-4.581h-41.226c-2.53 0-4.581 2.051-4.581 4.581s2.051 4.581 4.581 4.581z" fill="#1b6cc7" data-original="#000000" class=""/></g></g></svg>
