<svg xmlns="http://www.w3.org/2000/svg"  version="1.1" 
viewBox="0 0 937.5 937.5" id="icg_installment">
<g id="surface1">
<path d="M 921.875 31.25 L 828.125 31.25 L 828.125 0 L 796.875 0 L 796.875 31.25 L 703.125 31.25 L 703.125 0 L 671.875 0 L 671.875 31.25 L 578.125 31.25 L 578.125 0 L 546.875 0 L 546.875 31.25 L 453.125 31.25 L 453.125 0 L 421.875 0 L 421.875 31.25 L 328.125 31.25 L 328.125 0 L 296.875 0 L 296.875 31.25 L 234.375 31.25 C 225.742188 31.25 218.75 38.242188 218.75 46.875 L 218.75 437.5 L 250 437.5 L 250 171.875 L 906.25 171.875 L 906.25 484.375 L 796.875 484.375 C 788.242188 484.375 781.25 491.367188 781.25 500 L 781.25 609.375 L 656.25 609.375 L 656.25 640.625 L 796.875 640.625 C 801.019531 640.621094 804.984375 638.96875 807.921875 636.046875 L 906.25 537.71875 L 906.25 671.875 L 656.25 671.875 L 656.25 703.125 L 921.875 703.125 C 930.507812 703.125 937.5 696.132812 937.5 687.5 L 937.5 46.875 C 937.5 38.242188 930.507812 31.25 921.875 31.25 Z M 250 140.625 L 250 62.5 L 296.875 62.5 L 296.875 93.75 L 328.125 93.75 L 328.125 62.5 L 421.875 62.5 L 421.875 93.75 L 453.125 93.75 L 453.125 62.5 L 546.875 62.5 L 546.875 93.75 L 578.125 93.75 L 578.125 62.5 L 671.875 62.5 L 671.875 93.75 L 703.125 93.75 L 703.125 62.5 L 796.875 62.5 L 796.875 93.75 L 828.125 93.75 L 828.125 62.5 L 906.25 62.5 L 906.25 140.625 Z M 812.5 587.28125 L 812.5 515.625 L 884.15625 515.625 Z M 812.5 587.28125 " style=" stroke:none;fill-rule:nonzero;fill-opacity:1;" />
<path d="M 609.375 218.75 L 546.875 218.75 C 538.242188 218.75 531.25 225.742188 531.25 234.375 L 531.25 296.875 C 531.25 305.507812 538.242188 312.5 546.875 312.5 L 609.375 312.5 C 618.007812 312.5 625 305.507812 625 296.875 L 625 234.375 C 625 225.742188 618.007812 218.75 609.375 218.75 Z M 593.75 281.25 L 562.5 281.25 L 562.5 250 L 593.75 250 Z M 593.75 281.25 " style=" stroke:none;fill-rule:nonzero;fill-opacity:1;" />
<path d="M 671.875 312.5 L 734.375 312.5 C 743.007812 312.5 750 305.507812 750 296.875 L 750 234.375 C 750 225.742188 743.007812 218.75 734.375 218.75 L 671.875 218.75 C 663.242188 218.75 656.25 225.742188 656.25 234.375 L 656.25 296.875 C 656.25 305.507812 663.242188 312.5 671.875 312.5 Z M 687.5 250 L 718.75 250 L 718.75 281.25 L 687.5 281.25 Z M 687.5 250 " style=" stroke:none;fill-rule:nonzero;fill-opacity:1;" />
<path d="M 796.875 312.5 L 859.375 312.5 C 868.007812 312.5 875 305.507812 875 296.875 L 875 234.375 C 875 225.742188 868.007812 218.75 859.375 218.75 L 796.875 218.75 C 788.242188 218.75 781.25 225.742188 781.25 234.375 L 781.25 296.875 C 781.25 305.507812 788.242188 312.5 796.875 312.5 Z M 812.5 250 L 843.75 250 L 843.75 281.25 L 812.5 281.25 Z M 812.5 250 " style=" stroke:none;fill-rule:nonzero;fill-opacity:1;" />
<path d="M 421.875 312.5 L 484.375 312.5 C 493.007812 312.5 500 305.507812 500 296.875 L 500 234.375 C 500 225.742188 493.007812 218.75 484.375 218.75 L 421.875 218.75 C 413.242188 218.75 406.25 225.742188 406.25 234.375 L 406.25 296.875 C 406.25 305.507812 413.242188 312.5 421.875 312.5 Z M 437.5 250 L 468.75 250 L 468.75 281.25 L 437.5 281.25 Z M 437.5 250 " style=" stroke:none;fill-rule:nonzero;fill-opacity:1;" />
<path d="M 609.375 343.75 L 546.875 343.75 C 538.242188 343.75 531.25 350.742188 531.25 359.375 L 531.25 421.875 C 531.25 430.507812 538.242188 437.5 546.875 437.5 L 609.375 437.5 C 618.007812 437.5 625 430.507812 625 421.875 L 625 359.375 C 625 350.742188 618.007812 343.75 609.375 343.75 Z M 593.75 406.25 L 562.5 406.25 L 562.5 375 L 593.75 375 Z M 593.75 406.25 " style=" stroke:none;fill-rule:nonzero;fill-opacity:1;" />
<path d="M 656.25 421.875 C 656.25 430.507812 663.242188 437.5 671.875 437.5 L 734.375 437.5 C 743.007812 437.5 750 430.507812 750 421.875 L 750 359.375 C 750 350.742188 743.007812 343.75 734.375 343.75 L 671.875 343.75 C 663.242188 343.75 656.25 350.742188 656.25 359.375 Z M 687.5 375 L 718.75 375 L 718.75 406.25 L 687.5 406.25 Z M 687.5 375 " style=" stroke:none;fill-rule:nonzero;fill-opacity:1;" />
<path d="M 781.25 421.875 C 781.25 430.507812 788.242188 437.5 796.875 437.5 L 859.375 437.5 C 868.007812 437.5 875 430.507812 875 421.875 L 875 359.375 C 875 350.742188 868.007812 343.75 859.375 343.75 L 796.875 343.75 C 788.242188 343.75 781.25 350.742188 781.25 359.375 Z M 812.5 375 L 843.75 375 L 843.75 406.25 L 812.5 406.25 Z M 812.5 375 " style=" stroke:none;fill-rule:nonzero;fill-opacity:1;" />
<path d="M 406.25 421.875 C 406.25 430.507812 413.242188 437.5 421.875 437.5 L 484.375 437.5 C 493.007812 437.5 500 430.507812 500 421.875 L 500 359.375 C 500 350.742188 493.007812 343.75 484.375 343.75 L 421.875 343.75 C 413.242188 343.75 406.25 350.742188 406.25 359.375 Z M 437.5 375 L 468.75 375 L 468.75 406.25 L 437.5 406.25 Z M 437.5 375 " style=" stroke:none;fill-rule:nonzero;fill-opacity:1;" />
<path d="M 359.375 437.5 C 368.007812 437.5 375 430.507812 375 421.875 L 375 359.375 C 375 350.742188 368.007812 343.75 359.375 343.75 L 296.875 343.75 C 288.242188 343.75 281.25 350.742188 281.25 359.375 L 281.25 421.875 C 281.25 430.507812 288.242188 437.5 296.875 437.5 Z M 312.5 375 L 343.75 375 L 343.75 406.25 L 312.5 406.25 Z M 312.5 375 " style=" stroke:none;fill-rule:nonzero;fill-opacity:1;" />
<path d="M 656.25 546.875 C 656.25 555.507812 663.242188 562.5 671.875 562.5 L 734.375 562.5 C 743.007812 562.5 750 555.507812 750 546.875 L 750 484.375 C 750 475.742188 743.007812 468.75 734.375 468.75 L 671.875 468.75 C 663.242188 468.75 656.25 475.742188 656.25 484.375 Z M 687.5 500 L 718.75 500 L 718.75 531.25 L 687.5 531.25 Z M 687.5 500 " style=" stroke:none;fill-rule:nonzero;fill-opacity:1;" />
<path d="M 609.375 468.75 L 15.625 468.75 C 6.992188 468.75 0 475.742188 0 484.375 L 0 921.875 C 0 930.507812 6.992188 937.5 15.625 937.5 L 609.375 937.5 C 618.007812 937.5 625 930.507812 625 921.875 L 625 484.375 C 625 475.742188 618.007812 468.75 609.375 468.75 Z M 359.375 703.015625 L 359.375 578.234375 C 379.042969 592.945312 390.625 616.0625 390.625 640.625 C 390.625 665.1875 379.042969 688.304688 359.375 703.015625 Z M 421.875 640.625 C 421.78125 611.15625 409.796875 583 388.625 562.5 L 502.6875 562.5 C 507.429688 575.835938 517.914062 586.328125 531.25 591.074219 L 531.25 690.175781 C 517.914062 694.917969 507.417969 705.414062 502.675781 718.75 L 388.613281 718.75 C 409.785156 698.265625 421.78125 670.09375 421.875 640.625 Z M 359.375 812.5 L 593.75 812.5 L 593.75 843.75 L 359.375 843.75 Z M 359.375 750 L 515.625 750 C 524.257812 750 531.25 743.007812 531.25 734.375 C 531.25 725.742188 538.242188 718.75 546.875 718.75 C 555.507812 718.75 562.5 711.757812 562.5 703.125 L 562.5 578.125 C 562.5 569.492188 555.507812 562.5 546.875 562.5 C 538.242188 562.5 531.25 555.507812 531.25 546.875 C 531.25 538.242188 524.257812 531.25 515.625 531.25 L 359.375 531.25 L 359.375 500 L 593.75 500 L 593.75 781.25 L 359.375 781.25 Z M 328.125 500 L 328.125 781.25 L 296.875 781.25 L 296.875 500 Z M 265.625 843.75 L 31.25 843.75 L 31.25 812.5 L 265.625 812.5 Z M 265.625 578.234375 L 265.625 703.015625 C 245.957031 688.304688 234.375 665.1875 234.375 640.625 C 234.375 616.0625 245.957031 592.945312 265.625 578.234375 Z M 203.125 640.625 C 203.21875 670.09375 215.203125 698.25 236.375 718.75 L 122.3125 718.75 C 117.570312 705.414062 107.085938 694.921875 93.75 690.175781 L 93.75 591.074219 C 107.085938 586.332031 117.582031 575.835938 122.324219 562.5 L 236.386719 562.5 C 215.214844 582.984375 203.21875 611.15625 203.125 640.625 Z M 31.25 500 L 265.625 500 L 265.625 531.25 L 109.375 531.25 C 100.742188 531.25 93.75 538.242188 93.75 546.875 C 93.75 555.507812 86.757812 562.5 78.125 562.5 C 69.492188 562.5 62.5 569.492188 62.5 578.125 L 62.5 703.125 C 62.5 711.757812 69.492188 718.75 78.125 718.75 C 86.757812 718.75 93.75 725.742188 93.75 734.375 C 93.75 743.007812 100.742188 750 109.375 750 L 265.625 750 L 265.625 781.25 L 31.25 781.25 Z M 31.25 875 L 265.625 875 L 265.625 906.25 L 31.25 906.25 Z M 296.875 906.25 L 296.875 812.5 L 328.125 812.5 L 328.125 906.25 Z M 359.375 906.25 L 359.375 875 L 593.75 875 L 593.75 906.25 Z M 359.375 906.25 " style=" stroke:none;fill-rule:nonzero;fill-opacity:1;" />
<path d="M 453.125 625 L 484.375 625 L 484.375 656.25 L 453.125 656.25 Z M 453.125 625 " style=" stroke:none;fill-rule:nonzero;fill-opacity:1;" />
<path d="M 140.625 625 L 171.875 625 L 171.875 656.25 L 140.625 656.25 Z M 140.625 625 " style=" stroke:none;fill-rule:nonzero;fill-opacity:1;" />
<path d="M 156.25 218.75 L 187.5 218.75 L 187.5 250 L 156.25 250 Z M 156.25 218.75 " style=" stroke:none;fill-rule:nonzero;fill-opacity:1;" />
<path d="M 93.75 218.75 L 125 218.75 L 125 250 L 93.75 250 Z M 93.75 218.75 " style=" stroke:none;fill-rule:nonzero;fill-opacity:1;" />
<path d="M 31.25 218.75 L 62.5 218.75 L 62.5 250 L 31.25 250 Z M 31.25 218.75 " style=" stroke:none;fill-rule:nonzero;fill-opacity:1;" />
<path d="M 31.25 281.25 L 62.5 281.25 L 62.5 312.5 L 31.25 312.5 Z M 31.25 281.25 " style=" stroke:none;fill-rule:nonzero;fill-opacity:1;" />
<path d="M 31.25 343.75 L 62.5 343.75 L 62.5 375 L 31.25 375 Z M 31.25 343.75 " style=" stroke:none;fill-rule:nonzero;fill-opacity:1;" />
<path d="M 31.25 406.25 L 62.5 406.25 L 62.5 437.5 L 31.25 437.5 Z M 31.25 406.25 " style=" stroke:none;fill-rule:nonzero;fill-opacity:1;" />
<path d="M 718.75 859.375 L 750 859.375 L 750 890.625 L 718.75 890.625 Z M 718.75 859.375 " style=" stroke:none;fill-rule:nonzero;fill-opacity:1;" />
<path d="M 656.25 859.375 L 687.5 859.375 L 687.5 890.625 L 656.25 890.625 Z M 656.25 859.375 " style=" stroke:none;fill-rule:nonzero;fill-opacity:1;" />
<path d="M 781.25 859.375 L 812.5 859.375 L 812.5 890.625 L 781.25 890.625 Z M 781.25 859.375 " style=" stroke:none;fill-rule:nonzero;fill-opacity:1;" />
<path d="M 843.75 859.375 L 875 859.375 L 875 890.625 L 843.75 890.625 Z M 843.75 859.375 " style=" stroke:none;fill-rule:nonzero;fill-opacity:1;" />
<path d="M 843.75 796.875 L 875 796.875 L 875 828.125 L 843.75 828.125 Z M 843.75 796.875 " style=" stroke:none;fill-rule:nonzero;fill-opacity:1;" />
<path d="M 843.75 734.375 L 875 734.375 L 875 765.625 L 843.75 765.625 Z M 843.75 734.375 " style=" stroke:none;fill-rule:nonzero;fill-opacity:1;" />
</g>
</svg>