<?xml version="1.0" encoding="iso-8859-1"?>

<svg version="1.0" id="icg_requestMoney" xmlns="http://www.w3.org/2000/svg"
  x="0px" y="0px"
 xml:space="preserve">

<g transform="translate(0.000000,51.000000) scale(0.100000,-0.100000)"
 >
<path d="M80 369 l0 -62 44 5 45 5 3 -36 c3 -35 4 -36 48 -37 25 -1 35 0 22 3
-25 5 -62 37 -62 53 0 11 36 5 87 -15 40 -17 67 -1 61 36 -2 20 -9 24 -38 25
-55 2 -60 3 -60 14 0 6 31 10 73 10 59 0 77 -4 90 -18 35 -39 8 -96 -50 -105
-15 -3 -5 -4 22 -3 l50 1 0 65 0 65 -55 5 c-30 3 -66 13 -80 22 -15 9 -59 18
-112 22 l-88 7 0 -62z m60 1 c0 -47 -2 -50 -25 -50 -23 0 -25 3 -25 50 0 47 2
50 25 50 23 0 25 -3 25 -50z m136 25 c18 -13 17 -14 -18 -15 -45 0 -51 -21
-13 -46 52 -34 -2 -40 -67 -7 -23 11 -28 20 -28 48 l0 35 53 0 c31 0 61 -6 73
-15z m134 -35 c0 -5 -2 -10 -4 -10 -3 0 -8 5 -11 10 -3 6 -1 10 4 10 6 0 11
-4 11 -10z m-92 -46 c3 -23 -17 -37 -36 -25 -6 4 -9 17 -5 29 7 29 37 25 41
-4z m-118 -54 c0 -5 -4 -10 -10 -10 -5 0 -10 5 -10 10 0 6 5 10 10 10 6 0 10
-4 10 -10z m210 6 c0 -3 -4 -8 -10 -11 -5 -3 -10 -1 -10 4 0 6 5 11 10 11 6 0
10 -2 10 -4z"/>
<path d="M290 185 c-7 -8 -25 -15 -41 -15 -15 0 -32 -7 -37 -15 -7 -14 -12
-12 -36 10 -15 14 -34 25 -42 25 -22 0 -17 -34 9 -57 41 -37 53 -37 18 0 -41
43 -34 63 7 23 22 -20 41 -27 78 -30 35 -3 39 -2 15 3 -44 8 -54 31 -13 31 16
0 35 7 42 16 8 8 25 14 39 12 23 -3 26 -8 29 -45 l3 -43 -82 0 c-45 0 -80 -2
-78 -4 2 -2 55 -6 117 -9 l112 -7 0 60 0 60 -64 0 c-44 0 -67 -5 -76 -15z
m130 -45 c0 -47 -2 -50 -25 -50 -23 0 -25 3 -25 50 0 47 2 50 25 50 23 0 25
-3 25 -50z"/>
</g>
</svg>
