<svg id="svg" version="1.1" xmlns="http://www.w3.org/2000/svg" xmlns:xlink="http://www.w3.org/1999/xlink" width="400" height="400" viewBox="0, 0, 400,400"><g id="svgg"><path id="path0" d="M0.000 73.600 L 0.000 147.200 33.800 147.200 L 67.600 147.200 67.600 137.400 L 67.600 127.600 72.367 127.600 C 74.989 127.600,77.419 127.491,77.767 127.357 C 78.174 127.201,78.400 127.332,78.400 127.724 C 78.400 128.059,78.940 128.572,79.600 128.864 C 80.260 129.156,80.800 129.551,80.800 129.740 C 80.800 129.930,81.079 129.978,81.421 129.847 C 81.798 129.703,81.939 129.775,81.781 130.032 C 81.637 130.264,81.898 130.553,82.360 130.674 C 82.822 130.794,83.200 131.052,83.200 131.247 C 83.200 131.441,83.520 131.600,83.912 131.600 C 84.303 131.600,84.883 131.960,85.200 132.400 C 85.517 132.840,86.097 133.200,86.488 133.200 C 86.880 133.200,87.200 133.380,87.200 133.600 C 87.200 133.820,87.560 134.000,88.000 134.000 C 88.440 134.000,88.800 134.180,88.800 134.400 C 88.800 134.620,89.160 134.800,89.600 134.800 C 90.040 134.800,90.400 134.980,90.400 135.200 C 90.400 135.420,90.760 135.600,91.200 135.600 C 91.640 135.600,92.000 135.780,92.000 136.000 C 92.000 136.220,92.450 136.400,93.000 136.400 C 93.550 136.400,94.000 136.570,94.000 136.777 C 94.000 136.984,94.369 137.083,94.820 136.996 C 95.286 136.906,95.736 137.089,95.863 137.419 C 95.985 137.739,96.516 138.000,97.043 138.000 C 97.569 138.000,98.000 138.180,98.000 138.400 C 98.000 138.620,98.452 138.800,99.005 138.800 C 99.558 138.800,100.323 138.958,100.705 139.151 C 102.026 139.818,104.262 140.400,105.505 140.400 C 106.191 140.400,106.867 140.585,107.006 140.811 C 107.146 141.036,107.832 141.230,108.530 141.241 C 113.002 141.312,117.600 141.711,117.600 142.027 C 117.600 142.232,117.960 142.400,118.400 142.400 C 119.195 142.400,119.200 142.667,119.200 185.080 C 119.200 218.276,119.307 227.653,119.680 227.280 C 120.260 226.700,120.946 226.640,120.600 227.200 C 120.435 227.466,167.063 227.600,260.176 227.600 L 400.000 227.600 400.000 140.200 L 400.000 52.800 337.600 52.800 C 296.949 52.800,275.200 52.663,275.200 52.406 C 275.200 51.893,269.307 46.000,268.794 46.000 C 268.577 46.000,268.400 45.812,268.400 45.582 C 268.400 45.352,267.950 44.714,267.400 44.164 C 266.850 43.614,266.400 43.269,266.400 43.397 C 266.400 43.526,264.798 42.016,262.841 40.041 C 260.883 38.067,259.173 36.560,259.041 36.692 C 258.908 36.825,258.800 36.639,258.800 36.279 C 258.800 35.440,250.114 26.682,249.598 27.001 C 249.370 27.142,249.316 26.944,249.468 26.521 C 249.611 26.124,249.580 25.934,249.400 26.097 C 249.219 26.261,248.820 26.036,248.513 25.597 C 248.206 25.159,247.665 24.800,247.311 24.800 C 246.956 24.800,246.776 24.691,246.909 24.557 C 247.200 24.267,241.738 18.800,241.157 18.800 C 240.935 18.800,240.863 18.622,240.998 18.403 C 241.280 17.947,239.408 15.925,239.042 16.291 C 238.909 16.424,238.800 16.214,238.800 15.824 C 238.800 15.347,238.596 15.193,238.179 15.353 C 237.824 15.489,237.663 15.422,237.802 15.196 C 238.041 14.811,236.117 12.838,235.478 12.813 C 235.301 12.806,234.581 12.261,233.878 11.602 C 233.175 10.943,232.401 10.403,232.158 10.402 C 231.916 10.401,231.231 9.950,230.638 9.400 C 230.044 8.850,229.298 8.400,228.979 8.400 C 228.661 8.400,228.400 8.220,228.400 8.000 C 228.400 7.780,228.040 7.600,227.600 7.600 C 227.160 7.600,226.800 7.420,226.800 7.200 C 226.800 6.980,226.440 6.800,226.000 6.800 C 225.560 6.800,225.200 6.620,225.200 6.400 C 225.200 6.180,224.930 6.000,224.600 6.000 C 224.270 6.000,224.000 5.820,224.000 5.600 C 224.000 5.380,223.640 5.200,223.200 5.200 C 222.760 5.200,222.400 5.020,222.400 4.800 C 222.400 4.580,221.939 4.400,221.376 4.400 C 220.796 4.400,220.460 4.227,220.600 4.000 C 220.740 3.774,220.412 3.600,219.847 3.600 C 219.297 3.600,218.736 3.420,218.600 3.200 C 218.464 2.980,218.003 2.800,217.576 2.800 C 217.149 2.800,216.800 2.640,216.800 2.444 C 216.800 2.248,216.215 1.991,215.500 1.873 C 214.785 1.754,213.390 1.454,212.400 1.204 C 211.410 0.954,209.700 0.594,208.600 0.404 C 205.206 -0.182,103.099 0.104,102.900 0.700 C 102.808 0.975,102.208 1.200,101.567 1.200 C 100.925 1.200,100.400 1.380,100.400 1.600 C 100.400 1.820,100.034 2.000,99.586 2.000 C 99.138 2.000,98.328 2.291,97.786 2.646 C 97.244 3.001,96.800 3.168,96.800 3.017 C 96.800 2.866,96.515 3.027,96.168 3.375 C 95.820 3.723,95.342 3.888,95.106 3.742 C 94.851 3.585,94.793 3.664,94.962 3.938 C 95.131 4.212,94.992 4.400,94.618 4.400 C 93.825 4.400,92.405 5.189,91.557 6.100 C 91.199 6.485,90.432 6.839,89.853 6.887 C 89.274 6.935,88.800 7.115,88.800 7.287 C 88.800 7.459,88.429 7.600,87.976 7.600 C 87.523 7.600,87.264 7.780,87.400 8.000 C 87.615 8.348,86.804 8.590,85.900 8.447 C 85.735 8.421,85.600 8.591,85.600 8.824 C 85.600 9.057,85.435 9.145,85.232 9.020 C 85.030 8.895,84.593 9.064,84.261 9.396 C 83.929 9.728,83.374 10.000,83.029 10.000 C 82.683 10.000,82.400 10.191,82.400 10.424 C 82.400 10.657,82.220 10.736,82.001 10.600 C 81.781 10.465,81.220 10.621,80.755 10.947 C 80.289 11.273,79.660 11.445,79.357 11.328 C 79.055 11.212,78.713 11.361,78.599 11.658 C 78.440 12.073,77.431 12.180,74.296 12.115 C 72.043 12.068,69.615 12.023,68.900 12.015 L 67.600 12.000 67.600 6.000 L 67.600 0.000 33.800 0.000 L 0.000 0.000 0.000 73.600 M204.400 14.803 C 204.400 15.021,205.199 15.200,206.176 15.200 C 207.153 15.200,208.064 15.380,208.200 15.600 C 208.336 15.820,208.876 16.000,209.400 16.000 C 209.924 16.000,210.472 16.192,210.617 16.427 C 210.762 16.662,211.128 16.760,211.429 16.644 C 211.730 16.529,212.257 16.714,212.599 17.056 C 212.941 17.398,213.471 17.582,213.777 17.464 C 214.083 17.347,214.440 17.528,214.570 17.867 C 214.700 18.206,215.053 18.388,215.355 18.273 C 215.656 18.157,216.076 18.236,216.287 18.447 C 216.797 18.957,219.218 20.361,220.100 20.658 C 220.485 20.787,220.800 21.052,220.800 21.247 C 220.800 21.441,221.036 21.600,221.325 21.600 C 221.613 21.600,222.205 21.915,222.640 22.300 C 223.869 23.389,225.933 24.800,226.295 24.800 C 226.475 24.800,226.930 25.160,227.307 25.600 C 227.684 26.040,227.912 26.400,227.814 26.400 C 227.716 26.400,228.086 26.850,228.636 27.400 C 229.186 27.950,229.819 28.400,230.042 28.400 C 230.265 28.400,230.372 28.535,230.280 28.700 C 230.059 29.096,232.652 31.615,232.961 31.306 C 233.092 31.174,233.200 31.279,233.200 31.538 C 233.200 31.798,234.910 33.720,237.000 35.810 C 239.090 37.900,240.800 39.533,240.800 39.439 C 240.800 39.345,241.388 39.838,242.107 40.534 C 242.826 41.230,243.378 41.863,243.334 41.940 C 243.183 42.201,246.870 45.600,247.303 45.600 C 247.540 45.600,247.625 45.709,247.492 45.842 C 247.359 45.975,248.679 47.497,250.425 49.225 C 252.171 50.952,253.600 52.463,253.600 52.583 C 253.600 52.702,242.024 52.800,227.875 52.800 L 202.151 52.800 193.805 44.600 C 185.977 36.909,184.000 35.390,184.000 37.067 C 184.000 37.433,183.889 37.622,183.752 37.486 C 183.431 37.164,182.400 38.195,182.400 38.838 C 182.400 39.110,182.298 39.232,182.174 39.108 C 181.856 38.789,174.798 45.858,174.809 46.485 C 174.813 46.768,175.443 47.538,176.209 48.196 C 176.974 48.854,177.600 49.547,177.600 49.735 C 177.600 50.140,181.662 53.983,182.100 53.993 C 182.265 53.997,182.400 54.270,182.400 54.600 C 182.400 54.930,182.700 55.200,183.067 55.200 C 183.433 55.200,183.624 55.309,183.491 55.442 C 183.246 55.687,184.951 57.600,185.414 57.600 C 185.657 57.600,191.119 63.123,193.265 65.539 C 193.850 66.198,194.435 66.632,194.565 66.502 C 194.694 66.373,194.800 66.490,194.800 66.762 C 194.800 67.034,195.070 67.527,195.400 67.857 C 195.730 68.187,196.000 68.354,196.000 68.227 C 196.000 68.101,196.675 68.761,197.500 69.695 C 199.811 72.309,199.910 72.400,200.438 72.400 C 200.710 72.400,200.822 72.511,200.686 72.648 C 200.441 72.892,201.329 74.000,201.770 74.000 C 202.262 74.000,209.182 81.084,208.933 81.334 C 208.787 81.480,208.967 81.600,209.333 81.600 C 209.700 81.600,210.000 81.766,210.000 81.969 C 210.000 82.481,217.920 90.400,218.432 90.400 C 218.660 90.400,218.736 90.580,218.600 90.800 C 218.464 91.020,218.544 91.200,218.778 91.200 C 219.299 91.200,223.200 95.132,223.200 95.657 C 223.200 95.864,223.560 96.420,224.000 96.892 C 224.440 97.364,224.800 98.167,224.800 98.675 C 224.800 99.184,224.949 99.600,225.130 99.600 C 225.312 99.600,225.461 101.220,225.461 103.200 C 225.461 105.180,225.312 106.800,225.130 106.800 C 224.949 106.800,224.800 107.274,224.800 107.854 C 224.800 108.434,224.395 109.294,223.900 109.767 C 223.405 110.239,222.574 111.197,222.052 111.897 C 221.531 112.596,220.901 113.130,220.652 113.084 C 220.404 113.038,220.249 113.238,220.310 113.530 C 220.370 113.821,220.234 113.945,220.007 113.804 C 219.780 113.664,219.482 113.841,219.346 114.198 C 219.209 114.554,218.843 114.749,218.533 114.630 C 218.223 114.511,217.885 114.635,217.781 114.907 C 217.669 115.199,216.941 115.376,215.996 115.341 C 215.118 115.308,214.400 115.443,214.400 115.641 C 214.400 115.838,213.860 116.000,213.200 116.000 C 212.540 116.000,212.000 115.820,212.000 115.600 C 212.000 115.380,211.280 115.200,210.400 115.200 C 209.520 115.200,208.800 115.020,208.800 114.800 C 208.800 114.580,208.440 114.400,208.000 114.400 C 207.560 114.400,207.200 114.220,207.200 114.000 C 207.200 113.780,207.065 113.642,206.900 113.693 C 206.542 113.803,204.427 111.860,197.771 105.305 C 195.037 102.612,192.800 100.524,192.800 100.665 C 192.800 100.805,192.285 100.218,191.656 99.360 C 191.026 98.502,189.631 96.952,188.556 95.916 C 185.581 93.050,175.320 82.860,172.496 79.966 C 168.013 75.373,164.823 72.400,164.378 72.400 C 163.711 72.400,162.718 73.543,162.995 73.992 C 163.139 74.224,162.977 74.289,162.609 74.148 C 162.241 74.007,161.688 74.229,161.288 74.680 C 160.910 75.107,160.285 75.572,159.900 75.715 C 159.515 75.858,159.200 76.281,159.200 76.654 C 159.200 77.028,159.091 77.224,158.957 77.091 C 158.824 76.957,158.366 77.173,157.940 77.570 C 157.513 77.967,156.363 78.705,155.382 79.209 C 154.402 79.713,153.600 80.277,153.600 80.463 C 153.600 80.648,153.240 80.800,152.800 80.800 C 152.360 80.800,151.999 80.935,151.997 81.100 C 151.993 81.512,150.008 82.400,149.092 82.400 C 148.680 82.400,148.089 82.654,147.778 82.964 C 147.456 83.286,146.841 83.431,146.344 83.301 C 145.748 83.145,145.565 83.219,145.761 83.537 C 146.060 84.020,145.635 84.141,144.079 84.013 C 143.572 83.971,142.909 84.143,142.606 84.395 C 141.905 84.977,131.861 84.982,131.667 84.401 C 131.593 84.180,130.648 84.000,129.567 84.000 C 128.485 84.000,127.600 83.820,127.600 83.600 C 127.600 83.380,127.060 83.200,126.400 83.200 C 125.740 83.200,125.200 83.020,125.200 82.800 C 125.200 82.580,124.840 82.400,124.400 82.400 C 123.960 82.400,123.600 82.220,123.600 82.000 C 123.600 81.780,123.366 81.600,123.080 81.600 C 122.344 81.600,120.407 80.659,120.403 80.300 C 120.401 80.135,120.130 80.000,119.800 80.000 C 119.470 80.000,119.200 79.820,119.200 79.600 C 119.200 79.380,118.840 79.200,118.400 79.200 C 117.960 79.200,117.600 79.001,117.600 78.757 C 117.600 78.514,117.339 78.414,117.020 78.537 C 116.654 78.677,116.515 78.567,116.641 78.237 C 116.758 77.932,116.375 77.521,115.721 77.249 C 115.104 76.993,113.937 76.157,113.127 75.392 C 111.446 73.804,110.000 73.541,110.000 74.824 C 110.000 75.277,109.846 75.552,109.658 75.436 C 109.471 75.320,109.110 75.680,108.857 76.235 C 108.604 76.791,108.217 77.134,107.998 76.999 C 107.779 76.864,107.598 76.988,107.595 77.276 C 107.592 77.564,106.514 78.970,105.200 80.400 C 103.886 81.830,102.808 83.225,102.805 83.500 C 102.802 83.775,102.620 84.000,102.400 84.000 C 102.180 84.000,102.000 84.551,102.000 85.224 C 102.000 85.937,102.167 86.344,102.400 86.200 C 102.620 86.064,102.800 86.156,102.800 86.405 C 102.800 86.949,103.796 88.000,104.312 88.000 C 104.515 88.000,105.217 88.495,105.872 89.100 C 107.290 90.411,108.348 91.139,109.300 91.458 C 109.685 91.588,110.000 91.819,110.000 91.972 C 110.000 92.125,110.630 92.498,111.400 92.800 C 112.170 93.102,112.800 93.496,112.800 93.675 C 112.800 93.854,113.160 94.000,113.600 94.000 C 114.040 94.000,114.400 94.180,114.400 94.400 C 114.400 94.620,114.760 94.800,115.200 94.800 C 115.640 94.800,116.000 94.980,116.000 95.200 C 116.000 95.420,116.360 95.600,116.800 95.600 C 117.240 95.600,117.600 95.780,117.600 96.000 C 117.600 96.220,117.960 96.400,118.400 96.400 C 119.186 96.400,119.200 96.667,119.200 111.704 L 119.200 127.008 116.300 127.004 C 114.705 127.002,113.040 126.808,112.600 126.574 C 112.160 126.339,111.170 126.163,110.400 126.183 C 109.630 126.203,108.762 125.990,108.472 125.710 C 108.090 125.342,107.732 125.316,107.172 125.615 C 106.564 125.941,106.400 125.897,106.400 125.408 C 106.400 124.957,106.052 124.814,105.130 124.884 C 104.406 124.939,103.790 124.770,103.697 124.490 C 103.607 124.221,103.199 124.000,102.790 124.000 C 102.382 124.000,101.936 123.820,101.800 123.600 C 101.664 123.380,101.113 123.200,100.576 123.200 C 100.039 123.200,99.600 123.020,99.600 122.800 C 99.600 122.580,99.240 122.400,98.800 122.400 C 98.360 122.400,98.000 122.220,98.000 122.000 C 98.000 121.780,97.640 121.600,97.200 121.600 C 96.760 121.600,96.400 121.420,96.400 121.200 C 96.400 120.980,96.040 120.800,95.600 120.800 C 95.160 120.800,94.800 120.609,94.800 120.376 C 94.800 120.143,94.635 120.055,94.432 120.180 C 94.230 120.305,93.793 120.136,93.461 119.804 C 93.129 119.472,92.709 119.199,92.529 119.198 C 92.348 119.197,91.245 118.473,90.078 117.588 C 88.911 116.703,87.786 116.085,87.578 116.213 C 87.370 116.342,87.197 116.122,87.194 115.724 C 87.189 115.174,87.106 115.129,86.849 115.534 C 86.593 115.939,86.458 115.864,86.290 115.222 C 86.168 114.757,85.918 114.404,85.734 114.436 C 84.960 114.572,83.828 114.326,84.321 114.128 C 86.342 113.318,83.032 112.825,75.504 112.813 L 67.607 112.800 67.504 69.700 L 67.400 26.600 74.100 26.717 C 78.553 26.794,80.800 26.694,80.800 26.417 C 80.800 26.188,81.610 26.000,82.600 26.000 C 83.590 26.000,84.400 25.840,84.400 25.645 C 84.400 25.450,85.208 25.170,86.195 25.022 C 87.183 24.874,88.253 24.490,88.574 24.169 C 88.895 23.848,89.302 23.608,89.479 23.636 C 90.092 23.732,91.600 23.105,91.600 22.753 C 91.600 22.559,91.960 22.400,92.400 22.400 C 92.840 22.400,93.200 22.220,93.200 22.000 C 93.200 21.780,93.560 21.600,94.000 21.600 C 94.440 21.600,94.800 21.420,94.800 21.200 C 94.800 20.980,95.160 20.800,95.600 20.800 C 96.040 20.800,96.400 20.620,96.400 20.400 C 96.400 20.180,96.760 20.000,97.200 20.000 C 97.640 20.000,98.000 19.820,98.000 19.600 C 98.000 19.380,98.360 19.200,98.800 19.200 C 99.240 19.200,99.600 19.020,99.600 18.800 C 99.600 18.580,99.960 18.400,100.400 18.400 C 100.840 18.400,101.200 18.220,101.200 18.000 C 101.200 17.780,101.560 17.600,102.000 17.600 C 102.440 17.600,102.800 17.420,102.800 17.200 C 102.800 16.980,103.083 16.800,103.429 16.800 C 103.774 16.800,104.329 16.528,104.661 16.196 C 104.993 15.864,105.430 15.695,105.632 15.820 C 105.835 15.945,106.000 15.857,106.000 15.624 C 106.000 15.391,106.414 15.200,106.920 15.200 C 107.426 15.200,108.011 15.034,108.220 14.831 C 108.429 14.628,109.140 14.403,109.800 14.331 C 112.991 13.983,204.400 14.440,204.400 14.803 M52.800 73.400 L 52.800 132.400 33.600 132.400 L 14.400 132.400 14.400 73.400 L 14.400 14.400 33.600 14.400 L 52.800 14.400 52.800 73.400 M385.600 140.200 L 385.600 212.800 259.800 212.800 L 134.000 212.800 134.000 156.200 L 134.000 99.600 139.000 99.600 C 142.067 99.600,144.000 99.445,144.000 99.200 C 144.000 98.980,144.864 98.800,145.920 98.800 C 146.976 98.800,148.031 98.609,148.265 98.375 C 148.499 98.141,149.255 97.934,149.945 97.914 C 150.635 97.894,151.200 97.726,151.200 97.539 C 151.200 97.353,151.729 97.200,152.376 97.200 C 153.023 97.200,153.664 97.020,153.800 96.800 C 153.936 96.580,154.497 96.400,155.047 96.400 C 155.612 96.400,155.940 96.226,155.800 96.000 C 155.660 95.773,155.996 95.600,156.576 95.600 C 157.139 95.600,157.600 95.420,157.600 95.200 C 157.600 94.980,157.870 94.800,158.200 94.800 C 158.530 94.800,158.800 94.620,158.800 94.400 C 158.800 94.180,159.160 94.000,159.600 94.000 C 160.040 94.000,160.400 93.820,160.400 93.600 C 160.400 93.380,160.760 93.200,161.200 93.200 C 161.640 93.200,162.000 93.020,162.000 92.800 C 162.000 91.604,163.776 92.917,168.232 97.408 C 170.964 100.163,173.200 102.613,173.200 102.852 C 173.200 103.347,169.807 106.800,169.319 106.801 C 169.144 106.801,168.377 107.334,167.617 107.984 C 166.856 108.634,166.156 109.089,166.062 108.995 C 165.967 108.901,165.331 109.222,164.646 109.709 C 163.962 110.197,163.151 110.537,162.844 110.467 C 162.537 110.396,162.172 110.521,162.034 110.745 C 161.896 110.968,161.337 111.246,160.791 111.363 C 160.246 111.479,159.170 111.729,158.400 111.918 C 157.630 112.107,156.431 112.194,155.735 112.112 C 155.039 112.031,154.353 112.152,154.211 112.382 C 154.060 112.627,152.324 112.800,150.019 112.800 C 146.801 112.800,146.041 112.915,145.843 113.433 C 145.709 113.781,145.600 126.115,145.600 140.842 L 145.600 167.618 151.857 167.578 C 155.771 167.552,158.210 167.692,158.369 167.950 C 158.510 168.177,159.282 168.407,160.086 168.462 C 160.890 168.516,161.459 168.704,161.351 168.880 C 161.242 169.056,161.428 169.200,161.764 169.200 C 162.101 169.200,163.017 169.560,163.800 170.000 C 164.583 170.440,165.624 170.803,166.112 170.806 C 166.832 170.811,166.887 170.886,166.400 171.200 C 165.915 171.514,165.972 171.589,166.700 171.594 C 167.195 171.597,167.601 171.735,167.603 171.900 C 167.604 172.065,168.279 172.650,169.103 173.199 C 169.926 173.749,170.838 174.424,171.129 174.699 C 171.419 174.975,171.794 175.200,171.961 175.200 C 172.128 175.200,172.520 175.695,172.832 176.300 C 173.145 176.905,173.895 177.877,174.500 178.460 C 175.105 179.044,175.600 179.809,175.600 180.160 C 175.600 180.512,175.799 180.800,176.043 180.800 C 176.286 180.800,176.379 181.077,176.250 181.415 C 176.112 181.773,176.275 182.131,176.639 182.270 C 177.012 182.414,177.186 182.811,177.070 183.255 C 176.963 183.665,177.038 184.000,177.237 184.000 C 177.437 184.000,177.600 184.414,177.600 184.920 C 177.600 185.426,177.791 186.031,178.025 186.265 C 178.259 186.499,178.463 187.300,178.478 188.045 C 178.493 188.790,178.677 189.617,178.887 189.883 C 179.097 190.148,179.250 192.623,179.227 195.383 L 179.185 200.400 259.950 200.400 C 334.248 200.400,340.734 200.348,340.965 199.748 C 341.102 199.389,341.192 197.004,341.163 194.448 C 341.094 188.258,341.851 183.200,342.847 183.200 C 343.041 183.200,343.200 182.840,343.200 182.400 C 343.200 181.960,343.391 181.600,343.624 181.600 C 343.857 181.600,343.943 181.432,343.816 181.226 C 343.689 181.020,344.038 180.398,344.592 179.844 C 345.147 179.290,345.600 178.630,345.600 178.379 C 345.600 178.127,346.134 177.422,346.786 176.813 C 347.438 176.204,347.858 175.592,347.719 175.453 C 347.580 175.314,347.684 175.200,347.950 175.200 C 348.431 175.200,348.813 174.934,350.538 173.400 C 351.634 172.426,353.551 171.230,354.500 170.929 C 354.885 170.807,355.200 170.548,355.200 170.353 C 355.200 170.159,355.560 170.000,356.000 170.000 C 356.440 170.000,356.800 169.820,356.800 169.600 C 356.800 169.380,357.250 169.200,357.800 169.200 C 358.350 169.200,358.800 169.020,358.800 168.800 C 358.800 168.580,359.505 168.400,360.367 168.400 C 361.228 168.400,361.999 168.204,362.079 167.964 C 362.176 167.672,364.177 167.544,368.117 167.577 L 374.010 167.626 373.994 140.187 L 373.979 112.747 369.993 112.874 C 367.391 112.956,365.949 112.850,365.842 112.567 C 365.751 112.329,364.538 112.093,363.147 112.043 C 361.756 111.993,360.523 111.827,360.409 111.676 C 360.294 111.524,359.750 111.338,359.200 111.262 C 358.650 111.186,358.140 110.961,358.067 110.762 C 357.993 110.563,357.680 110.400,357.369 110.400 C 356.561 110.400,353.600 109.069,353.600 108.706 C 353.600 108.538,353.323 108.400,352.985 108.400 C 351.680 108.400,344.000 100.028,344.000 98.605 C 344.000 98.272,343.820 98.000,343.600 98.000 C 343.380 98.000,343.200 97.640,343.200 97.200 C 343.200 96.760,343.020 96.400,342.800 96.400 C 342.580 96.400,342.400 95.950,342.400 95.400 C 342.400 94.850,342.240 94.400,342.044 94.400 C 341.466 94.400,341.199 91.746,341.213 86.127 C 341.224 81.483,341.140 80.804,340.513 80.439 C 339.832 80.043,339.832 80.024,340.524 80.012 C 340.922 80.005,341.136 79.820,341.000 79.600 C 340.837 79.336,321.525 79.200,284.364 79.200 C 234.609 79.200,227.948 79.129,227.745 78.600 C 227.618 78.270,227.234 78.000,226.891 78.000 C 226.547 78.000,226.375 77.892,226.506 77.760 C 226.638 77.629,224.823 75.599,222.473 73.250 C 220.123 70.901,217.953 68.669,217.651 68.289 C 217.132 67.637,221.658 67.600,301.351 67.600 L 385.600 67.600 385.600 140.200 M326.810 95.026 C 327.024 95.590,327.200 96.501,327.200 97.050 C 327.200 97.598,327.342 97.959,327.516 97.852 C 327.690 97.744,327.761 98.273,327.673 99.028 C 327.581 99.816,327.690 100.400,327.930 100.400 C 328.159 100.400,328.404 100.895,328.473 101.500 C 328.543 102.105,328.819 102.557,329.086 102.505 C 329.353 102.452,329.477 102.654,329.363 102.952 C 329.248 103.251,329.525 104.149,329.977 104.948 C 330.430 105.746,331.163 107.041,331.606 107.824 C 332.050 108.607,332.770 109.631,333.206 110.099 C 333.643 110.568,334.000 111.103,334.000 111.289 C 334.000 111.721,341.918 119.600,342.352 119.600 C 342.530 119.600,343.199 120.053,343.838 120.606 C 344.477 121.159,345.495 121.833,346.100 122.103 C 346.705 122.374,347.200 122.744,347.200 122.926 C 347.200 123.108,347.613 123.203,348.118 123.137 C 348.651 123.067,349.443 123.395,350.004 123.918 C 350.536 124.414,351.197 124.733,351.473 124.627 C 351.749 124.521,352.081 124.607,352.211 124.817 C 352.341 125.028,352.966 125.200,353.600 125.200 C 354.234 125.200,354.864 125.380,355.000 125.600 C 355.136 125.820,355.831 126.000,356.544 126.000 C 358.830 126.000,358.800 125.810,358.800 140.280 L 358.800 153.600 357.571 153.600 C 356.896 153.600,356.067 153.876,355.729 154.214 C 355.392 154.551,354.790 154.724,354.392 154.597 C 353.993 154.471,353.552 154.555,353.410 154.784 C 353.269 155.013,352.713 155.200,352.176 155.200 C 351.639 155.200,351.200 155.380,351.200 155.600 C 351.200 155.820,350.840 156.000,350.400 156.000 C 349.960 156.000,349.600 156.180,349.600 156.400 C 349.600 156.620,349.150 156.800,348.600 156.800 C 347.685 156.800,347.390 157.194,347.575 158.168 C 347.614 158.370,347.365 158.303,347.023 158.019 C 346.602 157.670,346.400 157.648,346.400 157.951 C 346.400 158.198,346.040 158.400,345.600 158.400 C 345.160 158.400,344.800 158.580,344.800 158.800 C 344.800 159.020,344.530 159.200,344.200 159.200 C 343.870 159.200,343.586 159.515,343.568 159.900 C 343.548 160.345,343.461 160.412,343.330 160.083 C 343.114 159.546,340.933 161.509,341.105 162.086 C 341.152 162.243,340.962 162.284,340.683 162.177 C 340.088 161.948,337.200 164.472,337.200 165.221 C 337.200 165.503,337.091 165.624,336.958 165.491 C 336.629 165.162,334.800 167.030,334.800 167.694 C 334.800 167.985,334.440 168.483,334.000 168.800 C 333.560 169.117,333.200 169.607,333.200 169.888 C 333.200 170.170,333.020 170.400,332.800 170.400 C 332.580 170.400,332.400 170.670,332.400 171.000 C 332.400 171.330,332.220 171.600,332.000 171.600 C 331.780 171.600,331.600 171.920,331.600 172.312 C 331.600 172.703,331.240 173.283,330.800 173.600 C 330.360 173.917,330.000 174.409,330.000 174.694 C 330.000 174.978,329.841 175.523,329.647 175.905 C 329.452 176.287,329.115 177.050,328.896 177.600 C 328.678 178.150,328.297 179.103,328.050 179.719 C 327.802 180.334,327.600 181.189,327.600 181.619 C 327.600 182.048,327.465 182.400,327.300 182.400 C 327.135 182.400,327.014 183.120,327.031 184.000 L 327.063 185.600 260.131 185.600 L 193.200 185.600 193.200 184.400 C 193.200 183.740,193.020 183.200,192.800 183.200 C 192.580 183.200,192.400 182.671,192.400 182.024 C 192.400 181.377,192.244 180.751,192.053 180.632 C 191.861 180.514,191.588 179.739,191.446 178.909 C 191.089 176.828,188.588 171.893,187.100 170.334 C 186.715 169.930,186.400 169.319,186.400 168.976 C 186.400 168.633,186.220 168.464,186.000 168.600 C 185.780 168.736,185.600 168.567,185.600 168.224 C 185.600 167.881,185.300 167.600,184.933 167.600 C 184.567 167.600,184.368 167.499,184.491 167.376 C 184.614 167.252,184.329 166.736,183.858 166.227 C 183.386 165.719,182.615 164.875,182.145 164.352 C 179.898 161.852,176.400 159.126,176.400 159.875 C 176.400 160.042,176.148 159.819,175.841 159.380 C 175.533 158.941,174.633 158.327,173.841 158.016 C 173.048 157.705,172.400 157.304,172.400 157.125 C 172.400 156.946,171.939 156.800,171.376 156.800 C 170.796 156.800,170.460 156.627,170.600 156.400 C 170.736 156.180,170.477 156.000,170.024 156.000 C 169.571 156.000,169.200 155.820,169.200 155.600 C 169.200 155.380,168.559 155.200,167.776 155.200 C 166.929 155.200,166.453 155.038,166.600 154.800 C 166.744 154.567,166.337 154.400,165.624 154.400 C 164.951 154.400,164.400 154.220,164.400 154.000 C 164.400 153.780,163.500 153.600,162.400 153.600 L 160.400 153.600 160.400 140.200 C 160.400 127.067,160.416 126.800,161.200 126.800 C 161.640 126.800,162.000 126.620,162.000 126.400 C 162.000 126.180,162.720 126.000,163.600 126.000 C 164.480 126.000,165.200 125.820,165.200 125.600 C 165.200 125.380,165.710 125.200,166.333 125.200 C 166.957 125.200,167.599 125.067,167.762 124.905 C 167.924 124.743,168.269 124.608,168.528 124.605 C 169.439 124.595,175.198 121.520,174.977 121.162 C 174.854 120.963,175.136 120.800,175.605 120.800 C 176.523 120.800,177.600 119.939,177.600 119.205 C 177.600 118.956,177.780 118.864,178.000 119.000 C 178.220 119.136,178.400 119.057,178.400 118.824 C 178.400 118.591,178.676 118.400,179.013 118.400 C 179.737 118.400,182.400 115.842,182.400 115.147 C 182.400 114.883,182.517 114.783,182.659 114.926 C 182.802 115.069,183.242 114.812,183.638 114.356 C 184.352 113.533,184.400 113.570,189.879 119.105 C 192.915 122.173,195.805 124.812,196.300 124.969 C 196.795 125.126,197.200 125.422,197.200 125.627 C 197.200 125.832,197.470 126.000,197.800 126.000 C 198.130 126.000,198.400 126.180,198.400 126.400 C 198.400 126.620,198.670 126.800,199.000 126.800 C 199.330 126.800,199.600 126.980,199.600 127.200 C 199.600 127.420,199.960 127.600,200.400 127.600 C 200.840 127.600,201.200 127.780,201.200 128.000 C 201.200 128.220,201.740 128.400,202.400 128.400 C 203.060 128.400,203.600 128.580,203.600 128.800 C 203.600 129.020,204.140 129.200,204.800 129.200 C 205.460 129.200,206.000 129.380,206.000 129.600 C 206.000 129.829,207.208 130.000,208.824 130.000 C 210.404 130.000,211.549 130.159,211.424 130.362 C 211.301 130.560,212.100 130.730,213.200 130.739 C 214.300 130.747,215.200 130.584,215.200 130.377 C 215.200 130.170,216.275 130.000,217.588 130.000 C 219.244 130.000,220.418 129.752,221.418 129.190 C 222.226 128.736,222.733 128.604,222.571 128.890 C 222.340 129.299,222.390 129.301,222.821 128.900 C 223.118 128.625,223.684 128.400,224.080 128.400 C 224.476 128.400,224.800 128.254,224.800 128.075 C 224.800 127.896,225.430 127.502,226.200 127.200 C 226.970 126.898,227.600 126.504,227.600 126.325 C 227.600 126.146,227.780 126.000,228.000 126.000 C 228.220 126.000,228.400 126.349,228.400 126.776 C 228.400 127.203,228.220 127.664,228.000 127.800 C 227.780 127.936,227.600 128.487,227.600 129.024 C 227.600 129.561,227.451 130.000,227.269 130.000 C 227.087 130.000,227.013 130.505,227.103 131.123 C 227.207 131.828,227.031 132.443,226.629 132.776 C 226.142 133.180,226.098 133.436,226.444 133.853 C 226.694 134.154,226.741 134.400,226.549 134.400 C 225.962 134.400,226.203 147.631,226.797 147.998 C 227.105 148.189,227.231 148.805,227.119 149.573 C 227.017 150.267,227.083 150.928,227.267 151.041 C 227.450 151.155,227.600 151.692,227.600 152.236 C 227.600 152.780,227.873 153.330,228.207 153.458 C 228.541 153.586,228.774 153.896,228.724 154.146 C 228.637 154.585,229.929 157.593,230.380 158.000 C 230.502 158.110,230.856 158.695,231.168 159.300 C 231.480 159.905,231.975 160.400,232.268 160.400 C 232.560 160.400,232.771 160.535,232.736 160.700 C 232.529 161.679,237.197 167.070,237.762 166.504 C 237.893 166.374,238.000 166.567,238.000 166.933 C 238.000 167.300,238.294 167.600,238.653 167.600 C 239.012 167.600,239.599 167.915,239.957 168.300 C 240.862 169.272,242.362 170.071,242.789 169.807 C 242.984 169.686,243.275 169.798,243.434 170.055 C 243.615 170.348,243.550 170.416,243.262 170.238 C 243.008 170.081,242.800 170.099,242.800 170.279 C 242.800 170.769,245.119 171.697,245.601 171.400 C 245.831 171.257,245.970 171.379,245.910 171.670 C 245.840 172.008,246.189 172.195,246.871 172.186 C 247.460 172.179,247.910 172.348,247.871 172.563 C 247.832 172.777,248.160 173.019,248.600 173.100 C 249.040 173.181,249.670 173.357,250.000 173.493 C 252.803 174.640,264.714 175.260,267.470 174.401 C 268.092 174.208,269.410 173.837,270.400 173.577 C 272.363 173.063,277.319 170.787,277.533 170.302 C 277.607 170.136,278.012 170.000,278.433 170.000 C 278.855 170.000,279.200 169.850,279.200 169.668 C 279.200 169.485,279.695 169.080,280.300 168.768 C 281.691 168.050,283.200 166.584,283.200 165.952 C 283.200 165.685,283.308 165.575,283.441 165.707 C 283.752 166.019,285.549 164.295,285.324 163.900 C 285.230 163.735,285.421 163.600,285.749 163.600 C 286.078 163.600,286.460 163.240,286.600 162.800 C 286.740 162.360,287.090 162.000,287.378 162.000 C 287.667 162.000,288.127 161.460,288.400 160.800 C 288.673 160.140,289.043 159.600,289.222 159.600 C 289.503 159.600,290.219 157.974,290.059 157.700 C 290.026 157.645,290.360 157.240,290.800 156.800 C 291.240 156.360,291.600 155.640,291.600 155.200 C 291.600 154.760,291.780 154.400,292.000 154.400 C 292.220 154.400,292.400 153.860,292.400 153.200 C 292.400 152.540,292.541 152.000,292.713 152.000 C 292.885 152.000,293.066 151.505,293.116 150.900 C 293.166 150.295,293.385 149.740,293.603 149.667 C 293.822 149.593,294.000 148.468,294.000 147.167 C 294.000 145.856,294.178 144.800,294.400 144.800 C 294.643 144.800,294.800 143.000,294.800 140.200 C 294.800 137.400,294.643 135.600,294.400 135.600 C 294.180 135.600,294.000 135.006,294.000 134.280 C 294.000 133.554,293.775 132.718,293.500 132.421 C 293.100 131.990,293.100 131.939,293.500 132.165 C 293.775 132.320,294.000 132.257,294.000 132.024 C 294.000 131.791,293.820 131.600,293.600 131.600 C 293.380 131.600,293.200 131.096,293.200 130.480 C 293.200 129.264,292.384 127.208,291.900 127.203 C 291.735 127.201,291.600 126.765,291.600 126.232 C 291.600 125.254,290.453 122.712,289.900 122.467 C 289.735 122.393,289.600 122.112,289.600 121.842 C 289.600 121.572,289.285 121.002,288.900 120.575 C 288.515 120.149,287.750 119.126,287.200 118.303 C 286.650 117.479,285.945 116.804,285.633 116.803 C 285.322 116.801,285.175 116.692,285.307 116.560 C 285.604 116.263,282.988 113.600,282.400 113.600 C 282.165 113.600,281.474 113.105,280.863 112.500 C 280.253 111.895,279.520 111.349,279.234 111.286 C 278.948 111.223,278.451 110.908,278.129 110.586 C 277.806 110.264,277.273 110.000,276.943 110.000 C 276.613 110.000,276.081 109.738,275.760 109.417 C 275.439 109.096,274.912 108.936,274.588 109.060 C 274.265 109.184,274.000 109.076,274.000 108.819 C 274.000 108.563,273.835 108.455,273.632 108.580 C 273.430 108.705,272.993 108.536,272.661 108.204 C 272.329 107.872,271.504 107.600,270.829 107.600 C 270.153 107.600,269.600 107.420,269.600 107.200 C 269.600 106.980,268.790 106.800,267.800 106.800 C 266.810 106.800,266.000 106.634,266.000 106.432 C 266.000 106.227,263.610 106.058,260.600 106.050 C 257.425 106.041,255.200 106.193,255.200 106.418 C 255.200 106.628,254.315 106.800,253.233 106.800 C 252.152 106.800,251.203 106.991,251.125 107.224 C 251.048 107.457,250.403 107.665,249.692 107.685 C 248.981 107.705,248.400 107.874,248.400 108.061 C 248.400 108.247,247.961 108.400,247.424 108.400 C 246.887 108.400,246.334 108.583,246.196 108.807 C 246.058 109.030,245.776 109.109,245.570 108.981 C 245.363 108.854,245.091 109.020,244.964 109.350 C 244.837 109.681,244.163 110.076,243.467 110.229 C 242.771 110.382,241.928 110.798,241.595 111.154 C 241.261 111.509,240.631 112.008,240.194 112.263 C 239.757 112.517,239.449 112.936,239.510 113.193 C 239.570 113.449,239.420 113.536,239.175 113.385 C 238.855 113.187,238.852 112.988,239.165 112.675 C 239.404 112.436,239.600 111.646,239.600 110.920 C 239.600 110.194,239.768 109.600,239.972 109.600 C 240.450 109.600,240.533 97.250,240.059 96.648 C 239.866 96.401,239.618 95.705,239.509 95.100 L 239.311 94.000 282.865 94.000 L 326.420 94.000 326.810 95.026 M264.955 121.600 C 265.848 121.600,266.348 121.761,266.200 122.000 C 266.064 122.220,266.216 122.400,266.539 122.400 C 267.224 122.400,270.360 123.973,271.132 124.704 C 271.425 124.981,271.830 125.105,272.032 124.980 C 272.235 124.855,272.400 124.939,272.400 125.167 C 272.400 125.395,273.292 126.516,274.382 127.659 C 275.471 128.801,276.270 129.887,276.156 130.071 C 276.042 130.255,276.219 130.509,276.549 130.636 C 276.879 130.763,277.059 131.103,276.947 131.393 C 276.836 131.682,276.938 132.038,277.173 132.183 C 277.408 132.328,277.600 132.797,277.600 133.224 C 277.600 133.651,277.780 134.000,278.000 134.000 C 278.220 134.000,278.400 134.594,278.400 135.320 C 278.400 136.046,278.601 136.841,278.847 137.087 C 279.446 137.686,279.419 142.254,278.813 142.985 C 278.548 143.304,278.427 143.721,278.545 143.911 C 278.663 144.102,278.498 144.760,278.180 145.374 C 277.861 145.989,277.600 146.831,277.600 147.246 C 277.600 147.661,277.408 148.000,277.173 148.000 C 276.928 148.000,276.854 148.341,277.000 148.800 C 277.174 149.348,277.072 149.600,276.675 149.600 C 276.357 149.600,275.868 150.154,275.587 150.831 C 274.998 152.253,272.294 155.200,271.578 155.200 C 271.312 155.200,270.801 155.515,270.443 155.900 C 269.604 156.801,268.177 157.600,267.405 157.600 C 267.072 157.600,266.800 157.780,266.800 158.000 C 266.800 158.220,266.260 158.400,265.600 158.400 C 264.940 158.400,264.400 158.561,264.400 158.759 C 264.400 159.221,256.054 159.212,255.769 158.749 C 255.650 158.557,255.113 158.400,254.576 158.400 C 254.039 158.400,253.600 158.201,253.600 157.957 C 253.600 157.714,253.335 157.616,253.012 157.740 C 252.688 157.864,252.161 157.704,251.840 157.383 C 251.519 157.062,251.064 156.800,250.829 156.800 C 250.593 156.800,250.400 156.620,250.400 156.400 C 250.400 156.180,250.120 156.000,249.778 156.000 C 249.436 156.000,248.106 154.930,246.822 153.622 C 245.539 152.315,244.379 151.355,244.244 151.489 C 244.110 151.623,244.000 151.243,244.000 150.643 C 244.000 150.018,243.829 149.658,243.600 149.800 C 243.380 149.936,243.200 149.677,243.200 149.224 C 243.200 148.771,243.020 148.400,242.800 148.400 C 242.580 148.400,242.400 147.950,242.400 147.400 C 242.400 146.850,242.220 146.400,242.000 146.400 C 241.780 146.400,241.600 145.961,241.600 145.424 C 241.600 144.887,241.450 144.355,241.267 144.241 C 241.083 144.128,241.014 143.487,241.112 142.818 C 241.229 142.021,241.120 141.600,240.796 141.600 C 240.444 141.600,240.422 141.455,240.721 141.095 C 240.951 140.818,241.108 139.541,241.070 138.257 C 241.031 136.974,241.135 135.840,241.300 135.738 C 241.465 135.636,241.600 135.023,241.600 134.376 C 241.600 133.729,241.780 133.200,242.000 133.200 C 242.220 133.200,242.400 132.840,242.400 132.400 C 242.400 131.960,242.580 131.600,242.800 131.600 C 243.020 131.600,243.200 131.280,243.200 130.888 C 243.200 130.497,243.560 129.917,244.000 129.600 C 244.440 129.283,244.800 128.774,244.800 128.469 C 244.800 127.798,248.808 123.958,249.234 124.221 C 249.400 124.324,249.807 124.136,250.139 123.804 C 250.471 123.472,251.026 123.200,251.371 123.200 C 251.717 123.200,252.000 122.955,252.000 122.655 C 252.000 122.297,252.326 122.173,252.953 122.293 C 253.477 122.393,254.028 122.278,254.177 122.038 C 254.325 121.797,254.941 121.600,255.544 121.600 C 256.147 121.600,256.811 121.430,257.020 121.222 C 257.623 120.622,262.109 120.528,262.831 121.100 C 263.179 121.375,264.134 121.600,264.955 121.600 M332.400 276.200 C 332.400 282.733,332.256 286.400,332.000 286.400 C 331.780 286.400,331.600 286.220,331.600 286.000 C 331.600 285.780,331.240 285.600,330.800 285.600 C 330.360 285.600,330.000 285.420,330.000 285.200 C 330.000 284.980,329.764 284.800,329.475 284.800 C 329.187 284.800,328.564 284.440,328.092 284.000 C 327.104 283.079,326.552 282.989,326.265 283.700 C 326.154 283.975,326.049 283.795,326.032 283.300 C 326.013 282.781,325.746 282.400,325.400 282.400 C 325.070 282.400,324.800 282.220,324.800 282.000 C 324.800 281.780,324.564 281.600,324.275 281.600 C 323.987 281.600,323.364 281.240,322.892 280.800 C 322.420 280.360,321.838 280.000,321.600 280.000 C 321.362 280.000,320.780 279.640,320.308 279.200 C 319.836 278.760,319.213 278.400,318.925 278.400 C 318.636 278.400,318.400 278.220,318.400 278.000 C 318.400 277.780,318.053 277.600,317.629 277.600 C 317.204 277.600,316.619 277.370,316.329 277.088 C 315.471 276.257,313.114 275.258,312.535 275.480 C 312.241 275.593,312.000 275.486,312.000 275.243 C 312.000 274.999,311.640 274.800,311.200 274.800 C 310.760 274.800,310.400 274.620,310.400 274.400 C 310.400 274.180,309.680 274.000,308.800 274.000 C 307.920 274.000,307.200 273.820,307.200 273.600 C 307.200 273.374,306.067 273.200,304.600 273.200 C 303.133 273.200,302.000 273.026,302.000 272.800 C 302.000 272.269,271.110 272.250,270.579 272.781 C 270.370 272.990,268.579 273.202,266.599 273.253 C 264.620 273.304,262.899 273.492,262.776 273.672 C 262.654 273.852,261.806 274.029,260.893 274.065 C 259.980 274.101,259.326 274.281,259.440 274.465 C 259.554 274.649,258.827 274.800,257.824 274.800 C 256.821 274.800,256.000 274.975,256.000 275.188 C 256.000 275.401,255.354 275.551,254.564 275.522 C 253.775 275.492,253.010 275.632,252.864 275.834 C 252.719 276.035,252.150 276.263,251.600 276.339 C 251.050 276.416,250.463 276.718,250.296 277.010 C 250.079 277.390,249.663 277.447,248.837 277.211 C 248.201 277.028,247.525 277.035,247.334 277.226 C 247.143 277.417,246.405 277.617,245.693 277.672 C 244.982 277.726,244.400 277.977,244.400 278.230 C 244.400 278.498,244.003 278.613,243.445 278.506 C 242.919 278.406,242.064 278.557,241.545 278.842 C 241.025 279.126,240.195 279.311,239.700 279.251 C 239.152 279.185,238.800 279.357,238.800 279.691 C 238.800 280.085,238.394 280.192,237.354 280.071 C 236.498 279.971,235.788 280.095,235.615 280.376 C 235.454 280.637,234.738 280.867,234.025 280.887 C 233.311 280.907,232.647 281.134,232.548 281.390 C 232.445 281.659,231.868 281.783,231.185 281.683 C 230.477 281.579,230.000 281.689,230.000 281.955 C 230.000 282.200,229.471 282.400,228.824 282.400 C 228.177 282.400,227.536 282.580,227.400 282.800 C 227.264 283.020,226.443 283.200,225.576 283.200 C 224.709 283.200,224.000 283.380,224.000 283.600 C 224.000 283.820,223.381 284.000,222.624 284.000 C 221.867 284.000,221.136 284.180,221.000 284.400 C 220.864 284.620,220.349 284.800,219.856 284.800 C 219.363 284.800,218.789 284.971,218.579 285.181 C 218.370 285.390,217.524 285.607,216.699 285.663 C 215.875 285.718,215.200 285.907,215.200 286.082 C 215.200 286.257,214.585 286.400,213.833 286.400 C 213.082 286.400,212.407 286.572,212.333 286.782 C 212.260 286.993,211.525 287.210,210.700 287.264 C 209.875 287.319,209.200 287.507,209.200 287.682 C 209.200 287.857,208.660 288.000,208.000 288.000 C 207.340 288.000,206.800 288.180,206.800 288.400 C 206.800 288.620,206.080 288.800,205.200 288.800 C 204.320 288.800,203.600 288.980,203.600 289.200 C 203.600 289.420,202.970 289.600,202.200 289.600 C 201.430 289.600,200.800 289.780,200.800 290.000 C 200.800 290.220,200.258 290.400,199.595 290.400 C 198.932 290.400,198.077 290.568,197.695 290.773 C 197.313 290.979,195.875 291.376,194.500 291.656 C 193.125 291.936,192.000 292.314,192.000 292.495 C 192.000 292.677,191.415 292.796,190.700 292.759 C 189.985 292.723,188.890 292.899,188.266 293.150 C 187.643 293.401,186.983 293.513,186.801 293.400 C 186.618 293.287,186.408 293.375,186.334 293.594 C 186.260 293.814,185.705 294.034,185.100 294.084 C 184.495 294.134,184.000 294.315,184.000 294.487 C 184.000 294.659,183.865 294.779,183.700 294.753 C 182.445 294.554,181.186 294.859,181.435 295.300 C 181.650 295.680,181.598 295.690,181.220 295.341 C 180.727 294.887,178.403 295.743,178.066 296.502 C 177.992 296.669,177.763 296.701,177.556 296.573 C 177.120 296.303,174.800 297.250,174.800 297.698 C 174.800 297.864,174.555 298.000,174.256 298.000 C 173.957 298.000,173.066 298.609,172.276 299.354 C 171.487 300.098,170.742 300.608,170.620 300.487 C 170.499 300.366,170.400 300.477,170.400 300.733 C 170.400 300.990,170.212 301.200,169.982 301.200 C 169.426 301.200,167.600 303.045,167.600 303.605 C 167.600 303.848,167.420 303.936,167.200 303.800 C 166.980 303.664,166.800 303.807,166.800 304.117 C 166.800 304.427,166.264 305.243,165.608 305.929 C 164.894 306.676,164.510 307.422,164.651 307.788 C 164.794 308.160,164.663 308.400,164.317 308.400 C 164.005 308.400,163.502 309.030,163.200 309.800 C 162.898 310.570,162.554 311.200,162.436 311.200 C 161.998 311.200,156.195 308.197,156.067 307.904 C 155.993 307.737,155.588 307.600,155.167 307.600 C 154.745 307.600,154.400 307.420,154.400 307.200 C 154.400 306.980,154.040 306.800,153.600 306.800 C 153.160 306.800,152.800 306.620,152.800 306.400 C 152.800 306.180,152.530 306.000,152.200 306.000 C 151.870 306.000,151.600 305.820,151.600 305.600 C 151.600 305.380,151.330 305.200,151.000 305.200 C 150.670 305.200,150.400 305.020,150.400 304.800 C 150.400 304.580,150.040 304.400,149.600 304.400 C 149.160 304.400,148.800 304.220,148.800 304.000 C 148.800 303.780,148.440 303.600,148.000 303.600 C 147.560 303.600,147.200 303.420,147.200 303.200 C 147.200 302.980,146.840 302.800,146.400 302.800 C 145.960 302.800,145.600 302.620,145.600 302.400 C 145.600 302.180,145.240 302.000,144.800 302.000 C 144.360 302.000,144.000 301.841,144.000 301.647 C 144.000 301.339,142.865 300.869,142.127 300.871 C 141.987 300.871,141.712 300.586,141.516 300.236 C 141.320 299.886,140.899 299.600,140.580 299.600 C 140.261 299.600,139.999 299.465,139.997 299.300 C 139.993 298.935,138.051 298.000,137.297 298.000 C 136.998 298.000,136.864 297.820,137.000 297.600 C 137.136 297.380,136.877 297.200,136.424 297.200 C 135.971 297.200,135.600 297.020,135.600 296.800 C 135.600 296.580,135.240 296.400,134.800 296.400 C 134.360 296.400,134.000 296.241,134.000 296.047 C 134.000 295.628,132.454 295.079,131.600 295.195 C 131.270 295.239,131.134 295.140,131.299 294.973 C 131.659 294.606,129.293 293.095,128.818 293.389 C 128.634 293.503,128.382 293.329,128.257 293.004 C 128.128 292.669,127.765 292.515,127.415 292.650 C 127.068 292.783,126.800 292.672,126.800 292.396 C 126.800 292.104,126.478 291.991,125.999 292.116 C 125.559 292.231,125.293 292.173,125.409 291.986 C 125.524 291.799,124.984 291.345,124.209 290.978 C 123.434 290.610,122.800 290.130,122.800 289.912 C 122.800 289.693,122.545 289.612,122.233 289.732 C 121.921 289.852,121.567 289.691,121.446 289.375 C 121.324 289.059,120.949 288.800,120.613 288.800 C 120.276 288.800,120.000 288.620,120.000 288.400 C 120.000 288.180,119.640 288.000,119.200 288.000 C 118.760 288.000,118.400 287.820,118.400 287.600 C 118.400 287.380,118.040 287.200,117.600 287.200 C 117.160 287.200,116.800 287.020,116.800 286.800 C 116.800 286.580,116.440 286.400,116.000 286.400 C 115.560 286.400,115.200 286.220,115.200 286.000 C 115.200 285.780,115.009 285.600,114.776 285.600 C 114.543 285.600,114.481 285.808,114.638 286.062 C 114.816 286.350,114.748 286.415,114.455 286.234 C 114.198 286.075,114.098 285.765,114.234 285.545 C 114.369 285.326,114.102 285.047,113.640 284.926 C 113.178 284.806,112.800 284.548,112.800 284.353 C 112.800 284.159,112.440 284.000,112.000 284.000 C 111.560 284.000,111.200 283.820,111.200 283.600 C 111.200 283.380,110.840 283.200,110.400 283.200 C 109.960 283.200,109.600 283.001,109.600 282.757 C 109.600 282.514,109.345 282.412,109.033 282.532 C 108.721 282.652,108.360 282.472,108.230 282.133 C 108.097 281.787,107.732 281.617,107.397 281.746 C 107.035 281.885,106.800 281.744,106.800 281.387 C 106.800 281.064,106.440 280.800,106.000 280.800 C 105.560 280.800,105.200 280.620,105.200 280.400 C 105.200 280.180,105.003 280.000,104.762 280.000 C 104.521 280.000,103.801 279.628,103.162 279.173 C 102.523 278.718,102.000 278.445,102.000 278.567 C 102.000 278.689,101.415 278.432,100.700 277.996 C 99.985 277.560,99.085 277.202,98.700 277.201 C 98.315 277.201,98.000 277.009,98.000 276.776 C 98.000 276.543,97.825 276.461,97.611 276.593 C 97.397 276.726,96.920 276.482,96.552 276.052 C 96.184 275.622,95.639 275.364,95.341 275.478 C 95.044 275.592,94.800 275.486,94.800 275.243 C 94.800 274.999,94.440 274.800,94.000 274.800 C 93.560 274.800,93.200 274.620,93.200 274.400 C 93.200 274.180,92.840 274.000,92.400 274.000 C 91.960 274.000,91.600 273.820,91.600 273.600 C 91.600 273.380,90.970 273.200,90.200 273.200 C 89.430 273.200,88.800 273.020,88.800 272.800 C 88.800 272.550,86.408 272.400,82.424 272.400 C 78.604 272.400,75.948 272.560,75.800 272.800 C 75.664 273.020,75.029 273.200,74.389 273.200 C 73.748 273.200,72.583 273.560,71.800 274.000 C 71.017 274.440,70.111 274.800,69.788 274.800 C 69.465 274.800,69.200 275.010,69.200 275.267 C 69.200 275.523,69.087 275.621,68.949 275.483 C 68.629 275.163,66.400 276.300,66.400 276.783 C 66.400 276.983,66.085 277.246,65.700 277.369 C 64.825 277.648,60.417 281.884,60.704 282.171 C 60.820 282.286,60.620 282.494,60.260 282.632 C 59.899 282.771,59.693 283.026,59.800 283.200 C 59.907 283.374,59.715 283.624,59.372 283.755 C 59.030 283.887,58.861 284.176,58.998 284.397 C 59.135 284.619,59.057 284.800,58.824 284.800 C 58.591 284.800,58.400 285.160,58.400 285.600 C 58.400 286.040,58.220 286.400,58.000 286.400 C 57.780 286.400,57.600 286.760,57.600 287.200 C 57.600 287.640,57.442 288.000,57.250 288.000 C 57.058 288.000,56.900 288.488,56.900 289.083 C 56.900 289.679,56.698 290.234,56.450 290.317 C 56.203 290.399,56.000 290.992,56.000 291.633 C 56.000 292.275,55.820 292.800,55.600 292.800 C 55.380 292.800,55.200 292.991,55.200 293.224 C 55.200 293.457,55.425 293.512,55.700 293.347 C 56.097 293.108,56.099 293.171,55.708 293.655 C 55.108 294.396,55.025 305.845,55.617 306.211 C 55.828 306.341,56.000 306.977,56.000 307.624 C 56.000 308.271,56.180 308.800,56.400 308.800 C 56.620 308.800,56.800 309.072,56.800 309.405 C 56.800 309.981,56.986 310.432,58.074 312.500 C 58.334 312.995,58.817 313.935,59.147 314.589 C 59.766 315.816,60.241 316.409,62.514 318.800 C 64.235 320.610,65.493 321.600,66.071 321.600 C 66.325 321.600,66.418 321.715,66.277 321.856 C 66.021 322.113,67.989 323.416,69.300 323.858 C 69.685 323.987,70.000 324.252,70.000 324.447 C 70.000 324.641,70.135 324.781,70.300 324.757 C 70.904 324.670,72.400 325.303,72.400 325.647 C 72.400 325.841,72.760 326.000,73.200 326.000 C 73.640 326.000,74.000 326.180,74.000 326.400 C 74.000 326.620,74.188 326.800,74.417 326.800 C 74.646 326.800,75.220 327.160,75.692 327.600 C 76.164 328.040,76.787 328.400,77.075 328.400 C 77.364 328.400,77.600 328.580,77.600 328.800 C 77.600 329.020,77.894 329.200,78.253 329.200 C 78.612 329.200,79.203 329.542,79.565 329.960 C 79.928 330.378,80.662 330.783,81.197 330.860 C 81.731 330.937,82.645 331.495,83.228 332.100 C 83.810 332.705,84.582 333.200,84.943 333.200 C 85.304 333.200,85.600 333.359,85.600 333.553 C 85.600 333.943,87.116 334.521,87.894 334.427 C 88.196 334.391,88.289 334.624,88.133 335.030 C 87.929 335.562,88.049 335.638,88.739 335.419 C 89.379 335.216,89.600 335.313,89.600 335.797 C 89.600 336.154,89.747 336.356,89.927 336.245 C 90.107 336.134,90.729 336.483,91.310 337.021 C 91.890 337.560,92.643 338.000,92.983 338.000 C 93.322 338.000,93.600 338.180,93.600 338.400 C 93.600 338.620,93.870 338.800,94.200 338.800 C 94.530 338.800,94.800 338.947,94.800 339.126 C 94.800 339.429,97.443 340.914,98.087 340.974 C 98.245 340.988,98.742 341.315,99.192 341.700 C 99.641 342.085,100.277 342.400,100.605 342.400 C 100.932 342.400,101.200 342.580,101.200 342.800 C 101.200 343.020,101.558 343.200,101.997 343.200 C 102.435 343.200,103.018 343.560,103.293 344.000 C 103.568 344.440,104.109 344.800,104.496 344.800 C 104.883 344.800,105.200 344.980,105.200 345.200 C 105.200 345.420,105.494 345.600,105.853 345.600 C 106.212 345.600,106.797 345.916,107.153 346.303 C 107.509 346.689,108.340 347.274,109.000 347.603 C 109.660 347.931,110.549 348.515,110.975 348.900 C 111.402 349.285,111.987 349.600,112.275 349.600 C 112.564 349.600,112.800 349.780,112.800 350.000 C 112.800 350.220,113.078 350.400,113.417 350.400 C 113.756 350.400,114.420 350.760,114.892 351.200 C 115.364 351.640,115.987 352.000,116.275 352.000 C 116.564 352.000,116.800 352.180,116.800 352.400 C 116.800 352.620,117.078 352.800,117.417 352.800 C 117.756 352.800,118.420 353.160,118.892 353.600 C 119.364 354.040,119.987 354.400,120.275 354.400 C 120.564 354.400,120.800 354.580,120.800 354.800 C 120.800 355.020,121.160 355.200,121.600 355.200 C 122.040 355.200,122.400 355.342,122.400 355.516 C 122.400 356.010,126.739 358.085,127.189 357.807 C 127.415 357.667,127.495 357.807,127.373 358.127 C 127.182 358.623,127.967 359.116,129.315 359.346 C 129.488 359.376,129.800 359.670,130.008 360.000 C 130.217 360.330,130.396 360.420,130.406 360.200 C 130.416 359.980,130.608 360.115,130.832 360.500 C 131.056 360.885,131.501 361.200,131.820 361.200 C 132.139 361.200,132.400 361.380,132.400 361.600 C 132.400 361.820,132.720 362.000,133.112 362.000 C 133.503 362.000,134.083 362.360,134.400 362.800 C 134.717 363.240,135.297 363.600,135.688 363.600 C 136.080 363.600,136.400 363.780,136.400 364.000 C 136.400 364.220,136.720 364.400,137.112 364.400 C 137.503 364.400,138.083 364.760,138.400 365.200 C 138.717 365.640,139.297 366.000,139.688 366.000 C 140.080 366.000,140.400 366.180,140.400 366.400 C 140.400 366.620,140.694 366.800,141.053 366.800 C 141.412 366.800,142.037 367.181,142.441 367.647 C 142.862 368.133,143.436 368.395,143.783 368.262 C 144.128 368.129,144.349 368.228,144.295 368.491 C 144.243 368.745,144.532 369.025,144.938 369.113 C 145.627 369.263,146.557 369.905,147.816 371.100 C 148.106 371.375,148.626 371.600,148.971 371.600 C 149.317 371.600,149.600 371.745,149.600 371.921 C 149.600 372.098,150.497 372.683,151.594 373.221 C 152.690 373.760,153.590 374.321,153.594 374.468 C 153.597 374.616,154.140 374.855,154.800 375.000 C 155.460 375.145,156.000 375.429,156.000 375.632 C 156.000 375.834,156.345 376.000,156.767 376.000 C 157.188 376.000,157.593 376.135,157.667 376.300 C 157.869 376.755,160.310 378.400,160.784 378.400 C 161.013 378.400,161.200 378.580,161.200 378.800 C 161.200 379.020,161.436 379.200,161.725 379.200 C 162.013 379.200,162.636 379.560,163.108 380.000 C 164.063 380.889,164.987 381.076,164.594 380.300 C 164.455 380.025,164.624 380.149,164.970 380.576 C 165.317 381.004,165.600 381.230,165.600 381.080 C 165.600 380.930,166.114 381.346,166.743 382.004 C 167.372 382.662,168.182 383.200,168.543 383.200 C 168.904 383.200,169.200 383.359,169.200 383.553 C 169.200 383.897,170.696 384.530,171.300 384.443 C 171.465 384.419,171.600 384.670,171.600 385.000 C 171.600 385.333,171.956 385.600,172.400 385.600 C 172.840 385.600,173.200 385.758,173.200 385.951 C 173.200 386.145,173.740 386.527,174.400 386.800 C 175.060 387.073,175.600 387.455,175.600 387.649 C 175.600 388.188,176.707 388.065,176.935 387.500 C 177.046 387.225,177.151 387.405,177.168 387.900 C 177.186 388.395,177.393 388.800,177.629 388.800 C 177.864 388.800,178.333 389.076,178.671 389.414 C 179.041 389.783,179.625 389.932,180.142 389.787 C 180.752 389.617,180.843 389.657,180.455 389.925 C 180.044 390.210,180.313 390.480,181.555 391.028 C 182.460 391.427,183.200 391.899,183.200 392.077 C 183.200 392.255,183.560 392.400,184.000 392.400 C 184.440 392.400,184.800 392.580,184.800 392.800 C 184.800 393.020,185.120 393.200,185.512 393.200 C 185.903 393.200,186.483 393.560,186.800 394.000 C 187.117 394.440,187.697 394.800,188.088 394.800 C 188.480 394.800,188.800 394.980,188.800 395.200 C 188.800 395.420,189.120 395.600,189.512 395.600 C 189.903 395.600,190.483 395.960,190.800 396.400 C 191.117 396.840,191.697 397.200,192.088 397.200 C 192.480 397.200,192.800 397.380,192.800 397.600 C 192.800 397.820,193.239 398.000,193.776 398.000 C 194.313 398.000,194.874 398.196,195.022 398.435 C 195.169 398.674,195.630 398.781,196.046 398.672 C 196.495 398.555,196.952 398.743,197.173 399.137 C 197.665 400.016,311.607 400.178,311.900 399.300 C 311.992 399.025,312.592 398.800,313.233 398.800 C 313.875 398.800,314.400 398.620,314.400 398.400 C 314.400 398.180,314.715 397.994,315.100 397.987 C 315.485 397.980,316.132 397.723,316.539 397.415 C 316.945 397.107,317.530 396.952,317.839 397.070 C 318.147 397.189,318.400 397.086,318.400 396.843 C 318.400 396.599,318.773 396.400,319.229 396.400 C 319.684 396.400,320.319 396.138,320.640 395.817 C 320.961 395.496,321.488 395.336,321.812 395.460 C 322.135 395.584,322.400 395.486,322.400 395.243 C 322.400 394.999,322.850 394.800,323.400 394.800 C 323.950 394.800,324.400 394.620,324.400 394.400 C 324.400 394.180,324.760 394.000,325.200 394.000 C 325.640 394.000,326.000 393.820,326.000 393.600 C 326.000 393.380,326.463 393.200,327.029 393.200 C 327.594 393.200,328.329 392.928,328.661 392.596 C 328.993 392.264,329.430 392.095,329.632 392.220 C 329.835 392.345,330.000 392.257,330.000 392.024 C 330.000 391.791,330.540 391.600,331.200 391.600 L 332.400 391.600 332.400 395.800 L 332.400 400.000 366.200 400.000 L 400.000 400.000 400.000 333.000 L 400.000 266.000 366.200 266.000 L 332.400 266.000 332.400 276.200 M385.600 333.200 L 385.600 385.600 366.400 385.600 L 347.200 385.600 347.200 333.200 L 347.200 280.800 366.400 280.800 L 385.600 280.800 385.600 333.200 M302.239 287.947 C 303.467 287.872,304.201 288.003,304.305 288.315 C 304.394 288.582,304.992 288.800,305.633 288.800 C 306.275 288.800,306.800 288.991,306.800 289.224 C 306.800 289.457,306.965 289.545,307.168 289.420 C 307.370 289.295,307.783 289.441,308.086 289.744 C 308.389 290.047,309.034 290.420,309.519 290.574 C 310.003 290.728,310.400 291.022,310.400 291.227 C 310.400 291.432,310.861 291.600,311.424 291.600 C 312.083 291.600,312.348 291.761,312.168 292.052 C 312.000 292.323,312.105 292.432,312.430 292.323 C 312.727 292.224,313.358 292.561,313.831 293.072 C 314.305 293.582,314.986 294.000,315.346 294.000 C 315.706 294.000,316.000 294.180,316.000 294.400 C 316.000 294.620,316.320 294.800,316.712 294.800 C 317.103 294.800,317.683 295.160,318.000 295.600 C 318.317 296.040,318.897 296.400,319.288 296.400 C 319.680 296.400,320.000 296.580,320.000 296.800 C 320.000 297.020,320.236 297.200,320.525 297.200 C 320.813 297.200,321.436 297.560,321.908 298.000 C 322.380 298.440,323.044 298.800,323.383 298.800 C 323.722 298.800,324.000 298.995,324.000 299.233 C 324.000 299.472,324.218 299.594,324.485 299.505 C 324.752 299.416,325.358 299.761,325.831 300.272 C 326.305 300.782,326.896 301.200,327.146 301.200 C 327.396 301.200,327.600 301.380,327.600 301.600 C 327.600 301.820,327.960 302.000,328.400 302.000 C 328.840 302.000,329.200 302.192,329.200 302.427 C 329.200 302.678,329.571 302.750,330.100 302.601 C 330.784 302.408,330.859 302.445,330.411 302.752 C 329.913 303.095,329.943 303.203,330.611 303.456 C 332.468 304.160,332.400 302.771,332.400 340.214 C 332.400 371.580,332.331 375.659,331.800 375.455 C 331.470 375.329,331.200 375.394,331.200 375.600 C 331.200 375.806,330.930 375.871,330.600 375.745 C 330.270 375.618,330.000 375.733,330.000 376.000 C 330.000 376.267,329.743 376.387,329.429 376.267 C 329.115 376.146,328.636 376.315,328.365 376.642 C 328.094 376.969,327.636 377.146,327.349 377.036 C 327.061 376.925,326.719 377.007,326.589 377.217 C 326.459 377.428,326.018 377.600,325.610 377.600 C 325.201 377.600,324.807 377.778,324.733 377.997 C 324.660 378.215,324.105 378.434,323.500 378.484 C 322.895 378.534,322.400 378.715,322.400 378.887 C 322.400 379.059,322.059 379.200,321.643 379.200 C 321.226 379.200,320.791 379.448,320.674 379.751 C 320.536 380.110,320.085 380.229,319.372 380.093 C 318.616 379.948,318.368 380.024,318.564 380.342 C 318.749 380.641,318.485 380.800,317.800 380.800 C 317.204 380.800,316.859 380.972,317.000 381.200 C 317.147 381.438,316.671 381.600,315.824 381.600 C 315.041 381.600,314.400 381.780,314.400 382.000 C 314.400 382.220,314.128 382.400,313.795 382.400 C 313.462 382.400,312.832 382.580,312.395 382.800 C 311.958 383.020,311.242 383.380,310.805 383.600 C 310.368 383.820,309.648 384.000,309.205 384.000 C 308.762 384.000,308.400 384.253,308.400 384.563 C 308.400 384.929,308.120 385.052,307.598 384.915 C 307.157 384.800,306.550 384.909,306.250 385.159 C 305.528 385.758,203.067 385.796,202.867 385.197 C 202.793 384.979,202.208 384.800,201.567 384.800 C 200.925 384.800,200.400 384.620,200.400 384.400 C 200.400 384.180,200.040 384.000,199.600 384.000 C 199.160 384.000,198.800 383.859,198.800 383.688 C 198.800 383.516,198.305 383.160,197.700 382.897 C 196.357 382.312,193.877 380.814,192.905 380.000 C 192.511 379.670,191.651 379.130,190.994 378.800 C 190.337 378.470,189.562 377.975,189.271 377.700 C 188.981 377.425,188.415 377.200,188.014 377.200 C 187.613 377.200,187.172 376.904,187.033 376.543 C 186.895 376.181,186.664 376.003,186.520 376.146 C 186.377 376.290,185.850 376.023,185.350 375.553 C 184.835 375.069,184.172 374.802,183.820 374.937 C 183.433 375.085,183.200 374.954,183.200 374.587 C 183.200 374.264,182.880 374.000,182.488 374.000 C 182.097 374.000,181.517 373.640,181.200 373.200 C 180.883 372.760,180.303 372.400,179.912 372.400 C 179.520 372.400,179.200 372.220,179.200 372.000 C 179.200 371.780,178.880 371.600,178.488 371.600 C 178.097 371.600,177.517 371.240,177.200 370.800 C 176.883 370.360,176.303 370.000,175.912 370.000 C 175.520 370.000,175.200 369.820,175.200 369.600 C 175.200 369.380,174.930 369.200,174.600 369.200 C 174.270 369.200,174.000 369.020,174.000 368.800 C 174.000 368.580,173.730 368.400,173.400 368.400 C 173.070 368.400,172.800 368.220,172.800 368.000 C 172.800 367.780,172.530 367.600,172.200 367.600 C 171.870 367.600,171.600 367.420,171.600 367.200 C 171.600 366.980,171.322 366.800,170.983 366.800 C 170.644 366.800,169.980 366.440,169.508 366.000 C 169.036 365.560,168.413 365.200,168.125 365.200 C 167.836 365.200,167.600 365.020,167.600 364.800 C 167.600 364.580,167.268 364.400,166.862 364.400 C 166.456 364.400,165.830 364.075,165.471 363.678 C 165.111 363.281,164.183 362.707,163.409 362.403 C 162.634 362.099,162.000 361.726,162.000 361.574 C 162.000 361.422,161.460 361.073,160.800 360.800 C 160.140 360.527,159.600 360.150,159.600 359.964 C 159.600 359.778,159.344 359.723,159.031 359.843 C 158.718 359.964,158.088 359.688,157.631 359.231 C 157.174 358.774,156.620 358.400,156.400 358.400 C 156.180 358.400,156.000 358.220,156.000 358.000 C 156.000 357.780,155.722 357.600,155.383 357.600 C 155.044 357.600,154.380 357.240,153.908 356.800 C 153.436 356.360,152.712 356.000,152.301 356.000 C 151.889 356.000,151.664 355.820,151.800 355.600 C 151.936 355.380,151.677 355.200,151.224 355.200 C 150.771 355.200,150.400 355.009,150.400 354.776 C 150.400 354.543,150.220 354.464,150.000 354.600 C 149.780 354.736,149.600 354.567,149.600 354.224 C 149.600 353.867,149.258 353.600,148.800 353.600 C 148.360 353.600,148.000 353.420,148.000 353.200 C 148.000 352.980,147.640 352.800,147.200 352.800 C 146.760 352.800,146.400 352.642,146.400 352.449 C 146.400 352.255,145.860 351.873,145.200 351.600 C 144.540 351.327,144.000 350.945,144.000 350.751 C 144.000 350.558,143.655 350.400,143.233 350.400 C 142.812 350.400,142.407 350.258,142.333 350.086 C 142.063 349.447,139.592 347.958,139.203 348.198 C 138.981 348.335,138.799 348.212,138.797 347.924 C 138.793 347.278,136.852 346.329,136.244 346.675 C 136.000 346.814,135.928 346.787,136.084 346.614 C 136.446 346.212,131.676 343.106,131.174 343.416 C 130.968 343.543,130.800 343.372,130.800 343.036 C 130.800 342.657,130.572 342.513,130.200 342.655 C 129.870 342.782,129.600 342.686,129.600 342.443 C 129.600 342.199,129.330 342.000,129.000 342.000 C 128.670 342.000,128.400 341.820,128.400 341.600 C 128.400 341.380,128.040 341.200,127.600 341.200 C 127.160 341.200,126.800 341.020,126.800 340.800 C 126.800 340.580,126.558 340.400,126.262 340.400 C 125.966 340.400,125.398 340.040,125.000 339.600 C 124.602 339.160,124.034 338.800,123.738 338.800 C 123.442 338.800,123.200 338.620,123.200 338.400 C 123.200 338.180,122.930 338.000,122.600 338.000 C 122.270 338.000,121.640 337.640,121.200 337.200 C 120.760 336.760,120.130 336.400,119.800 336.400 C 119.470 336.400,119.200 336.220,119.200 336.000 C 119.200 335.780,118.964 335.600,118.675 335.600 C 118.387 335.600,117.764 335.240,117.292 334.800 C 116.820 334.360,116.156 334.000,115.817 334.000 C 115.478 334.000,115.200 333.820,115.200 333.600 C 115.200 333.380,114.964 333.200,114.675 333.200 C 114.387 333.200,113.764 332.840,113.292 332.400 C 112.820 331.960,112.186 331.600,111.883 331.600 C 111.581 331.600,111.198 331.465,111.033 331.300 C 110.868 331.135,110.583 331.000,110.400 331.000 C 110.217 331.000,109.737 330.639,109.334 330.197 C 108.930 329.756,108.060 329.126,107.400 328.797 C 106.740 328.469,105.962 327.975,105.671 327.700 C 105.381 327.425,104.815 327.200,104.414 327.200 C 104.013 327.200,103.578 326.919,103.446 326.575 C 103.314 326.231,103.048 326.046,102.856 326.165 C 102.664 326.284,102.179 326.019,101.779 325.576 C 101.378 325.134,100.807 324.865,100.510 324.979 C 100.213 325.093,99.867 324.920,99.742 324.593 C 99.617 324.267,99.213 324.000,98.846 324.000 C 98.478 324.000,97.917 323.640,97.600 323.200 C 97.283 322.760,96.703 322.400,96.312 322.400 C 95.920 322.400,95.600 322.209,95.600 321.976 C 95.600 321.743,95.432 321.657,95.226 321.784 C 95.020 321.911,94.398 321.562,93.844 321.008 C 93.290 320.453,92.558 320.000,92.218 320.000 C 91.878 320.000,91.600 319.820,91.600 319.600 C 91.600 319.380,91.330 319.200,91.000 319.200 C 90.670 319.200,90.400 319.020,90.400 318.800 C 90.400 318.580,90.130 318.400,89.800 318.400 C 89.470 318.400,89.200 318.220,89.200 318.000 C 89.200 317.780,88.930 317.600,88.600 317.600 C 88.270 317.600,88.000 317.420,88.000 317.200 C 88.000 316.980,87.722 316.800,87.383 316.800 C 87.044 316.800,86.380 316.440,85.908 316.000 C 85.436 315.560,84.813 315.200,84.525 315.200 C 84.236 315.200,84.000 315.020,84.000 314.800 C 84.000 314.580,83.668 314.400,83.262 314.400 C 82.856 314.400,82.230 314.075,81.871 313.678 C 81.511 313.281,80.583 312.707,79.809 312.403 C 79.034 312.099,78.400 311.726,78.400 311.574 C 78.400 311.422,77.860 311.073,77.200 310.800 C 76.540 310.527,76.000 310.134,76.000 309.928 C 76.000 309.722,75.840 309.652,75.644 309.773 C 75.254 310.014,72.000 307.028,72.000 306.429 C 72.000 306.224,71.763 305.819,71.473 305.529 C 70.800 304.854,70.000 302.565,70.000 301.317 C 70.000 300.776,69.824 300.461,69.600 300.600 C 69.380 300.736,69.200 300.657,69.200 300.424 C 69.200 300.191,69.380 300.000,69.600 300.000 C 69.823 300.000,70.000 298.925,70.000 297.576 C 70.000 296.063,70.150 295.246,70.400 295.400 C 70.620 295.536,70.800 295.364,70.800 295.018 C 70.800 294.301,71.604 292.744,72.200 292.306 C 72.420 292.144,72.451 292.009,72.269 292.006 C 72.087 292.003,72.493 291.534,73.170 290.964 C 73.848 290.393,74.284 289.736,74.139 289.502 C 73.990 289.261,74.065 289.193,74.311 289.345 C 74.549 289.492,74.858 289.430,74.996 289.207 C 75.134 288.983,75.597 288.800,76.024 288.800 C 76.451 288.800,76.800 288.620,76.800 288.400 C 76.800 288.180,77.160 288.000,77.600 288.000 C 78.040 288.000,78.400 287.820,78.400 287.600 C 78.400 287.363,79.867 287.200,82.000 287.200 C 84.133 287.200,85.600 287.363,85.600 287.600 C 85.600 287.820,85.984 288.000,86.453 288.000 C 86.922 288.000,87.909 288.373,88.645 288.828 C 89.382 289.284,90.169 289.543,90.393 289.405 C 90.617 289.266,90.804 289.388,90.810 289.676 C 90.820 290.234,93.240 291.600,94.216 291.600 C 94.537 291.600,94.800 291.780,94.800 292.000 C 94.800 292.220,95.160 292.400,95.600 292.400 C 96.040 292.400,96.400 292.580,96.400 292.800 C 96.400 293.020,96.636 293.200,96.925 293.200 C 97.213 293.200,97.836 293.560,98.308 294.000 C 98.780 294.440,99.444 294.800,99.783 294.800 C 100.122 294.800,100.400 294.980,100.400 295.200 C 100.400 295.420,100.760 295.600,101.200 295.600 C 101.640 295.600,102.000 295.780,102.000 296.000 C 102.000 296.220,102.360 296.400,102.800 296.400 C 103.240 296.400,103.600 296.580,103.600 296.800 C 103.600 297.020,104.061 297.200,104.624 297.200 C 105.204 297.200,105.540 297.373,105.400 297.600 C 105.264 297.820,105.441 298.000,105.793 298.000 C 106.145 298.000,106.820 298.360,107.292 298.800 C 107.764 299.240,108.387 299.600,108.675 299.600 C 108.964 299.600,109.200 299.791,109.200 300.024 C 109.200 300.257,109.360 300.349,109.555 300.228 C 109.750 300.107,110.132 300.277,110.404 300.604 C 110.676 300.932,111.146 301.200,111.449 301.200 C 111.752 301.200,112.000 301.380,112.000 301.600 C 112.000 301.820,112.360 302.000,112.800 302.000 C 113.240 302.000,113.600 302.180,113.600 302.400 C 113.600 302.620,113.960 302.800,114.400 302.800 C 114.840 302.800,115.200 302.980,115.200 303.200 C 115.200 303.420,115.560 303.600,116.000 303.600 C 116.440 303.600,116.800 303.751,116.800 303.936 C 116.800 304.442,118.797 305.249,119.292 304.943 C 119.537 304.791,119.609 304.862,119.458 305.107 C 119.300 305.361,120.133 305.991,121.496 306.650 C 122.763 307.262,123.910 307.921,124.045 308.115 C 124.179 308.309,124.359 308.427,124.445 308.375 C 124.783 308.173,126.400 308.877,126.400 309.227 C 126.400 309.432,126.760 309.600,127.200 309.600 C 127.640 309.600,128.000 309.780,128.000 310.000 C 128.000 310.220,128.270 310.400,128.600 310.400 C 128.930 310.400,129.200 310.580,129.200 310.800 C 129.200 311.020,129.661 311.200,130.224 311.200 C 130.821 311.200,131.142 311.371,130.994 311.610 C 130.855 311.835,130.889 311.975,131.070 311.921 C 131.540 311.779,134.000 312.935,134.000 313.298 C 134.000 313.464,134.444 313.600,134.986 313.600 C 135.562 313.600,136.150 313.932,136.400 314.400 C 136.635 314.840,137.092 315.200,137.414 315.200 C 137.736 315.200,138.000 315.380,138.000 315.600 C 138.000 315.820,138.360 316.000,138.800 316.000 C 139.240 316.000,139.600 316.180,139.600 316.400 C 139.600 316.620,139.960 316.800,140.400 316.800 C 140.840 316.800,141.201 316.935,141.203 317.100 C 141.207 317.465,143.149 318.400,143.903 318.400 C 144.202 318.400,144.336 318.580,144.200 318.800 C 144.064 319.020,144.323 319.200,144.776 319.200 C 145.229 319.200,145.600 319.399,145.600 319.643 C 145.600 319.886,145.855 319.988,146.167 319.868 C 146.479 319.748,146.818 319.870,146.921 320.139 C 147.024 320.407,147.984 321.071,149.054 321.614 C 150.124 322.156,151.060 322.735,151.133 322.900 C 151.207 323.065,151.612 323.200,152.033 323.200 C 152.455 323.200,152.800 323.391,152.800 323.624 C 152.800 323.857,152.965 323.945,153.168 323.820 C 153.370 323.695,153.777 323.834,154.072 324.129 C 154.367 324.424,155.101 324.789,155.704 324.940 C 156.307 325.091,156.800 325.392,156.800 325.608 C 156.800 325.823,157.160 326.000,157.600 326.000 C 158.040 326.000,158.400 326.146,158.400 326.325 C 158.400 326.504,158.997 326.885,159.726 327.171 C 160.827 327.603,161.157 328.039,161.674 329.746 C 162.017 330.875,162.468 331.766,162.676 331.724 C 162.884 331.683,162.977 332.178,162.882 332.824 C 162.779 333.525,162.889 334.000,163.155 334.000 C 163.400 334.000,163.600 334.320,163.600 334.712 C 163.600 335.103,163.960 335.683,164.400 336.000 C 164.840 336.317,165.200 336.820,165.200 337.117 C 165.200 337.774,166.173 338.800,166.795 338.800 C 167.044 338.800,167.153 338.952,167.038 339.138 C 166.798 339.527,169.313 342.400,169.895 342.400 C 170.107 342.400,170.846 342.940,171.537 343.600 C 172.228 344.260,173.064 344.800,173.396 344.800 C 173.728 344.800,174.000 344.980,174.000 345.200 C 174.000 345.420,174.270 345.600,174.600 345.600 C 174.930 345.600,175.200 345.780,175.200 346.000 C 175.200 346.220,175.650 346.400,176.200 346.400 C 176.750 346.400,177.200 346.580,177.200 346.800 C 177.200 347.020,177.571 347.200,178.024 347.200 C 178.477 347.200,178.736 347.380,178.600 347.600 C 178.453 347.838,178.921 348.000,179.753 348.000 C 180.523 348.000,181.264 348.180,181.400 348.400 C 181.548 348.639,184.137 348.800,187.824 348.800 C 191.675 348.800,194.000 348.649,194.000 348.400 C 194.000 348.180,194.900 348.000,196.000 348.000 C 197.100 348.000,198.000 347.820,198.000 347.600 C 198.000 347.380,198.720 347.200,199.600 347.200 C 200.480 347.200,201.200 347.020,201.200 346.800 C 201.200 346.580,201.819 346.400,202.576 346.400 C 203.333 346.400,204.064 346.220,204.200 346.000 C 204.336 345.780,204.977 345.600,205.624 345.600 C 206.271 345.600,206.800 345.420,206.800 345.200 C 206.800 344.980,207.430 344.800,208.200 344.800 C 208.970 344.800,209.600 344.620,209.600 344.400 C 209.600 344.180,210.320 344.000,211.200 344.000 C 212.080 344.000,212.800 343.820,212.800 343.600 C 212.800 343.380,213.419 343.200,214.176 343.200 C 214.933 343.200,215.664 343.020,215.800 342.800 C 215.936 342.580,216.577 342.400,217.224 342.400 C 217.871 342.400,218.400 342.220,218.400 342.000 C 218.400 341.780,219.003 341.600,219.740 341.600 C 220.913 341.600,222.249 341.289,224.400 340.513 C 224.730 340.394,225.360 340.245,225.800 340.182 C 228.740 339.760,230.000 339.450,230.000 339.147 C 230.000 338.956,230.619 338.800,231.376 338.800 C 232.133 338.800,232.864 338.620,233.000 338.400 C 233.136 338.180,233.856 338.000,234.600 338.000 C 235.344 338.000,236.064 337.820,236.200 337.600 C 236.336 337.380,236.941 337.200,237.544 337.200 C 238.147 337.200,238.819 337.021,239.038 336.802 C 239.256 336.584,239.922 336.364,240.518 336.315 C 241.113 336.266,241.600 336.085,241.600 335.913 C 241.600 335.741,242.320 335.600,243.200 335.600 C 244.080 335.600,244.800 335.420,244.800 335.200 C 244.800 334.980,245.419 334.800,246.176 334.800 C 246.933 334.800,247.664 334.620,247.800 334.400 C 247.936 334.180,248.566 334.000,249.200 334.000 C 249.834 334.000,250.464 333.820,250.600 333.600 C 250.736 333.380,251.467 333.200,252.224 333.200 C 252.981 333.200,253.600 333.020,253.600 332.800 C 253.600 332.580,254.241 332.400,255.024 332.400 C 255.807 332.400,256.357 332.255,256.247 332.077 C 256.138 331.899,256.802 331.710,257.724 331.657 C 258.646 331.603,259.460 331.389,259.533 331.180 C 259.607 330.971,260.156 330.800,260.753 330.800 C 261.351 330.800,262.031 330.609,262.265 330.375 C 262.499 330.141,263.255 329.934,263.945 329.914 C 264.635 329.894,265.200 329.726,265.200 329.539 C 265.200 329.353,265.843 329.200,266.629 329.200 C 268.763 329.200,270.020 327.087,268.682 325.748 C 268.527 325.593,268.400 324.957,268.400 324.333 C 268.400 323.710,268.220 323.200,268.000 323.200 C 267.780 323.200,267.600 322.480,267.600 321.600 C 267.600 320.720,267.420 320.000,267.200 320.000 C 266.980 320.000,266.800 319.280,266.800 318.400 C 266.800 317.520,266.620 316.800,266.400 316.800 C 266.180 316.800,266.000 316.260,266.000 315.600 C 266.000 314.444,265.933 314.400,264.200 314.400 C 263.210 314.400,262.400 314.580,262.400 314.800 C 262.400 315.020,261.781 315.200,261.024 315.200 C 260.267 315.200,259.536 315.380,259.400 315.600 C 259.264 315.820,258.638 316.000,258.010 316.000 C 257.381 316.000,256.807 316.172,256.733 316.382 C 256.660 316.593,255.925 316.810,255.100 316.864 C 254.275 316.919,253.600 317.107,253.600 317.282 C 253.600 317.457,252.880 317.600,252.000 317.600 C 251.120 317.600,250.400 317.780,250.400 318.000 C 250.400 318.220,249.781 318.400,249.024 318.400 C 248.267 318.400,247.536 318.580,247.400 318.800 C 247.264 319.020,246.724 319.200,246.200 319.200 C 245.676 319.200,245.136 319.380,245.000 319.600 C 244.864 319.820,244.133 320.000,243.376 320.000 C 242.619 320.000,242.000 320.180,242.000 320.400 C 242.000 320.620,241.280 320.800,240.400 320.800 C 239.520 320.800,238.800 320.980,238.800 321.200 C 238.800 321.420,238.181 321.600,237.424 321.600 C 236.667 321.600,235.936 321.780,235.800 322.000 C 235.664 322.220,235.023 322.400,234.376 322.400 C 233.729 322.400,233.200 322.580,233.200 322.800 C 233.200 323.020,232.469 323.200,231.576 323.200 C 230.596 323.200,230.051 323.358,230.200 323.600 C 230.349 323.841,229.812 324.000,228.847 324.000 C 227.967 324.000,227.136 324.180,227.000 324.400 C 226.864 324.620,226.133 324.800,225.376 324.800 C 224.619 324.800,224.000 325.001,224.000 325.247 C 224.000 325.501,223.645 325.600,223.176 325.478 C 222.673 325.346,222.266 325.482,222.135 325.826 C 221.984 326.220,221.439 326.344,220.332 326.236 C 219.251 326.131,218.802 326.228,218.922 326.541 C 219.034 326.832,218.569 327.007,217.647 327.020 C 216.849 327.030,215.837 327.192,215.398 327.379 C 214.959 327.566,214.212 327.682,213.738 327.636 C 213.264 327.590,212.760 327.741,212.617 327.972 C 212.455 328.235,212.627 328.294,213.079 328.132 C 213.476 327.989,213.659 328.028,213.486 328.217 C 213.313 328.407,212.530 328.518,211.745 328.466 C 210.961 328.413,210.080 328.568,209.787 328.811 C 209.495 329.053,208.703 329.268,208.028 329.287 C 207.352 329.306,206.800 329.474,206.800 329.661 C 206.800 329.847,206.181 330.000,205.424 330.000 C 204.667 330.000,203.936 330.180,203.800 330.400 C 203.664 330.620,203.023 330.800,202.376 330.800 C 201.729 330.800,201.200 330.980,201.200 331.200 C 201.200 331.420,200.480 331.600,199.600 331.600 C 198.720 331.600,198.000 331.780,198.000 332.000 C 198.000 332.220,197.385 332.400,196.633 332.400 C 195.882 332.400,195.207 332.580,195.133 332.799 C 195.060 333.019,194.227 333.228,193.283 333.265 C 192.338 333.302,191.473 333.483,191.359 333.666 C 191.065 334.142,184.897 334.081,184.600 333.600 C 184.464 333.380,183.953 333.200,183.465 333.200 C 182.976 333.200,182.317 332.840,182.000 332.400 C 181.683 331.960,181.185 331.600,180.894 331.600 C 180.265 331.600,178.400 329.818,178.400 329.218 C 178.400 328.988,178.220 328.800,178.000 328.800 C 177.780 328.800,177.600 328.519,177.600 328.176 C 177.600 327.833,177.465 327.635,177.300 327.734 C 177.135 327.834,176.768 327.665,176.484 327.358 C 176.187 327.036,176.144 326.800,176.384 326.800 C 176.613 326.800,176.800 326.609,176.800 326.376 C 176.800 326.143,176.620 326.064,176.400 326.200 C 176.167 326.344,176.000 325.945,176.000 325.247 C 176.000 324.587,175.820 323.936,175.600 323.800 C 175.046 323.458,175.090 320.400,175.649 320.400 C 175.959 320.400,175.944 320.215,175.600 319.800 C 175.256 319.385,175.241 319.200,175.551 319.200 C 175.798 319.200,176.000 318.840,176.000 318.400 C 176.000 317.960,176.180 317.600,176.400 317.600 C 176.620 317.600,176.800 317.240,176.800 316.800 C 176.800 316.360,176.980 316.000,177.200 316.000 C 177.420 316.000,177.600 315.725,177.600 315.389 C 177.600 314.611,180.989 311.200,181.763 311.200 C 182.083 311.200,182.468 310.816,182.617 310.347 C 182.834 309.664,182.964 309.604,183.274 310.047 C 183.573 310.474,183.707 310.486,183.864 310.100 C 183.975 309.825,184.592 309.600,185.233 309.600 C 185.875 309.600,186.400 309.420,186.400 309.200 C 186.400 308.980,186.919 308.800,187.554 308.800 C 188.189 308.800,189.217 308.536,189.839 308.214 C 190.598 307.820,191.055 307.765,191.229 308.047 C 191.391 308.310,191.575 308.241,191.720 307.865 C 191.868 307.478,192.256 307.342,192.802 307.485 C 193.270 307.607,194.046 307.517,194.526 307.284 C 195.007 307.051,195.940 306.747,196.600 306.608 C 200.116 305.870,200.594 305.718,200.528 305.359 C 200.488 305.143,201.051 305.037,201.781 305.122 C 202.509 305.207,203.227 305.079,203.376 304.838 C 203.525 304.597,204.231 304.400,204.944 304.400 C 205.657 304.400,206.411 304.231,206.620 304.025 C 206.829 303.818,207.450 303.576,208.000 303.486 C 208.550 303.396,209.270 303.207,209.600 303.066 C 209.930 302.925,210.600 302.752,211.090 302.682 C 211.579 302.611,212.104 302.429,212.256 302.277 C 212.409 302.125,213.133 302.000,213.867 302.000 C 214.600 302.000,215.200 301.820,215.200 301.600 C 215.200 301.380,215.905 301.200,216.767 301.200 C 217.628 301.200,218.403 300.992,218.488 300.737 C 218.573 300.482,219.218 300.290,219.921 300.310 C 220.624 300.330,221.200 300.179,221.200 299.973 C 221.200 299.768,221.830 299.600,222.600 299.600 C 223.370 299.600,224.000 299.420,224.000 299.200 C 224.000 298.980,224.630 298.800,225.400 298.800 C 226.170 298.800,226.800 298.620,226.800 298.400 C 226.800 298.180,227.520 298.000,228.400 298.000 C 229.280 298.000,230.000 297.820,230.000 297.600 C 230.000 297.380,230.720 297.200,231.600 297.200 C 232.480 297.200,233.200 297.020,233.200 296.800 C 233.200 296.580,233.740 296.400,234.400 296.400 C 235.060 296.400,235.600 296.220,235.600 296.000 C 235.600 295.780,236.320 295.600,237.200 295.600 C 238.080 295.600,238.800 295.420,238.800 295.200 C 238.800 294.980,239.430 294.800,240.200 294.800 C 240.970 294.800,241.600 294.620,241.600 294.400 C 241.600 294.180,242.320 294.000,243.200 294.000 C 244.080 294.000,244.800 293.820,244.800 293.600 C 244.800 293.380,245.340 293.200,246.000 293.200 C 246.660 293.200,247.200 293.020,247.200 292.800 C 247.200 292.580,247.920 292.400,248.800 292.400 C 249.680 292.400,250.400 292.220,250.400 292.000 C 250.400 291.780,251.131 291.600,252.024 291.600 C 253.149 291.600,253.560 291.458,253.362 291.138 C 253.194 290.866,253.251 290.784,253.502 290.939 C 254.073 291.292,258.023 290.361,257.760 289.935 C 257.646 289.751,257.743 289.600,257.976 289.600 C 258.209 289.600,258.403 289.825,258.406 290.100 C 258.411 290.484,258.483 290.488,258.718 290.118 C 258.887 289.854,259.694 289.592,260.512 289.537 C 261.330 289.482,262.000 289.293,262.000 289.118 C 262.000 288.943,262.705 288.800,263.567 288.800 C 264.428 288.800,265.197 288.609,265.275 288.375 C 265.578 287.465,298.569 286.656,299.667 287.532 C 300.070 287.854,301.089 288.018,302.239 287.947 " stroke="none" fill="#7c3cbc" fill-rule="evenodd"></path><path id="path1" d="M226.093 138.400 C 226.093 139.170,226.175 139.485,226.276 139.100 C 226.376 138.715,226.376 138.085,226.276 137.700 C 226.175 137.315,226.093 137.630,226.093 138.400 M226.093 142.400 C 226.093 143.170,226.175 143.485,226.276 143.100 C 226.376 142.715,226.376 142.085,226.276 141.700 C 226.175 141.315,226.093 141.630,226.093 142.400 M226.893 149.200 C 226.893 149.970,226.975 150.285,227.076 149.900 C 227.176 149.515,227.176 148.885,227.076 148.500 C 226.975 148.115,226.893 148.430,226.893 149.200 M258.500 159.091 C 259.325 159.178,260.675 159.178,261.500 159.091 C 262.325 159.005,261.650 158.934,260.000 158.934 C 258.350 158.934,257.675 159.005,258.500 159.091 M248.000 276.953 C 248.000 277.293,250.034 277.469,250.233 277.146 C 250.351 276.956,249.897 276.800,249.224 276.800 C 248.551 276.800,248.000 276.869,248.000 276.953 " stroke="none" fill="#803cbc" fill-rule="evenodd"></path><path id="path2" d="M226.093 138.400 C 226.093 139.170,226.175 139.485,226.276 139.100 C 226.376 138.715,226.376 138.085,226.276 137.700 C 226.175 137.315,226.093 137.630,226.093 138.400 M226.093 142.400 C 226.093 143.170,226.175 143.485,226.276 143.100 C 226.376 142.715,226.376 142.085,226.276 141.700 C 226.175 141.315,226.093 141.630,226.093 142.400 M226.893 149.200 C 226.893 149.970,226.975 150.285,227.076 149.900 C 227.176 149.515,227.176 148.885,227.076 148.500 C 226.975 148.115,226.893 148.430,226.893 149.200 M258.500 159.091 C 259.325 159.178,260.675 159.178,261.500 159.091 C 262.325 159.005,261.650 158.934,260.000 158.934 C 258.350 158.934,257.675 159.005,258.500 159.091 M248.000 276.953 C 248.000 277.293,250.034 277.469,250.233 277.146 C 250.351 276.956,249.897 276.800,249.224 276.800 C 248.551 276.800,248.000 276.869,248.000 276.953 " stroke="none" fill="#803cbc" fill-rule="evenodd"></path><path id="path3" d="M226.093 138.400 C 226.093 139.170,226.175 139.485,226.276 139.100 C 226.376 138.715,226.376 138.085,226.276 137.700 C 226.175 137.315,226.093 137.630,226.093 138.400 M226.093 142.400 C 226.093 143.170,226.175 143.485,226.276 143.100 C 226.376 142.715,226.376 142.085,226.276 141.700 C 226.175 141.315,226.093 141.630,226.093 142.400 M226.893 149.200 C 226.893 149.970,226.975 150.285,227.076 149.900 C 227.176 149.515,227.176 148.885,227.076 148.500 C 226.975 148.115,226.893 148.430,226.893 149.200 M258.500 159.091 C 259.325 159.178,260.675 159.178,261.500 159.091 C 262.325 159.005,261.650 158.934,260.000 158.934 C 258.350 158.934,257.675 159.005,258.500 159.091 M248.000 276.953 C 248.000 277.293,250.034 277.469,250.233 277.146 C 250.351 276.956,249.897 276.800,249.224 276.800 C 248.551 276.800,248.000 276.869,248.000 276.953 " stroke="none" fill="#803cbc" fill-rule="evenodd"></path><path id="path4" d="M226.093 138.400 C 226.093 139.170,226.175 139.485,226.276 139.100 C 226.376 138.715,226.376 138.085,226.276 137.700 C 226.175 137.315,226.093 137.630,226.093 138.400 M226.093 142.400 C 226.093 143.170,226.175 143.485,226.276 143.100 C 226.376 142.715,226.376 142.085,226.276 141.700 C 226.175 141.315,226.093 141.630,226.093 142.400 M226.893 149.200 C 226.893 149.970,226.975 150.285,227.076 149.900 C 227.176 149.515,227.176 148.885,227.076 148.500 C 226.975 148.115,226.893 148.430,226.893 149.200 M258.500 159.091 C 259.325 159.178,260.675 159.178,261.500 159.091 C 262.325 159.005,261.650 158.934,260.000 158.934 C 258.350 158.934,257.675 159.005,258.500 159.091 M248.000 276.953 C 248.000 277.293,250.034 277.469,250.233 277.146 C 250.351 276.956,249.897 276.800,249.224 276.800 C 248.551 276.800,248.000 276.869,248.000 276.953 " stroke="none" fill="#803cbc" fill-rule="evenodd"></path></g></svg>