<?xml version="1.0" encoding="UTF-8"?>
<!DOCTYPE svg PUBLIC "-//W3C//DTD SVG 1.1//EN" 
"http://www.w3.org/Graphics/SVG/1.1/DTD/svg11.dtd">
<svg xmlns="http://www.w3.org/2000/svg" id="icg_sayad_Transfer" version="1.1" width="512px" height="512px" style="shape-rendering:geometricPrecision; text-rendering:geometricPrecision; image-rendering:optimizeQuality; fill-rule:evenodd; clip-rule:evenodd" xmlns:xlink="http://www.w3.org/1999/xlink">
<g><path style="opacity:1" fill="#366fc0" d="M 72.5,251.5 C 72.9382,251.565 73.2716,251.399 73.5,251C 72.8351,188.069 72.1684,125.236 71.5,62.5C 63.4931,62.3336 55.4931,62.5003 47.5,63C 32.729,65.9412 22.729,74.4412 17.5,88.5C 15.8235,89.1834 15.1568,90.5168 15.5,92.5C 14.3557,185.157 14.189,277.823 15,370.5C 24.9401,361.116 36.7734,355.949 50.5,355C 57.4921,354.5 64.4921,354.334 71.5,354.5C 71.3334,327.831 71.5,301.165 72,274.5C 72.7475,272.249 74.2475,270.916 76.5,270.5C 77.6316,271.354 78.965,271.354 80.5,270.5C 83.6421,270.799 85.8088,272.466 87,275.5C 87.5,301.831 87.6666,328.165 87.5,354.5C 219.5,354.667 351.5,354.5 483.5,354C 491.12,350.702 495.287,344.869 496,336.5C 496.818,249.152 496.651,161.819 495.5,74.5C 495.525,70.8602 493.858,68.5269 490.5,67.5C 488.809,66.1363 487.142,64.803 485.5,63.5C 485.082,62.7784 484.416,62.2784 483.5,62C 399.332,61.1677 315.332,61.3343 231.5,62.5C 224.733,61.3176 222.233,57.3176 224,50.5C 225.167,49.3333 226.333,48.1667 227.5,47C 313.167,46.3333 398.833,46.3333 484.5,47C 498.25,50.5855 507.25,59.0855 511.5,72.5C 511.5,163.5 511.5,254.5 511.5,345.5C 507.572,358.592 498.905,366.759 485.5,370C 433.834,370.5 382.168,370.667 330.5,370.5C 330.667,387.503 330.5,404.503 330,421.5C 324.112,448.03 307.612,462.363 280.5,464.5C 223.001,463.667 165.335,463.167 107.5,463C 105.313,461.975 103.646,460.475 102.5,458.5C 101.341,455.747 101.841,453.081 104,450.5C 105.067,449.809 106.234,449.309 107.5,449C 167.862,448.822 228.195,448.322 288.5,447.5C 289.962,448.471 291.295,448.138 292.5,446.5C 303.448,441.547 310.448,433.213 313.5,421.5C 315.026,420.508 315.693,419.008 315.5,417C 315.486,415.615 315.152,414.449 314.5,413.5C 314.5,399.167 314.5,384.833 314.5,370.5C 226.499,370.333 138.499,370.5 50.5,371C 37.2928,372.848 27.1261,379.348 20,390.5C 18.5263,393.756 17.3597,397.089 16.5,400.5C 15.2227,401.694 14.5561,403.36 14.5,405.5C 14.5068,407.369 14.8401,409.036 15.5,410.5C 16.96,430.797 27.6266,443.297 47.5,448C 59.1667,448.333 70.8333,448.667 82.5,449C 86.0067,450.33 87.6734,452.83 87.5,456.5C 86.7811,458.091 85.7811,459.591 84.5,461C 84.7284,461.399 85.0618,461.565 85.5,461.5C 85.0472,462.458 84.3805,463.292 83.5,464C 69.4744,464.762 55.4744,464.596 41.5,463.5C 39.7943,461.464 37.461,460.464 34.5,460.5C 20.7405,455.744 10.7405,446.744 4.5,433.5C 5.10811,431.316 4.44145,429.316 2.5,427.5C 1.3485,425.221 0.348502,422.888 -0.5,420.5C -0.5,310.5 -0.5,200.5 -0.5,90.5C 5.8809,66.6211 21.2142,52.1211 45.5,47C 98.5,46.3333 151.5,46.3333 204.5,47C 209.568,49.9825 210.735,54.1492 208,59.5C 206.829,60.8932 205.329,61.7265 203.5,62C 164.835,62.5 126.168,62.6667 87.5,62.5C 87.6667,124.834 87.5,187.168 87,249.5C 85.1706,255.158 81.3373,256.992 75.5,255C 73.5743,254.578 72.5743,253.411 72.5,251.5 Z M 245.5,109.5 C 309.167,109.5 372.833,109.5 436.5,109.5C 436.5,118.5 436.5,127.5 436.5,136.5C 372.833,136.5 309.167,136.5 245.5,136.5C 245.5,127.5 245.5,118.5 245.5,109.5 Z M 137.5,112.5 C 138.651,117.65 138.817,122.984 138,128.5C 135.269,126.939 134.103,124.606 134.5,121.5C 134.67,118.174 135.67,115.174 137.5,112.5 Z M 154.5,153.5 C 164.994,161.372 165.16,169.705 155,178.5C 154.5,170.173 154.334,161.84 154.5,153.5 Z"/></g>
<g><path style="opacity:0.4" fill="#9aeac6" d="M 231.5,62.5 C 315.332,61.3343 399.332,61.1677 483.5,62C 484.416,62.2784 485.082,62.7784 485.5,63.5C 400.862,62.5081 316.195,62.1748 231.5,62.5 Z"/></g>
<g><path style="opacity:0.796" fill="#7c743f" d="M 71.5,62.5 C 72.1684,125.236 72.8351,188.069 73.5,251C 73.2716,251.399 72.9382,251.565 72.5,251.5C 71.5009,188.669 71.1676,125.669 71.5,62.5 Z"/></g>
<g><path style="opacity:0.729" fill="#a8bc6d" d="M 490.5,67.5 C 493.858,68.5269 495.525,70.8602 495.5,74.5C 494.091,72.0283 492.424,69.695 490.5,67.5 Z"/></g>
<g><path style="opacity:1" fill="#396fc1" d="M 115.5,184.5 C 116.268,181.631 117.601,178.964 119.5,176.5C 119.842,175.662 120.508,175.328 121.5,175.5C 123.139,175.926 124.472,175.926 125.5,175.5C 129.733,177.451 134.066,179.117 138.5,180.5C 138.832,169.147 138.499,157.814 137.5,146.5C 119.731,139.286 114.231,126.619 121,108.5C 124.949,101.611 130.783,97.2774 138.5,95.5C 136.992,85.8434 140.992,81.6767 150.5,83C 153.87,85.6973 155.204,89.1973 154.5,93.5C 160.663,93.4996 166.497,94.833 172,97.5C 175.684,102.918 174.85,107.418 169.5,111C 164.476,110.998 159.476,110.498 154.5,109.5C 154.168,118.525 154.502,127.525 155.5,136.5C 175.639,143.445 182.472,157.112 176,177.5C 171.666,187.009 164.5,193.009 154.5,195.5C 156.504,205.654 152.504,210.154 142.5,209C 138.961,205.613 137.628,201.447 138.5,196.5C 132.822,196.247 127.489,194.747 122.5,192C 119.283,190.285 116.95,187.785 115.5,184.5 Z M 137.5,112.5 C 135.67,115.174 134.67,118.174 134.5,121.5C 134.103,124.606 135.269,126.939 138,128.5C 138.817,122.984 138.651,117.65 137.5,112.5 Z M 154.5,153.5 C 154.334,161.84 154.5,170.173 155,178.5C 165.16,169.705 164.994,161.372 154.5,153.5 Z"/></g>
<g><path style="opacity:0.655" fill="#96d253" d="M 17.5,88.5 C 17.0113,89.9952 16.3446,91.3285 15.5,92.5C 15.1568,90.5168 15.8235,89.1834 17.5,88.5 Z"/></g>
<g><path style="opacity:0.982" fill="#2b6fc4" d="M 442.5,93.5 C 444.147,95.3264 446.147,96.6597 448.5,97.5C 450.718,99.6514 452.052,102.318 452.5,105.5C 451.805,117.526 451.138,129.693 450.5,142C 450.57,142.765 450.903,143.265 451.5,143.5C 449.8,149.53 445.8,152.53 439.5,152.5C 371.64,151.823 303.64,151.157 235.5,150.5C 230.974,148.796 228.974,145.463 229.5,140.5C 230.331,127.673 230.831,114.673 231,101.5C 232.75,99.2657 234.25,96.9324 235.5,94.5C 304.429,93.5036 373.429,93.1702 442.5,93.5 Z M 245.5,109.5 C 245.5,118.5 245.5,127.5 245.5,136.5C 309.167,136.5 372.833,136.5 436.5,136.5C 436.5,127.5 436.5,118.5 436.5,109.5C 372.833,109.5 309.167,109.5 245.5,109.5 Z"/></g>
<g><path style="opacity:0.09" fill="#71b584" d="M 442.5,93.5 C 445.198,93.8449 447.198,95.1782 448.5,97.5C 446.147,96.6597 444.147,95.3264 442.5,93.5 Z"/></g>
<g><path style="opacity:0.843" fill="#6f6c26" d="M 235.5,94.5 C 234.25,96.9324 232.75,99.2657 231,101.5C 230.831,114.673 230.331,127.673 229.5,140.5C 229.333,127.163 229.5,113.829 230,100.5C 231.331,98.0038 233.164,96.0038 235.5,94.5 Z"/></g>
<g><path style="opacity:0.094" fill="#f6b1a6" d="M 452.5,105.5 C 452.795,118.216 452.462,130.883 451.5,143.5C 450.903,143.265 450.57,142.765 450.5,142C 451.138,129.693 451.805,117.526 452.5,105.5 Z"/></g>
<g><path style="opacity:0.667" fill="#236b47" d="M 235.5,150.5 C 303.64,151.157 371.64,151.823 439.5,152.5C 372.166,152.667 304.833,152.5 237.5,152C 236.584,151.722 235.918,151.222 235.5,150.5 Z"/></g>
<g><path style="opacity:1" fill="#456ebd" d="M 292.5,172.5 C 324.835,172.333 357.168,172.5 389.5,173C 395.421,179.395 394.421,184.395 386.5,188C 356.167,188.667 325.833,188.667 295.5,188C 288.924,186.674 286.591,182.841 288.5,176.5C 290.833,176.167 292.167,174.833 292.5,172.5 Z"/></g>
<g><path style="opacity:0.157" fill="#a3d048" d="M 121.5,175.5 C 122.833,174.167 124.167,174.167 125.5,175.5C 124.472,175.926 123.139,175.926 121.5,175.5 Z"/></g>
<g><path style="opacity:0.969" fill="#b5ac2b" d="M 292.5,172.5 C 292.167,174.833 290.833,176.167 288.5,176.5C 289.5,174.833 290.833,173.5 292.5,172.5 Z"/></g>
<g><path style="opacity:0.271" fill="#b6a86c" d="M 119.5,176.5 C 117.601,178.964 116.268,181.631 115.5,184.5C 114.777,180.61 116.11,177.944 119.5,176.5 Z"/></g>
<g><path style="opacity:1" fill="#4976be" d="M 287.5,208.5 C 289.316,206.882 290.649,204.882 291.5,202.5C 291.918,201.778 292.584,201.278 293.5,201C 325.167,200.333 356.833,200.333 388.5,201C 393.535,204.013 394.702,208.18 392,213.5C 391.097,214.701 389.931,215.535 388.5,216C 356.5,216.667 324.5,216.667 292.5,216C 289.292,214.563 287.625,212.063 287.5,208.5 Z"/></g>
<g><path style="opacity:0.996" fill="#89cd84" d="M 291.5,202.5 C 290.649,204.882 289.316,206.882 287.5,208.5C 287.87,205.733 289.204,203.733 291.5,202.5 Z"/></g>
<g><path style="opacity:1" fill="#4370be" d="M 335.5,300.5 C 335.565,300.062 335.399,299.728 335,299.5C 332.52,300.812 330.02,301.812 327.5,302.5C 322.564,302.689 318.398,301.023 315,297.5C 309.72,289.342 305.387,280.675 302,271.5C 301.311,270.643 300.478,269.977 299.5,269.5C 295.391,275.383 292.058,281.716 289.5,288.5C 287.204,289.733 285.87,291.733 285.5,294.5C 281.485,301.349 275.485,303.849 267.5,302C 263.247,298.58 262.413,294.413 265,289.5C 268.385,288.044 271.385,286.044 274,283.5C 277,276.833 280,270.167 283,263.5C 294.06,248.849 305.06,248.849 316,263.5C 319.322,271.477 323.155,279.143 327.5,286.5C 328.478,286.023 329.311,285.357 330,284.5C 333.387,275.325 337.72,266.658 343,258.5C 352.281,250.352 361.281,250.686 370,259.5C 374.525,268.079 378.859,276.746 383,285.5C 392.8,288.566 394.634,294.066 388.5,302C 379.351,303.842 372.518,300.676 368,292.5C 364.512,284.19 360.512,276.19 356,268.5C 351.473,276.221 347.473,284.221 344,292.5C 341.932,296.07 339.099,298.737 335.5,300.5 Z"/></g>
<g><path style="opacity:0.996" fill="#9ace53" d="M 80.5,270.5 C 78.965,271.354 77.6316,271.354 76.5,270.5C 77.9613,269.314 79.2946,269.314 80.5,270.5 Z"/></g>
<g><path style="opacity:0.118" fill="#bbc160" d="M 289.5,288.5 C 288.649,290.882 287.316,292.882 285.5,294.5C 285.87,291.733 287.204,289.733 289.5,288.5 Z"/></g>
<g><path style="opacity:0.016" fill="#83e192" d="M 335.5,300.5 C 333.22,302.223 330.553,302.889 327.5,302.5C 330.02,301.812 332.52,300.812 335,299.5C 335.399,299.728 335.565,300.062 335.5,300.5 Z"/></g>
<g><path style="opacity:1" fill="#216cc6" d="M 422.5,326.5 C 422.565,326.062 422.399,325.728 422,325.5C 360.402,326.165 298.902,326.832 237.5,327.5C 230.274,326.748 227.774,322.748 230,315.5C 231.319,313.513 233.152,312.346 235.5,312C 297.167,311.333 358.833,311.333 420.5,312C 426.141,314.584 427.641,318.751 425,324.5C 424.292,325.381 423.458,326.047 422.5,326.5 Z"/></g>
<g><path style="opacity:0.8" fill="#9bea85" d="M 422.5,326.5 C 361.002,327.499 299.336,327.832 237.5,327.5C 298.902,326.832 360.402,326.165 422,325.5C 422.399,325.728 422.565,326.062 422.5,326.5 Z"/></g>
<g><path style="opacity:0.459" fill="#809850" d="M 16.5,400.5 C 15.5863,403.728 15.2529,407.061 15.5,410.5C 14.8401,409.036 14.5068,407.369 14.5,405.5C 14.5561,403.36 15.2227,401.694 16.5,400.5 Z"/></g>
<g><path style="opacity:0.541" fill="#b09263" d="M 314.5,413.5 C 315.152,414.449 315.486,415.615 315.5,417C 315.693,419.008 315.026,420.508 313.5,421.5C 314.265,418.904 314.599,416.237 314.5,413.5 Z"/></g>
<g><path style="opacity:0.184" fill="#78cc7d" d="M 2.5,427.5 C 4.44145,429.316 5.10811,431.316 4.5,433.5C 3.27024,431.703 2.60357,429.703 2.5,427.5 Z"/></g>
<g><path style="opacity:0.988" fill="#99c126" d="M 292.5,446.5 C 291.295,448.138 289.962,448.471 288.5,447.5C 289.708,446.766 291.041,446.433 292.5,446.5 Z"/></g>
<g><path style="opacity:0.035" fill="#80c950" d="M 87.5,456.5 C 87.8799,458.698 87.2132,460.365 85.5,461.5C 85.0618,461.565 84.7284,461.399 84.5,461C 85.7811,459.591 86.7811,458.091 87.5,456.5 Z"/></g>
<g><path style="opacity:0.224" fill="#c3bf79" d="M 34.5,460.5 C 37.461,460.464 39.7943,461.464 41.5,463.5C 38.904,462.945 36.5707,461.945 34.5,460.5 Z"/></g>
<g><path style="opacity:0.6" fill="#c2bf25" d="M 102.5,458.5 C 103.646,460.475 105.313,461.975 107.5,463C 165.335,463.167 223.001,463.667 280.5,464.5C 222.499,464.667 164.499,464.5 106.5,464C 103.785,463.125 102.452,461.292 102.5,458.5 Z"/></g>
</svg>
