

 <svg xmlns="http://www.w3.org/2000/svg" xmlns:xlink="http://www.w3.org/1999/xlink"  



 
 width="520px" height="520px" version="1.1"
id="icg_sayadInquiry"
>
 <path id="Path_675" data-name="Path 675" d="M120,280h8.376v.882H120Zm0,0" transform="translate(-113.387 -268.979)" fill="#1b6cc7"/>
  <path id="Path_676" data-name="Path 676" d="M120,136h8.376v.882H120Zm0,0" transform="translate(-113.387 -127.743)" fill="#1b6cc7"/>
  <path id="Path_678" data-name="Path 678" d="M328,200h.882v.882H328Zm0,0" transform="translate(-309.926 -188.979)" fill="#1b6cc7"/>
  <path id="Path_679" data-name="Path 679" d="M360,200h.882v.882H360Zm0,0" transform="translate(-340.162 -188.979)" fill="#1b6cc7"/>
  <path id="Path_681" data-name="Path 681" d="M370.967,364.73l.57-.57.57.57.623-.623-.57-.57.57-.57-.623-.623-.57.57-.57-.57-.623.623.57.57-.57.57Zm0,0" transform="translate(-349.936 -342.377)" fill="#1b6cc7"/>
  <path id="Path_682" data-name="Path 682" d="M256.882,0V.882H256v.882h.882v.882h.882V1.763h.882V.882h-.882V0Zm0,0" transform="translate(-241.893)" fill="#1b6cc7"/>
  <path id="Path_683" data-name="Path 683" d="M146.645,393.322a1.323,1.323,0,1,0-1.323,1.323A1.323,1.323,0,0,0,146.645,393.322Zm-1.763,0a.441.441,0,1,1,.441.441A.441.441,0,0,1,144.882,393.322Zm0,0" transform="translate(-136.065 -370.399)" fill="#1b6cc7"/>
  <path id="Path_684" data-name="Path 684" d="M54.262,48H52.719a.441.441,0,0,0-.441.441v2.645H33.323v.882h1.763v8.817H32v.882h3.086v.882H34.2v.882H54.262a1.986,1.986,0,0,0,1.984-1.984,1.96,1.96,0,0,0-.122-.661h.122v-10.8A1.986,1.986,0,0,0,54.262,48Zm-1.1.882h1.1a1.1,1.1,0,0,1,1.1,1.1V59.8a1.971,1.971,0,0,0-1.1-.336h-1.1Zm-.882,5.731H49.193v-.882h3.086Zm1.984,7.935H35.968V51.968H52.278v.882H48.752a.441.441,0,0,0-.441.441v1.763a.441.441,0,0,0,.441.441h3.527V59.9a.441.441,0,0,0,.441.441h1.543a1.1,1.1,0,0,1,0,2.2Zm0,0" transform="translate(-30.237 -45.355)" fill="#1b6cc7"/>
  <path id="Path_685" data-name="Path 685" d="M24,104h.882v.882H24Zm0,0" transform="translate(-22.677 -98.269)" fill="#1b6cc7"/>
  <path id="Path_686" data-name="Path 686" d="M40,312h.882v.882H40Zm0,0" transform="translate(-37.796 -294.807)" fill="#1b6cc7"/>
  <path id="Path_687" data-name="Path 687" d="M0,280H.882v.882H0Zm0,0" transform="translate(0 -264.571)" fill="#1b6cc7"/>

</svg>
