
<svg xmlns="http://www.w3.org/2000/svg" id="icg_requestMoney" version="1.1" width="512px" height="512px" style="shape-rendering:geometricPrecision; text-rendering:geometricPrecision; image-rendering:optimizeQuality; fill-rule:evenodd; clip-rule:evenodd" xmlns:xlink="http://www.w3.org/1999/xlink">
<g><path style="opacity:0.994" fill="#8042b9" d="M -0.5,-0.5 C 28.1667,-0.5 56.8333,-0.5 85.5,-0.5C 85.5,4.83333 85.5,10.1667 85.5,15.5C 92.3173,15.9357 98.984,15.2691 105.5,13.5C 112.371,11.0665 119.038,8.0665 125.5,4.5C 126.298,4.04311 126.631,3.37644 126.5,2.5C 129.397,1.87096 132.064,0.870963 134.5,-0.5C 177.833,-0.5 221.167,-0.5 264.5,-0.5C 268.591,0.523724 272.591,1.85706 276.5,3.5C 277.933,5.02434 280.267,6.02434 283.5,6.5C 291.251,9.26652 297.917,13.5999 303.5,19.5C 318.245,35.748 333.579,51.5813 349.5,67C 350.094,67.4643 350.761,67.631 351.5,67.5C 404.833,67.5 458.167,67.5 511.5,67.5C 511.5,141.833 511.5,216.167 511.5,290.5C 392.167,290.5 272.833,290.5 153.5,290.5C 153.5,253.833 153.5,217.167 153.5,180.5C 152.5,180.5 151.5,180.5 150.5,180.5C 143.36,180.405 136.36,179.405 129.5,177.5C 127.182,175.044 124.182,173.711 120.5,173.5C 115.914,172.54 111.914,170.54 108.5,167.5C 106.353,165.53 104.02,163.697 101.5,162C 95.4095,161.187 90.0762,161.354 85.5,162.5C 85.5,170.833 85.5,179.167 85.5,187.5C 56.8333,187.5 28.1667,187.5 -0.5,187.5C -0.5,124.833 -0.5,62.1667 -0.5,-0.5 Z M 17.5,17.5 C 34.1667,17.5 50.8333,17.5 67.5,17.5C 67.5,68.1667 67.5,118.833 67.5,169.5C 50.8333,169.5 34.1667,169.5 17.5,169.5C 17.5,118.833 17.5,68.1667 17.5,17.5 Z M 289.5,30.5 C 290.5,32.1667 291.833,33.5 293.5,34.5C 303.833,45.5 314.5,56.1667 325.5,66.5C 303.004,67.663 280.337,67.8296 257.5,67C 250.833,60.3333 244.167,53.6667 237.5,47C 236.002,46.4153 235.002,46.9153 234.5,48.5C 230.702,51.7961 227.036,55.2961 223.5,59C 243.667,79.1667 263.833,99.3333 284,119.5C 286.616,122.729 288.116,126.396 288.5,130.5C 288.702,132.95 288.369,135.283 287.5,137.5C 281.764,148.189 273.431,150.689 262.5,145C 245,127.5 227.5,110 210,92.5C 187.744,113.062 164.911,113.728 141.5,94.5C 137.351,98.8036 133.684,103.47 130.5,108.5C 130.624,109.107 130.957,109.44 131.5,109.5C 131.833,110.5 132.5,111.167 133.5,111.5C 139.007,116.426 145.34,120.092 152.5,122.5C 152.829,136.344 152.496,150.01 151.5,163.5C 134.859,161.558 119.859,155.391 106.5,145C 99.5079,144.5 92.5079,144.334 85.5,144.5C 85.5,107.5 85.5,70.5 85.5,33.5C 91.1764,33.6661 96.8431,33.4994 102.5,33C 105.457,32.7206 108.123,31.8873 110.5,30.5C 116.818,28.0078 122.818,25.0078 128.5,21.5C 131.479,20.3465 134.479,19.1798 137.5,18C 178.833,17.3333 220.167,17.3333 261.5,18C 271.727,20.2826 281.061,24.4492 289.5,30.5 Z M 493.5,272.5 C 385.833,272.5 278.167,272.5 170.5,272.5C 170.5,223.833 170.5,175.167 170.5,126.5C 183.822,127.389 196.156,124.389 207.5,117.5C 212.776,121.437 217.776,125.771 222.5,130.5C 219.806,133.86 216.806,136.86 213.5,139.5C 211.5,140.167 209.5,140.833 207.5,141.5C 200.721,143.707 193.721,144.707 186.5,144.5C 186.5,167.5 186.5,190.5 186.5,213.5C 195.272,212.562 203.605,213.895 211.5,217.5C 213.85,218.861 216.184,220.194 218.5,221.5C 227.349,231.049 231.016,242.382 229.5,255.5C 298.167,255.5 366.833,255.5 435.5,255.5C 433.183,237.467 439.849,224.134 455.5,215.5C 459.754,214.354 464.087,213.687 468.5,213.5C 471.167,213.5 473.833,213.5 476.5,213.5C 477.498,190.673 477.831,167.673 477.5,144.5C 474.167,144.5 470.833,144.5 467.5,144.5C 455.729,142.944 446.396,137.277 439.5,127.5C 436.933,122.131 435.6,116.464 435.5,110.5C 435.5,107.5 435.5,104.5 435.5,101.5C 387.499,101.667 339.499,101.5 291.5,101C 286.5,96 281.5,91 276.5,86C 348.833,85.5 421.166,85.3333 493.5,85.5C 493.5,147.833 493.5,210.167 493.5,272.5 Z M 419.5,124.5 C 420.33,129.16 421.997,133.493 424.5,137.5C 432.647,149.916 443.98,157.916 458.5,161.5C 459.499,173.148 459.832,184.814 459.5,196.5C 456.572,196.565 453.905,197.232 451.5,198.5C 450.391,198.557 449.391,198.89 448.5,199.5C 443.661,201.416 439.328,204.082 435.5,207.5C 433.167,209.167 431.167,211.167 429.5,213.5C 423.159,220.188 419.492,228.188 418.5,237.5C 361.167,237.5 303.833,237.5 246.5,237.5C 246.167,235.5 245.833,233.5 245.5,231.5C 244.559,229.95 243.893,228.284 243.5,226.5C 242.737,224.632 241.737,222.965 240.5,221.5C 236.741,214.287 231.408,208.621 224.5,204.5C 220.431,201.132 215.764,198.799 210.5,197.5C 208.621,196.659 206.621,196.325 204.5,196.5C 203.886,184.249 204.553,172.249 206.5,160.5C 209.598,160.244 212.598,159.578 215.5,158.5C 216.167,158.5 216.5,158.167 216.5,157.5C 220.976,156.343 224.642,154.01 227.5,150.5C 230.427,149.243 232.761,147.243 234.5,144.5C 238.773,147.434 242.773,150.767 246.5,154.5C 254.305,163.101 263.971,166.768 275.5,165.5C 279.037,165.689 282.37,165.023 285.5,163.5C 287.945,162.688 290.278,161.688 292.5,160.5C 288.211,173.324 288.544,185.991 293.5,198.5C 295.088,202.41 297.421,205.743 300.5,208.5C 305.798,214.823 312.465,219.157 320.5,221.5C 322.806,221.993 325.139,222.326 327.5,222.5C 339.545,223.827 350.211,220.827 359.5,213.5C 360.5,213.167 361.167,212.5 361.5,211.5C 375.441,198.593 379.608,182.927 374,164.5C 373.102,161.931 371.935,159.598 370.5,157.5C 367.865,151.866 363.865,147.533 358.5,144.5C 354.699,140.6 350.033,138.266 344.5,137.5C 342.039,136.469 339.373,135.802 336.5,135.5C 324.505,134.828 313.839,138.161 304.5,145.5C 306.744,136.929 307.077,128.262 305.5,119.5C 342.835,119.333 380.168,119.5 417.5,120C 418.099,121.622 418.766,123.122 419.5,124.5 Z M 331.5,153.5 C 338.912,153.709 345.245,156.375 350.5,161.5C 350.833,162.5 351.5,163.167 352.5,163.5C 355.709,168.331 357.376,173.664 357.5,179.5C 356.833,182.833 356.167,186.167 355.5,189.5C 348.102,201.523 337.435,205.857 323.5,202.5C 317.552,199.552 312.885,195.219 309.5,189.5C 309.204,187.597 308.537,185.93 307.5,184.5C 305.974,170.199 311.641,160.199 324.5,154.5C 326.861,154.326 329.194,153.993 331.5,153.5 Z"/></g>
<g><path style="opacity:0.702" fill="#bbd7a5" d="M 276.5,3.5 C 279.241,3.70732 281.574,4.70732 283.5,6.5C 280.267,6.02434 277.933,5.02434 276.5,3.5 Z"/></g>
<g><path style="opacity:0.49" fill="#cd8f71" d="M 126.5,2.5 C 126.631,3.37644 126.298,4.04311 125.5,4.5C 119.038,8.0665 112.371,11.0665 105.5,13.5C 112.308,9.59486 119.308,5.92819 126.5,2.5 Z"/></g>
<g><path style="opacity:0.114" fill="#cabd81" d="M 128.5,21.5 C 122.818,25.0078 116.818,28.0078 110.5,30.5C 115.555,27.0173 121.389,23.684 128,20.5C 128.399,20.7284 128.565,21.0618 128.5,21.5 Z"/></g>
<g><path style="opacity:0.224" fill="#a4a867" d="M 293.5,34.5 C 291.833,33.5 290.5,32.1667 289.5,30.5C 289.435,30.0618 289.601,29.7284 290,29.5C 291.802,30.7893 292.969,32.4559 293.5,34.5 Z"/></g>
<g><path style="opacity:0.251" fill="#eaeadf" d="M 303.5,19.5 C 319.833,35.1667 335.833,51.1667 351.5,67.5C 350.761,67.631 350.094,67.4643 349.5,67C 333.579,51.5813 318.245,35.748 303.5,19.5 Z"/></g>
<g><path style="opacity:0.733" fill="#a497d4" d="M 325.5,66.5 C 326.376,66.3691 327.043,66.7025 327.5,67.5C 303.84,68.6665 280.174,68.8331 256.5,68C 250.167,61.6667 243.833,55.3333 237.5,49C 236.552,48.5172 235.552,48.3505 234.5,48.5C 235.002,46.9153 236.002,46.4153 237.5,47C 244.167,53.6667 250.833,60.3333 257.5,67C 280.337,67.8296 303.004,67.663 325.5,66.5 Z"/></g>
<g><path style="opacity:0.137" fill="#7cd160" d="M 133.5,111.5 C 132.5,111.167 131.833,110.5 131.5,109.5C 131.435,109.062 131.601,108.728 132,108.5C 133.039,109.244 133.539,110.244 133.5,111.5 Z"/></g>
<g><path style="opacity:0.165" fill="#cdd9cb" d="M 207.5,117.5 C 208.251,116.427 209.251,116.26 210.5,117C 215.407,121.364 219.407,125.864 222.5,130.5C 217.776,125.771 212.776,121.437 207.5,117.5 Z"/></g>
<g><path style="opacity:0.251" fill="#af8f96" d="M 435.5,110.5 C 435.6,116.464 436.933,122.131 439.5,127.5C 435.252,122.441 433.918,116.775 435.5,110.5 Z"/></g>
<g><path style="opacity:0.4" fill="#82bc3e" d="M 152.5,122.5 C 153.826,136.339 153.826,150.339 152.5,164.5C 151.893,164.376 151.56,164.043 151.5,163.5C 152.496,150.01 152.829,136.344 152.5,122.5 Z"/></g>
<g><path style="opacity:0.58" fill="#a98e95" d="M 419.5,124.5 C 421.454,128.408 423.454,132.408 425.5,136.5C 425.376,137.107 425.043,137.44 424.5,137.5C 421.997,133.493 420.33,129.16 419.5,124.5 Z"/></g>
<g><path style="opacity:0.263" fill="#9c6a48" d="M 288.5,130.5 C 289.152,131.449 289.486,132.615 289.5,134C 289.392,135.681 288.725,136.848 287.5,137.5C 288.369,135.283 288.702,132.95 288.5,130.5 Z"/></g>
<g><path style="opacity:0.98" fill="#caac92" d="M 336.5,135.5 C 339.373,135.802 342.039,136.469 344.5,137.5C 344.565,137.938 344.399,138.272 344,138.5C 341.244,137.93 338.744,136.93 336.5,135.5 Z"/></g>
<g><path style="opacity:0.588" fill="#a08d6a" d="M 213.5,139.5 C 211.915,141.982 209.915,142.648 207.5,141.5C 209.5,140.833 211.5,140.167 213.5,139.5 Z"/></g>
<g><path style="opacity:0.886" fill="#908b2d" d="M 246.5,154.5 C 242.773,150.767 238.773,147.434 234.5,144.5C 234.517,142.972 235.184,142.472 236.5,143C 240.439,146.429 243.772,150.263 246.5,154.5 Z"/></g>
<g><path style="opacity:0.486" fill="#a59e8d" d="M 358.5,144.5 C 363.865,147.533 367.865,151.866 370.5,157.5C 366.743,152.913 362.41,148.746 357.5,145C 357.728,144.601 358.062,144.435 358.5,144.5 Z"/></g>
<g><path style="opacity:0.867" fill="#eb86be" d="M 467.5,144.5 C 470.833,144.5 474.167,144.5 477.5,144.5C 477.831,167.673 477.498,190.673 476.5,213.5C 476.5,190.833 476.5,168.167 476.5,145.5C 473.287,145.81 470.287,145.477 467.5,144.5 Z"/></g>
<g><path style="opacity:0.408" fill="#c1a777" d="M 331.5,153.5 C 329.194,153.993 326.861,154.326 324.5,154.5C 326.713,152.688 329.047,152.355 331.5,153.5 Z"/></g>
<g><path style="opacity:0.29" fill="#c5cfb7" d="M 227.5,150.5 C 224.642,154.01 220.976,156.343 216.5,157.5C 219.894,154.779 223.561,152.446 227.5,150.5 Z"/></g>
<g><path style="opacity:0.082" fill="#cbbc82" d="M 215.5,158.5 C 212.598,159.578 209.598,160.244 206.5,160.5C 208.225,159.346 210.725,158.346 214,157.5C 214.765,157.57 215.265,157.903 215.5,158.5 Z"/></g>
<g><path style="opacity:0.043" fill="#92bf45" d="M 352.5,163.5 C 351.5,163.167 350.833,162.5 350.5,161.5C 350.435,161.062 350.601,160.728 351,160.5C 352.039,161.244 352.539,162.244 352.5,163.5 Z"/></g>
<g><path style="opacity:0.988" fill="#cf9d7b" d="M 108.5,167.5 C 105.484,166.657 102.817,165.157 100.5,163C 95.5111,162.501 90.5111,162.334 85.5,162.5C 90.0762,161.354 95.4095,161.187 101.5,162C 104.02,163.697 106.353,165.53 108.5,167.5 Z"/></g>
<g><path style="opacity:0.765" fill="#b99e66" d="M 285.5,163.5 C 282.37,165.023 279.037,165.689 275.5,165.5C 278.418,164.635 281.418,163.635 284.5,162.5C 285.107,162.624 285.44,162.957 285.5,163.5 Z"/></g>
<g><path style="opacity:0.463" fill="#c9cea5" d="M 120.5,173.5 C 124.182,173.711 127.182,175.044 129.5,177.5C 126.261,176.538 123.261,175.205 120.5,173.5 Z"/></g>
<g><path style="opacity:0.722" fill="#8ba166" d="M 357.5,179.5 C 358.124,179.917 358.457,180.584 358.5,181.5C 358.095,184.505 357.095,187.171 355.5,189.5C 356.167,186.167 356.833,182.833 357.5,179.5 Z"/></g>
<g><path style="opacity:0.4" fill="#7fbc3f" d="M 150.5,180.5 C 151.5,180.5 152.5,180.5 153.5,180.5C 153.5,217.167 153.5,253.833 153.5,290.5C 153.154,253.783 152.154,217.116 150.5,180.5 Z"/></g>
<g><path style="opacity:0.035" fill="#c0de5a" d="M 307.5,184.5 C 308.537,185.93 309.204,187.597 309.5,189.5C 309.5,189.833 309.5,190.167 309.5,190.5C 308.229,188.891 307.229,187.058 306.5,185C 306.728,184.601 307.062,184.435 307.5,184.5 Z"/></g>
<g><path style="opacity:0.871" fill="#b07a7b" d="M 309.5,189.5 C 312.885,195.219 317.552,199.552 323.5,202.5C 316.677,201.01 312.01,197.01 309.5,190.5C 309.5,190.167 309.5,189.833 309.5,189.5 Z"/></g>
<g><path style="opacity:0.992" fill="#b9d584" d="M 451.5,198.5 C 450.779,200.382 449.779,200.715 448.5,199.5C 449.391,198.89 450.391,198.557 451.5,198.5 Z"/></g>
<g><path style="opacity:0.949" fill="#ba9873" d="M 293.5,198.5 C 296.546,201.233 298.88,204.566 300.5,208.5C 297.421,205.743 295.088,202.41 293.5,198.5 Z"/></g>
<g><path style="opacity:0.988" fill="#b5b694" d="M 210.5,197.5 C 215.764,198.799 220.431,201.132 224.5,204.5C 219.484,202.659 214.818,200.326 210.5,197.5 Z"/></g>
<g><path style="opacity:0.863" fill="#b7a37c" d="M 435.5,207.5 C 434.287,210.225 432.454,212.559 430,214.5C 429.601,214.272 429.435,213.938 429.5,213.5C 431.167,211.167 433.167,209.167 435.5,207.5 Z"/></g>
<g><path style="opacity:0.173" fill="#6ce055" d="M 361.5,211.5 C 361.167,212.5 360.5,213.167 359.5,213.5C 359.062,213.565 358.728,213.399 358.5,213C 359.244,211.961 360.244,211.461 361.5,211.5 Z"/></g>
<g><path style="opacity:0.78" fill="#a59f5e" d="M 468.5,213.5 C 464.087,213.687 459.754,214.354 455.5,215.5C 459.58,212.775 463.914,212.108 468.5,213.5 Z"/></g>
<g><path style="opacity:0.757" fill="#c4a080" d="M 211.5,217.5 C 214.579,216.883 216.913,218.217 218.5,221.5C 216.184,220.194 213.85,218.861 211.5,217.5 Z"/></g>
<g><path style="opacity:0.506" fill="#5ea27e" d="M 320.5,221.5 C 322.953,220.355 325.287,220.688 327.5,222.5C 325.139,222.326 322.806,221.993 320.5,221.5 Z"/></g>
<g><path style="opacity:0.459" fill="#c7a387" d="M 240.5,221.5 C 241.737,222.965 242.737,224.632 243.5,226.5C 241.616,225.618 240.283,224.118 239.5,222C 239.728,221.601 240.062,221.435 240.5,221.5 Z"/></g>
<g><path style="opacity:0.047" fill="#cbe9c7" d="M 245.5,231.5 C 245.833,233.5 246.167,235.5 246.5,237.5C 245.374,237.141 244.708,235.808 244.5,233.5C 244.543,232.584 244.876,231.917 245.5,231.5 Z"/></g>
<g><path style="opacity:0.933" fill="#d2773c" d="M 170.5,126.5 C 170.5,175.167 170.5,223.833 170.5,272.5C 278.167,272.5 385.833,272.5 493.5,272.5C 385.668,273.499 277.668,273.833 169.5,273.5C 169.168,224.33 169.501,175.33 170.5,126.5 Z"/></g>
<g><path style="opacity:0.995" fill="#8043b8" d="M 511.5,340.5 C 511.5,397.5 511.5,454.5 511.5,511.5C 482.833,511.5 454.167,511.5 425.5,511.5C 425.5,507.5 425.5,503.5 425.5,499.5C 426.745,499.031 426.579,498.697 425,498.5C 423.541,498.808 422.374,499.475 421.5,500.5C 415.406,503.538 409.073,506.204 402.5,508.5C 402.44,507.957 402.107,507.624 401.5,507.5C 399.402,507.957 397.736,508.957 396.5,510.5C 395.508,510.328 394.842,510.662 394.5,511.5C 348.167,511.5 301.833,511.5 255.5,511.5C 233.782,500.806 212.782,488.806 192.5,475.5C 188.823,471.805 184.49,468.805 179.5,466.5C 178.893,466.624 178.56,466.957 178.5,467.5C 159.131,455.819 139.798,444.152 120.5,432.5C 120.179,430.952 119.179,430.285 117.5,430.5C 103.63,423.313 90.4628,414.979 78,405.5C 68.7741,391.646 68.1075,377.313 76,362.5C 89.2681,347.421 104.768,344.421 122.5,353.5C 124.579,355.873 127.246,357.206 130.5,357.5C 140.657,362.076 150.323,367.409 159.5,373.5C 160.315,374.837 161.482,375.837 163,376.5C 163.399,376.272 163.565,375.938 163.5,375.5C 166.331,376.079 168.664,377.412 170.5,379.5C 172,381.179 173.833,382.512 176,383.5C 176.399,383.272 176.565,382.938 176.5,382.5C 179.331,383.079 181.664,384.412 183.5,386.5C 185.579,388.873 188.246,390.206 191.5,390.5C 197.015,393.423 202.682,396.09 208.5,398.5C 208.435,398.938 208.601,399.272 209,399.5C 211.051,394.786 213.885,390.619 217.5,387C 217.272,386.601 216.938,386.435 216.5,386.5C 218.296,384.1 220.63,382.433 223.5,381.5C 223.435,381.938 223.601,382.272 224,382.5C 228.076,380.561 231.909,378.561 235.5,376.5C 245.833,373.834 256.166,371.167 266.5,368.5C 266.56,369.043 266.893,369.376 267.5,369.5C 270.45,368.512 273.45,367.679 276.5,367C 277.056,366.617 277.389,366.117 277.5,365.5C 294.833,360.833 312.167,356.167 329.5,351.5C 329.735,352.097 330.235,352.43 331,352.5C 333.03,352.046 334.863,351.38 336.5,350.5C 345.952,348.982 355.619,348.315 365.5,348.5C 372.342,348.5 379.009,348.834 385.5,349.5C 387.984,350.369 390.651,351.036 393.5,351.5C 394.416,351.457 395.083,351.124 395.5,350.5C 405.268,355.553 414.935,360.886 424.5,366.5C 425.498,357.859 425.831,349.192 425.5,340.5C 454.167,340.5 482.833,340.5 511.5,340.5 Z M 493.5,358.5 C 493.5,403.5 493.5,448.5 493.5,493.5C 476.833,493.5 460.167,493.5 443.5,493.5C 443.5,448.5 443.5,403.5 443.5,358.5C 460.167,358.5 476.833,358.5 493.5,358.5 Z M 103.5,366.5 C 105.527,366.338 107.527,366.505 109.5,367C 120.73,373.115 132.063,378.948 143.5,384.5C 144.514,385.674 145.847,386.34 147.5,386.5C 151.347,389.593 155.68,391.926 160.5,393.5C 175.277,402.059 190.277,410.392 205.5,418.5C 206.176,419.602 206.842,420.602 207.5,421.5C 208.127,425.42 209.793,428.753 212.5,431.5C 216.999,438.43 223.333,442.93 231.5,445C 238.556,445.788 245.556,445.455 252.5,444C 282.5,436 312.5,428 342.5,420C 343.022,419.439 343.355,418.772 343.5,418C 342.222,413.691 340.889,409.524 339.5,405.5C 339.5,404.5 339.5,403.5 339.5,402.5C 337.435,402.517 335.435,402.85 333.5,403.5C 326.439,405.348 319.439,407.348 312.5,409.5C 311.209,409.263 310.209,409.596 309.5,410.5C 305.322,410.878 301.322,411.878 297.5,413.5C 296.041,413.433 294.708,413.766 293.5,414.5C 293.167,414.5 292.833,414.5 292.5,414.5C 289.833,415.167 287.167,415.833 284.5,416.5C 272.5,419.833 260.5,423.167 248.5,426.5C 245.833,426.833 243.167,427.167 240.5,427.5C 230.361,427.03 224.694,421.697 223.5,411.5C 224.108,404.103 227.775,398.937 234.5,396C 269.167,386.667 303.833,377.333 338.5,368C 355.51,366.055 372.51,366.055 389.5,368C 401.572,374.401 413.405,381.235 425,388.5C 425.5,419.165 425.667,449.832 425.5,480.5C 418.53,482.597 411.864,485.263 405.5,488.5C 401.076,489.546 396.743,490.879 392.5,492.5C 347.904,493.661 303.238,493.828 258.5,493C 236.144,480.157 213.811,467.324 191.5,454.5C 189.178,452.336 186.511,450.669 183.5,449.5C 182.101,448.11 180.434,447.11 178.5,446.5C 175.039,443.931 171.372,441.597 167.5,439.5C 166.395,438.4 165.062,437.733 163.5,437.5C 159.37,434.597 155.037,431.93 150.5,429.5C 131.869,418.181 113.203,406.848 94.5,395.5C 92.8058,394.473 91.4725,393.139 90.5,391.5C 88.7846,387.034 88.1179,382.367 88.5,377.5C 90.0838,374.574 92.0838,371.908 94.5,369.5C 95.1667,369.167 95.8333,368.833 96.5,368.5C 98.588,367.061 100.921,366.394 103.5,366.5 Z"/></g>
<g><path style="opacity:0.988" fill="#beaa8e" d="M 385.5,349.5 C 388.881,349.46 392.214,349.793 395.5,350.5C 395.083,351.124 394.416,351.457 393.5,351.5C 390.651,351.036 387.984,350.369 385.5,349.5 Z"/></g>
<g><path style="opacity:0.988" fill="#a8a98c" d="M 336.5,350.5 C 334.863,351.38 333.03,352.046 331,352.5C 330.235,352.43 329.735,352.097 329.5,351.5C 331.764,350.781 334.097,350.448 336.5,350.5 Z"/></g>
<g><path style="opacity:0.533" fill="#9e996d" d="M 122.5,353.5 C 125.485,354.326 128.151,355.659 130.5,357.5C 127.246,357.206 124.579,355.873 122.5,353.5 Z"/></g>
<g><path style="opacity:0.733" fill="#97a1c5" d="M 493.5,358.5 C 476.833,358.5 460.167,358.5 443.5,358.5C 443.5,403.5 443.5,448.5 443.5,493.5C 442.5,448.905 442.167,403.572 442.5,357.5C 460.244,357.168 477.244,357.501 493.5,358.5 Z"/></g>
<g><path style="opacity:0.118" fill="#b3af99" d="M 103.5,366.5 C 100.921,366.394 98.588,367.061 96.5,368.5C 96.5774,367.25 97.244,366.417 98.5,366C 100.387,365.22 102.054,365.387 103.5,366.5 Z"/></g>
<g><path style="opacity:0.212" fill="#97ae98" d="M 277.5,365.5 C 277.389,366.117 277.056,366.617 276.5,367C 273.45,367.679 270.45,368.512 267.5,369.5C 266.893,369.376 266.56,369.043 266.5,368.5C 270.107,367.348 273.773,366.348 277.5,365.5 Z"/></g>
<g><path style="opacity:0.149" fill="#a19c7b" d="M 94.5,369.5 C 92.0838,371.908 90.0838,374.574 88.5,377.5C 88.9843,373.084 90.9843,370.417 94.5,369.5 Z"/></g>
<g><path style="opacity:0.157" fill="#b0cd6c" d="M 159.5,373.5 C 161.153,373.66 162.486,374.326 163.5,375.5C 163.565,375.938 163.399,376.272 163,376.5C 161.482,375.837 160.315,374.837 159.5,373.5 Z"/></g>
<g><path style="opacity:0.196" fill="#d9b06e" d="M 170.5,379.5 C 172.819,379.992 174.819,380.992 176.5,382.5C 176.565,382.938 176.399,383.272 176,383.5C 173.833,382.512 172,381.179 170.5,379.5 Z"/></g>
<g><path style="opacity:0.965" fill="#c5917c" d="M 235.5,376.5 C 231.909,378.561 228.076,380.561 224,382.5C 223.601,382.272 223.435,381.938 223.5,381.5C 227.115,379.068 231.115,377.401 235.5,376.5 Z"/></g>
<g><path style="opacity:0.173" fill="#8cd049" d="M 143.5,384.5 C 145.38,384.229 146.713,384.896 147.5,386.5C 145.847,386.34 144.514,385.674 143.5,384.5 Z"/></g>
<g><path style="opacity:0.533" fill="#9e996d" d="M 183.5,386.5 C 186.485,387.326 189.151,388.659 191.5,390.5C 188.246,390.206 185.579,388.873 183.5,386.5 Z"/></g>
<g><path style="opacity:0.082" fill="#c5b692" d="M 147.5,386.5 C 152.32,388.074 156.653,390.407 160.5,393.5C 155.68,391.926 151.347,389.593 147.5,386.5 Z"/></g>
<g><path style="opacity:0.98" fill="#c58c86" d="M 216.5,386.5 C 216.938,386.435 217.272,386.601 217.5,387C 213.885,390.619 211.051,394.786 209,399.5C 208.601,399.272 208.435,398.938 208.5,398.5C 209.998,393.678 212.664,389.678 216.5,386.5 Z"/></g>
<g><path style="opacity:0.976" fill="#a8a46a" d="M 90.5,391.5 C 91.4725,393.139 92.8058,394.473 94.5,395.5C 94.1034,396.525 93.4368,396.692 92.5,396C 90.6812,394.585 90.0146,393.085 90.5,391.5 Z"/></g>
<g><path style="opacity:0.306" fill="#b1a384" d="M 339.5,405.5 C 338.849,404.909 338.182,404.243 337.5,403.5C 336.005,404.705 334.672,404.705 333.5,403.5C 335.435,402.85 337.435,402.517 339.5,402.5C 339.5,403.5 339.5,404.5 339.5,405.5 Z"/></g>
<g><path style="opacity:0.357" fill="#cfc668" d="M 312.5,409.5 C 311.828,410.267 310.995,410.934 310,411.5C 309.601,411.272 309.435,410.938 309.5,410.5C 310.209,409.596 311.209,409.263 312.5,409.5 Z"/></g>
<g><path style="opacity:0.992" fill="#789630" d="M 297.5,413.5 C 296.295,415.138 294.962,415.471 293.5,414.5C 294.708,413.766 296.041,413.433 297.5,413.5 Z"/></g>
<g><path style="opacity:0.741" fill="#b0a65d" d="M 292.5,414.5 C 290.776,416.162 288.609,417.162 286,417.5C 285.235,417.43 284.735,417.097 284.5,416.5C 287.167,415.833 289.833,415.167 292.5,414.5 Z"/></g>
<g><path style="opacity:0.514" fill="#8b8175" d="M 207.5,421.5 C 209.35,424.687 211.35,427.853 213.5,431C 213.272,431.399 212.938,431.565 212.5,431.5C 209.793,428.753 208.127,425.42 207.5,421.5 Z"/></g>
<g><path style="opacity:0.78" fill="#b8c368" d="M 248.5,426.5 C 245.96,428.413 243.293,428.746 240.5,427.5C 243.167,427.167 245.833,426.833 248.5,426.5 Z"/></g>
<g><path style="opacity:0.157" fill="#a2ea8d" d="M 117.5,430.5 C 119.179,430.285 120.179,430.952 120.5,432.5C 119.29,432.068 118.29,431.401 117.5,430.5 Z"/></g>
<g><path style="opacity:0.584" fill="#aca6a5" d="M 150.5,429.5 C 155.037,431.93 159.37,434.597 163.5,437.5C 163.565,437.938 163.399,438.272 163,438.5C 158.257,436.069 154.09,433.069 150.5,429.5 Z"/></g>
<g><path style="opacity:0.408" fill="#c49a88" d="M 167.5,439.5 C 171.372,441.597 175.039,443.931 178.5,446.5C 173.957,445.404 170.291,443.07 167.5,439.5 Z"/></g>
<g><path style="opacity:0.235" fill="#bed78c" d="M 183.5,449.5 C 186.511,450.669 189.178,452.336 191.5,454.5C 188.151,453.831 185.484,452.164 183.5,449.5 Z"/></g>
<g><path style="opacity:0.098" fill="#d49962" d="M 178.5,467.5 C 178.56,466.957 178.893,466.624 179.5,466.5C 184.49,468.805 188.823,471.805 192.5,475.5C 187.833,472.833 183.167,470.167 178.5,467.5 Z"/></g>
<g><path style="opacity:0.871" fill="#c3847d" d="M 405.5,488.5 C 401.932,490.528 398.098,492.195 394,493.5C 393.235,493.43 392.735,493.097 392.5,492.5C 396.743,490.879 401.076,489.546 405.5,488.5 Z"/></g>
<g><path style="opacity:0.4" fill="#90ce79" d="M 425.5,499.5 C 424.292,500.234 422.959,500.567 421.5,500.5C 422.374,499.475 423.541,498.808 425,498.5C 426.579,498.697 426.745,499.031 425.5,499.5 Z"/></g>
<g><path style="opacity:0.075" fill="#959673" d="M 402.5,508.5 C 400.579,509.363 398.579,510.029 396.5,510.5C 397.736,508.957 399.402,507.957 401.5,507.5C 402.107,507.624 402.44,507.957 402.5,508.5 Z"/></g>
</svg>
